<svg width="111" height="140" viewBox="0 0 111 140" fill="none" xmlns="http://www.w3.org/2000/svg">
<g opacity="0.1">
<path d="M32.7497 165.981C26.4976 165.981 20.3617 163.368 16.1807 159.07C11.8836 154.89 9.27051 149.025 9.27051 142.385C9.27051 135.746 11.4771 130.249 16.0452 125.952L63.6423 71.4445C63.7327 71.4445 63.7778 71.3994 63.7778 71.309L63.9133 71.1735L64.3005 70.7864L65.0747 70.0122L66.2554 68.9669L70.5525 64.6698C74.4625 60.7599 77.4627 56.8499 79.4177 52.9399C80.5984 50.7333 81.1211 48.6428 81.1211 46.6878C81.1211 43.5521 79.8242 41.21 77.0756 39.7776C75.1206 38.5969 72.643 38.0743 69.6428 38.0743C64.0295 38.0743 59.7324 39.6421 57.2548 44.9845C54.2545 57.6241 46.2991 64.2827 34.8208 64.2827C27.7751 64.2827 22.2973 62.1922 18.2518 57.8951C14.4774 53.8497 12.3869 48.2363 12.3869 41.9842C12.3869 40.4164 12.5224 38.8485 12.774 37.1645C14.2064 27.3896 20.4584 16.8211 29.9817 8.47851C40.4148 -0.386676 53.7126 -6 68.9653 -6C86.1731 -6 100.516 -1.70291 110.949 6.77515C121.769 15.7758 127.247 28.2994 127.247 44.4619C127.247 54.8949 125.428 63.6246 120.86 72.4898C116.562 80.9678 109.13 90.8782 98.6966 101.969L81.876 119.7H104.562C110.949 119.7 116.95 122.042 121.247 126.087C125.544 130.384 128.021 136.249 128.021 142.656C128.021 149.063 125.544 154.909 121.247 159.225C116.95 163.406 110.814 166 104.562 166H32.711L32.7497 165.981Z" fill="url(#paint0_linear_453_2772)"/>
<mask id="mask0_453_2772" style="mask-type:luminance" maskUnits="userSpaceOnUse" x="9" y="-6" width="120" height="172">
<path d="M32.7497 165.981C26.4976 165.981 20.3617 163.368 16.1807 159.07C11.8836 154.89 9.27051 149.025 9.27051 142.385C9.27051 135.746 11.4771 130.249 16.0452 125.952L63.6423 71.4445C63.7327 71.4445 63.7778 71.3994 63.7778 71.309L63.9133 71.1735L64.3005 70.7864L65.0747 70.0122L66.2554 68.9669L70.5525 64.6698C74.4625 60.7599 77.4627 56.8499 79.4177 52.9399C80.5984 50.7333 81.1211 48.6428 81.1211 46.6878C81.1211 43.5521 79.8242 41.21 77.0756 39.7776C75.1206 38.5969 72.643 38.0743 69.6428 38.0743C64.0295 38.0743 59.7324 39.6421 57.2548 44.9845C54.2545 57.6241 46.2991 64.2827 34.8208 64.2827C27.7751 64.2827 22.2973 62.1922 18.2518 57.8951C14.4774 53.8497 12.3869 48.2363 12.3869 41.9842C12.3869 40.4164 12.5224 38.8485 12.774 37.1645C14.2064 27.3896 20.4584 16.8211 29.9817 8.47851C40.4148 -0.386676 53.7126 -6 68.9653 -6C86.1731 -6 100.516 -1.70291 110.949 6.77515C121.769 15.7758 127.247 28.2994 127.247 44.4619C127.247 54.8949 125.428 63.6246 120.86 72.4898C116.562 80.9678 109.13 90.8782 98.6966 101.969L81.876 119.7H104.562C110.949 119.7 116.95 122.042 121.247 126.087C125.544 130.384 128.021 136.249 128.021 142.656C128.021 149.063 125.544 154.909 121.247 159.225C116.95 163.406 110.814 166 104.562 166H32.711L32.7497 165.981Z" fill="white"/>
</mask>
<g mask="url(#mask0_453_2772)">
<path opacity="0.2" d="M43.4149 -64.398C33.5045 -57.9136 24.0005 -49.9195 20.5164 -38.1509C18.755 -32.1891 18.9872 -25.7241 21.852 -20.2076C27.9492 -8.49703 41.9244 -7.02596 54.177 -6.40655C72.5655 -5.45809 91.3217 -4.52899 109.149 -9.1745C119.098 -11.7489 128.776 -16.0653 139.364 -14.2652C143.255 -13.6071 146.429 -10.5294 146.932 -6.61947C147.745 -0.173828 141.242 2.84576 135.744 4.5104C105.491 13.6853 73.9398 17.9243 43.531 26.5959C13.1223 35.2675 -17.0348 49.1654 -37.3009 73.4382C-49.8437 88.4974 -58.225 108.241 -55.1087 127.597C-53.715 136.269 -50.1147 144.437 -46.108 152.238C-39.7204 164.606 -31.9779 176.607 -21.119 185.318C-1.04653 201.403 26.5749 204.074 52.0671 205.1C79.8821 206.242 107.736 205.564 135.454 202.951C155.043 201.112 174.747 198.209 193 190.892C211.64 183.421 228.829 170.897 238.681 153.399C241.468 148.444 243.694 142.637 242.223 137.159C241.081 132.92 237.888 129.533 234.365 126.939C220.486 116.758 201.769 117.106 184.58 117.88L129.531 120.358C98.8513 121.732 66.8166 122.874 38.8855 110.099C35.2659 108.434 31.5882 106.421 29.4396 103.073C25.3942 96.7625 28.317 88.1296 33.2528 82.4969C41.2276 73.4188 53.5576 69.1604 65.6165 68.2894C77.6755 67.4184 89.7151 69.5476 101.677 71.2509C116.833 73.3995 132.086 74.8899 147.358 75.6835C155.914 76.1287 164.605 76.361 172.947 74.3673C180.109 72.6445 187.832 68.212 187.445 60.0242C187.271 56.5982 185.548 53.4431 183.012 51.1204C177.496 46.0684 170.082 45.236 162.959 44.8489C135.861 43.3972 108.607 47.191 81.6048 44.5392C79.6305 44.3457 77.3078 43.8811 76.4754 42.081C75.8754 40.7841 76.3012 39.2356 76.9206 37.9387C82.1855 26.925 97.2641 26.4604 109.459 25.8023C127.344 24.8539 144.997 19.9761 160.83 11.6142C170.818 6.34924 181.503 -3.87087 175.444 -14.8652C173.431 -18.5429 169.947 -21.1754 165.979 -22.5303C147.01 -28.9953 126.899 -24.8725 107.252 -26.208C104.116 -26.421 100.98 -26.7694 97.8641 -27.2339C88.4376 -28.6276 87.915 -42.0608 97.206 -44.2675C129.976 -52.0293 164.837 -52.61 197.956 -59.8493C200.569 -60.4106 202.853 -62.1527 203.84 -64.6303C206.085 -70.263 199.833 -74.3665 194.588 -76.3021C144.106 -94.8842 89.3474 -94.4583 43.4149 -64.398Z" fill="white"/>
</g>
<mask id="mask1_453_2772" style="mask-type:luminance" maskUnits="userSpaceOnUse" x="9" y="-6" width="120" height="172">
<path d="M32.7497 165.981C26.4976 165.981 20.3617 163.368 16.1807 159.07C11.8836 154.89 9.27051 149.025 9.27051 142.385C9.27051 135.746 11.4771 130.249 16.0452 125.952L63.6423 71.4445C63.7327 71.4445 63.7778 71.3994 63.7778 71.309L63.9133 71.1735L64.3005 70.7864L65.0747 70.0122L66.2554 68.9669L70.5525 64.6698C74.4625 60.7599 77.4627 56.8499 79.4177 52.9399C80.5984 50.7333 81.1211 48.6428 81.1211 46.6878C81.1211 43.5521 79.8242 41.21 77.0756 39.7776C75.1206 38.5969 72.643 38.0743 69.6428 38.0743C64.0295 38.0743 59.7324 39.6421 57.2548 44.9845C54.2545 57.6241 46.2991 64.2827 34.8208 64.2827C27.7751 64.2827 22.2973 62.1922 18.2518 57.8951C14.4774 53.8497 12.3869 48.2363 12.3869 41.9842C12.3869 40.4164 12.5224 38.8485 12.774 37.1645C14.2064 27.3896 20.4584 16.8211 29.9817 8.47851C40.4148 -0.386676 53.7126 -6 68.9653 -6C86.1731 -6 100.516 -1.70291 110.949 6.77515C121.769 15.7758 127.247 28.2994 127.247 44.4619C127.247 54.8949 125.428 63.6246 120.86 72.4898C116.562 80.9678 109.13 90.8782 98.6966 101.969L81.876 119.7H104.562C110.949 119.7 116.95 122.042 121.247 126.087C125.544 130.384 128.021 136.249 128.021 142.656C128.021 149.063 125.544 154.909 121.247 159.225C116.95 163.406 110.814 166 104.562 166H32.711L32.7497 165.981Z" fill="white"/>
</mask>
<g mask="url(#mask1_453_2772)">
<path d="M151.272 77.5932C173.377 68.5815 183.991 43.3565 174.979 21.2517C165.967 -0.853064 140.742 -11.467 118.638 -2.45523C96.5327 6.55656 85.9188 31.7815 94.9306 53.8863C103.942 75.9911 129.167 86.605 151.272 77.5932Z" fill="#EFC0D5"/>
<path d="M118.168 65.5026C94.0698 65.5026 74.4619 49.6885 74.4619 30.2354C74.4619 10.7824 94.0698 -5.03174 118.168 -5.03174C142.267 -5.03174 161.875 10.7824 161.875 30.2354C161.875 49.6885 142.267 65.5026 118.168 65.5026ZM118.168 -4.04456C94.5925 -4.04456 75.4297 11.3437 75.4297 30.2548C75.4297 49.1659 94.6118 64.5541 118.168 64.5541C141.725 64.5541 160.907 49.1659 160.907 30.2548C160.907 11.3437 141.725 -4.04456 118.168 -4.04456Z" fill="white"/>
</g>
<path d="M67.5914 93.7237C68.5205 93.7237 68.5205 92.272 67.5914 92.272C66.6623 92.272 66.6623 93.7237 67.5914 93.7237Z" fill="white"/>
<path d="M78.7596 97.1497C79.6887 97.1497 79.6887 95.698 78.7596 95.698C77.8305 95.698 77.8305 97.1497 78.7596 97.1497Z" fill="white"/>
<path d="M100.671 82.9808C101.601 82.9808 101.601 81.5291 100.671 81.5291C99.7423 81.5291 99.7423 82.9808 100.671 82.9808Z" fill="white"/>
<path d="M69.2945 118.635C70.2236 118.635 70.2236 117.183 69.2945 117.183C68.3654 117.183 68.3654 118.635 69.2945 118.635Z" fill="white"/>
<path d="M38.8082 130.655C39.7373 130.655 39.7373 129.203 38.8082 129.203C37.8791 129.203 37.8791 130.655 38.8082 130.655Z" fill="white"/>
<path d="M36.2337 41.3067C37.1628 41.3067 37.1628 39.855 36.2337 39.855C35.3046 39.855 35.3046 41.3067 36.2337 41.3067Z" fill="white"/>
<path d="M43.9566 20.6922C44.8857 20.6922 44.8857 19.2405 43.9566 19.2405C43.0275 19.2405 43.0275 20.6922 43.9566 20.6922Z" fill="white"/>
<path d="M73.5914 4.37457C74.5205 4.37457 74.5205 2.92285 73.5914 2.92285C72.6623 2.92285 72.6623 4.37457 73.5914 4.37457Z" fill="white"/>
<path d="M89.0574 23.2669C89.9865 23.2669 89.9865 21.8152 89.0574 21.8152C88.1283 21.8152 88.1283 23.2669 89.0574 23.2669Z" fill="white"/>
<path d="M25.0652 40.4549C25.9943 40.4549 25.9943 39.0032 25.0652 39.0032C24.1361 39.0032 24.1361 40.4549 25.0652 40.4549Z" fill="white"/>
<path d="M51.6998 4.37457C52.6289 4.37457 52.6289 2.92285 51.6998 2.92285C50.7707 2.92285 50.7707 4.37457 51.6998 4.37457Z" fill="white"/>
<path d="M51.2544 106.595C52.1835 106.595 52.1835 105.144 51.2544 105.144C50.3253 105.144 50.3253 106.595 51.2544 106.595Z" fill="white"/>
<path fill-rule="evenodd" clip-rule="evenodd" d="M59.4228 110.176L61.3198 111.26L59.3841 112.267L58.3002 114.164L57.2936 112.228L55.3967 111.144L57.3324 110.138L58.4163 108.241L59.4228 110.176Z" fill="white"/>
<path fill-rule="evenodd" clip-rule="evenodd" d="M50.8288 33.7188L52.7258 34.8028L50.7901 35.8093L49.7062 37.7062L48.6997 35.7706L46.8027 34.6866L48.7384 33.6801L49.8223 31.7832L50.8288 33.7188Z" fill="white"/>
<path fill-rule="evenodd" clip-rule="evenodd" d="M45.97 133.133C42.4084 143.276 31.2979 148.618 21.1552 145.057C11.0125 141.495 5.67017 130.385 9.23173 120.242C12.7933 110.099 23.9038 104.757 34.0465 108.318C44.1892 111.88 49.5315 122.99 45.97 133.133Z" fill="url(#paint1_linear_453_2772)"/>
<path d="M46.3183 119.739C51.4284 120.145 54.7383 121.306 55.0287 123.126C55.6093 126.765 43.9181 131.662 28.917 134.062C13.9159 136.462 1.27623 135.456 0.695541 131.817C0.424553 130.113 2.82473 128.139 7.00569 126.281" stroke="#1D1670" stroke-width="0.5" stroke-miterlimit="10"/>
<g opacity="0.2">
<path fill-rule="evenodd" clip-rule="evenodd" d="M53.6547 135.824C48.6027 150.205 32.8466 157.774 18.4649 152.722C4.08319 147.67 -3.48512 131.914 1.56687 117.532C6.61886 103.15 22.3749 95.582 36.7566 100.634C51.1383 105.686 58.7066 121.442 53.6547 135.824Z" fill="url(#paint2_linear_453_2772)"/>
</g>
</g>
<defs>
<linearGradient id="paint0_linear_453_2772" x1="106.768" y1="220.565" x2="30.6399" y2="-36.2345" gradientUnits="userSpaceOnUse">
<stop offset="0.04" stop-color="#0C0F6C"/>
<stop offset="0.91" stop-color="#4172DA"/>
</linearGradient>
<linearGradient id="paint1_linear_453_2772" x1="8.12842" y1="126.688" x2="47.0733" y2="126.688" gradientUnits="userSpaceOnUse">
<stop stop-color="#EFC0D5"/>
<stop offset="1" stop-color="#C74ECE"/>
</linearGradient>
<linearGradient id="paint2_linear_453_2772" x1="-0.0203455" y1="126.688" x2="55.2225" y2="126.688" gradientUnits="userSpaceOnUse">
<stop stop-color="#EFC0D5"/>
<stop offset="1" stop-color="#C74ECE"/>
</linearGradient>
</defs>
</svg>
