<svg width="97" height="140" viewBox="0 0 97 140" fill="none" xmlns="http://www.w3.org/2000/svg">
<g opacity="0.1">
<path d="M17.3698 133.368C6.47147 122.701 0 107.98 0 92.2812C0 80.2983 3.46686 69.2933 10.2939 59.3372L41.9223 1.25395C46.1181 -5.82199 53.3007 -10 61.0878 -10C67.2037 -10 72.3418 -7.84877 76.5376 -3.40408C80.2533 0.436132 82.2801 5.82309 82.2801 10.73C82.2801 14.9258 81.1956 18.7483 78.9199 22.464L71.1328 35.158C84.0757 38.0382 95.5608 45.3453 103.828 55.5147C112.095 65.702 116.878 78.7516 116.878 92.2812C116.878 107.98 110.406 122.701 99.7566 133.368C89.0893 144.035 74.2441 150.489 58.4388 150.489C42.6335 150.489 28.0193 144.017 17.3521 133.368H17.3698ZM69.5861 103.304C72.8218 100.317 74.3685 96.6014 74.3685 92.2812C74.3685 87.961 72.804 84.263 69.6927 81.1339C66.457 78.1471 62.7412 76.707 58.4388 76.707C54.1363 76.707 50.2961 78.3782 47.4159 81.1339C44.1802 84.3697 42.6335 88.0854 42.6335 92.2812C42.6335 96.477 44.3047 100.299 47.5404 103.304C50.5272 106.291 54.243 107.855 58.4388 107.855C62.6346 107.855 66.7059 106.184 69.5861 103.304Z" fill="url(#paint0_linear_453_3301)"/>
<mask id="mask0_453_3301" style="mask-type:luminance" maskUnits="userSpaceOnUse" x="0" y="-10" width="117" height="161">
<path d="M17.3698 133.368C6.47147 122.701 0 107.98 0 92.2812C0 80.2983 3.46686 69.2933 10.2939 59.3372L41.9223 1.25395C46.1181 -5.82199 53.3007 -10 61.0878 -10C67.2037 -10 72.3418 -7.84877 76.5376 -3.40408C80.2533 0.436132 82.2801 5.82309 82.2801 10.73C82.2801 14.9258 81.1956 18.7483 78.9199 22.464L71.1328 35.158C84.0757 38.0382 95.5608 45.3453 103.828 55.5147C112.095 65.702 116.878 78.7516 116.878 92.2812C116.878 107.98 110.406 122.701 99.7566 133.368C89.0893 144.035 74.2441 150.489 58.4388 150.489C42.6335 150.489 28.0193 144.017 17.3521 133.368H17.3698ZM69.5861 103.304C72.8218 100.317 74.3685 96.6014 74.3685 92.2812C74.3685 87.961 72.804 84.263 69.6927 81.1339C66.457 78.1471 62.7412 76.707 58.4388 76.707C54.1363 76.707 50.2961 78.3782 47.4159 81.1339C44.1802 84.3697 42.6335 88.0854 42.6335 92.2812C42.6335 96.477 44.3047 100.299 47.5404 103.304C50.5272 106.291 54.243 107.855 58.4388 107.855C62.6346 107.855 66.7059 106.184 69.5861 103.304Z" fill="white"/>
</mask>
<g mask="url(#mask0_453_3301)">
<path opacity="0.1" d="M-11.1121 10.8013C-18.1703 19.264 -24.4462 28.9712 -24.3395 40.3851C-24.2862 46.1632 -22.3305 51.8524 -18.2592 55.9771C-9.63649 64.7421 3.182 62.2352 14.2759 59.4618C30.9169 55.3015 47.8422 51.0168 62.4386 42.0386C70.5813 37.0427 78.0306 30.5713 87.9333 29.2734C91.578 28.7934 95.2404 30.6779 96.7516 34.0204C99.2406 39.5318 94.2626 43.9942 89.8357 46.9811C65.4077 63.3731 38.4728 75.7293 13.7781 91.7302C-10.9166 107.731 -33.9756 128.301 -45.4074 155.414C-52.5011 172.215 -54.5634 192.091 -46.5452 208.466C-42.9539 215.808 -37.5314 222.084 -31.8244 227.951C-22.775 237.232 -12.6233 245.801 -0.587101 250.583C21.6541 259.437 46.9711 254.299 69.9412 248.272C94.9915 241.712 119.615 233.534 143.563 223.684C160.506 216.715 177.236 208.786 191.495 197.3C206.038 185.566 217.932 169.761 221.95 151.502C223.087 146.329 223.496 140.568 220.687 136.07C218.518 132.604 214.749 130.452 210.909 129.101C195.779 123.821 179.227 129.208 164.133 134.577C148.026 140.302 131.918 146.044 115.81 151.769C88.8756 161.352 60.6785 171.077 32.3392 167.308C28.659 166.828 24.8365 166.028 22.0275 163.628C16.7116 159.112 16.9605 150.631 19.8229 144.284C24.4454 134.026 34.2593 126.879 44.7487 122.825C55.2382 118.772 66.5277 117.385 77.6395 115.643C91.7202 113.438 105.694 110.611 119.508 107.162C127.26 105.242 135.047 103.073 141.927 99.0373C147.848 95.5704 153.501 89.5079 150.923 82.3252C149.839 79.3206 147.439 76.9738 144.559 75.6049C138.283 72.618 131.438 73.8803 125.002 75.4804C100.503 81.5608 77.2661 92.3702 52.5181 97.3305C50.7046 97.7039 48.5178 97.9172 47.2733 96.5305C46.3844 95.5349 46.3488 94.0414 46.5444 92.7258C48.2334 81.4896 61.5319 76.9738 72.1991 73.0803C87.8445 67.3733 102.245 58.2172 114.068 46.4655C121.517 39.0517 128.256 27.0511 119.864 18.9262C117.073 16.206 113.25 14.8015 109.357 14.6771C90.7068 14.0726 73.9415 23.2286 56.0916 27.3889C53.2292 28.0467 50.349 28.5978 47.4511 29.0245C38.6862 30.3401 34.5615 18.5351 42.2242 14.0548C69.2656 -1.76829 100.147 -11.7777 127.651 -27.2275C129.82 -28.4364 131.385 -30.6054 131.58 -33.0945C132.042 -38.7303 125.358 -40.6682 120.166 -40.9527C70.2257 -43.7795 21.6186 -28.4898 -11.0943 10.7657L-11.1121 10.8013Z" fill="white"/>
</g>
<path fill-rule="evenodd" clip-rule="evenodd" d="M81.2133 69.649L84.4135 71.4802L81.1422 73.187L79.311 76.4049L77.6042 73.1336L74.4041 71.3024L77.6576 69.5956L79.4888 66.3777L81.2133 69.649Z" fill="white"/>
<path fill-rule="evenodd" clip-rule="evenodd" d="M44.8906 20.2413L46.9351 21.4146L44.855 22.4991L43.6816 24.5437L42.5971 22.4636L40.5703 21.2902L42.6504 20.2057L43.806 18.1611L44.8906 20.2413Z" fill="white"/>
<path fill-rule="evenodd" clip-rule="evenodd" d="M13.5653 93.7388L15.5921 94.8944L13.512 95.9789L12.3564 98.0235L11.2541 95.9434L9.22729 94.7878L11.3074 93.6855L12.463 91.6587L13.5653 93.7388Z" fill="white"/>
<path fill-rule="evenodd" clip-rule="evenodd" d="M92.129 109.331L94.1736 110.504L92.0935 111.589L90.9201 113.633L89.8356 111.553L87.791 110.38L89.8711 109.295L91.0445 107.251L92.129 109.331Z" fill="white"/>
<path d="M35.2551 62.9279C31.486 64.4213 29.6193 68.7238 31.0949 72.4928C32.5883 76.2619 36.8908 78.1287 40.6599 76.6531L94.4762 55.443L89.0715 41.7356L35.2551 62.9457V62.9279Z" fill="url(#paint1_linear_453_3301)"/>
<path d="M36.0374 65.9512C33.6551 66.8935 32.4817 69.5959 33.4239 71.9782C34.3662 74.3606 37.0686 75.534 39.4509 74.5917L73.3373 61.2398L69.9415 52.5994L36.0552 65.9512H36.0374Z" fill="url(#paint2_linear_453_3301)"/>
<path d="M48.6606 66.0571C48.6606 66.0571 40.8913 72.5108 39.2735 73.1508C37.6556 73.7909 35.8244 72.9908 35.1843 71.373C34.5443 69.7551 35.3444 67.9239 36.9622 67.2839C38.5801 66.6438 48.6784 66.0571 48.6784 66.0571H48.6606Z" fill="url(#paint3_linear_453_3301)"/>
<path d="M56.768 22.2509C57.6213 22.2509 57.6213 20.9175 56.768 20.9175C55.9146 20.9175 55.9146 22.2509 56.768 22.2509Z" fill="white"/>
<path d="M69.6566 21.3615C70.51 21.3615 70.51 20.0281 69.6566 20.0281C68.8033 20.0281 68.8033 21.3615 69.6566 21.3615Z" fill="white"/>
<path d="M68.768 6.694C69.6213 6.694 69.6213 5.3606 68.768 5.3606C67.9146 5.3606 67.9146 6.694 68.768 6.694Z" fill="white"/>
<path d="M42.1 34.2514C42.9534 34.2514 42.9534 32.918 42.1 32.918C41.2466 32.918 41.2466 34.2514 42.1 34.2514Z" fill="white"/>
<path d="M46.9887 12.0277C47.842 12.0277 47.842 10.6943 46.9887 10.6943C46.1353 10.6943 46.1353 12.0277 46.9887 12.0277Z" fill="white"/>
<path d="M93.6586 77.3644C94.512 77.3644 94.512 76.031 93.6586 76.031C92.8052 76.031 92.8052 77.3644 93.6586 77.3644Z" fill="white"/>
<path d="M94.547 63.5861C95.4004 63.5861 95.4004 62.2527 94.547 62.2527C93.6936 62.2527 93.6936 63.5861 94.547 63.5861Z" fill="white"/>
<path d="M20.3207 80.4755C21.1741 80.4755 21.1741 79.1421 20.3207 79.1421C19.4673 79.1421 19.4673 80.4755 20.3207 80.4755Z" fill="white"/>
<path d="M25.6547 61.3639C26.5081 61.3639 26.5081 60.0305 25.6547 60.0305C24.8013 60.0305 24.8013 61.3639 25.6547 61.3639Z" fill="white"/>
<path d="M53.2113 49.3632C54.0647 49.3632 54.0647 48.0298 53.2113 48.0298C52.3579 48.0298 52.3579 49.3632 53.2113 49.3632Z" fill="white"/>
<path d="M88.3248 123.589C89.1782 123.589 89.1782 122.256 88.3248 122.256C87.4715 122.256 87.4715 123.589 88.3248 123.589Z" fill="white"/>
<path d="M50.9894 129.812C51.8428 129.812 51.8428 128.479 50.9894 128.479C50.136 128.479 50.136 129.812 50.9894 129.812Z" fill="white"/>
<path d="M8.31972 105.366C9.1731 105.366 9.1731 104.033 8.31972 104.033C7.46634 104.033 7.46634 105.366 8.31972 105.366Z" fill="white"/>
<path d="M62.1007 118.256C62.9541 118.256 62.9541 116.923 62.1007 116.923C61.2473 116.923 61.2473 118.256 62.1007 118.256Z" fill="white"/>
<path d="M63.8783 138.257C64.7317 138.257 64.7317 136.924 63.8783 136.924C63.0249 136.924 63.0249 138.257 63.8783 138.257Z" fill="white"/>
<path d="M28.3214 122.256C29.1748 122.256 29.1748 120.923 28.3214 120.923C27.4681 120.923 27.4681 122.256 28.3214 122.256Z" fill="white"/>
<path d="M35.433 106.7C36.2864 106.7 36.2864 105.366 35.433 105.366C34.5796 105.366 34.5796 106.7 35.433 106.7Z" fill="white"/>
<path d="M60.5011 131.359C62.6523 141.759 55.9675 151.929 45.5669 154.08C35.1664 156.231 24.9969 149.546 22.8457 139.146C20.6945 128.745 27.3793 118.576 37.7798 116.425C48.1804 114.273 58.3499 120.958 60.5011 131.359Z" fill="url(#paint4_linear_453_3301)"/>
<path d="M23.3612 143.2C17.7609 143.2 13.7962 142.328 13.3517 140.213C12.8539 137.813 17.2808 135.306 21.1033 133.635C21.3166 133.528 21.5833 133.635 21.69 133.866C21.7966 134.097 21.69 134.346 21.4588 134.452C16.6408 136.586 13.9384 138.666 14.2229 140.035C14.7918 142.737 26.988 143.36 43.6112 139.91C51.2383 138.328 58.2609 136.212 63.3989 133.955C68.217 131.821 70.9193 129.741 70.6349 128.372C70.3682 127.074 67.1325 125.83 58.8476 126.167C58.5987 126.167 58.4031 125.99 58.3853 125.741C58.3853 125.492 58.5631 125.296 58.812 125.279C63.2923 125.101 70.8838 125.225 71.506 128.194C72.0038 130.594 67.5769 133.101 63.7545 134.772C58.5631 137.066 51.4694 139.199 43.789 140.799C36.6241 142.275 29.1215 143.217 23.3434 143.217L23.3612 143.2Z" fill="white"/>
<path fill-rule="evenodd" clip-rule="evenodd" d="M83.1153 31.9931C87.0622 24.206 96.5738 21.1125 104.343 25.0594C112.13 29.0063 115.224 38.5179 111.277 46.2872C107.33 54.0743 97.8184 57.1678 90.049 53.221C82.2619 49.2741 79.1684 39.7624 83.1153 31.9931Z" fill="url(#paint5_linear_453_3301)"/>
<g opacity="0.2">
<path fill-rule="evenodd" clip-rule="evenodd" d="M75.9861 28.3839C81.9242 16.6677 96.2539 11.9918 107.97 17.93C119.686 23.8681 124.362 38.1977 118.424 49.9139C112.486 61.6301 98.1562 66.306 86.44 60.3679C74.7238 54.4297 70.048 40.1001 75.9861 28.3839Z" fill="url(#paint6_linear_453_3301)"/>
</g>
<path opacity="0.2" d="M66.6876 130.078C69.55 143.893 60.6606 157.422 46.8465 160.285C33.0324 163.147 19.5028 154.258 16.6404 140.443C13.778 126.629 22.6674 113.1 36.4815 110.237C50.2956 107.375 63.8252 116.264 66.6876 130.078Z" fill="url(#paint7_linear_453_3301)"/>
</g>
<defs>
<linearGradient id="paint0_linear_453_3301" x1="67.6304" y1="-126.22" x2="55.3986" y2="164.712" gradientUnits="userSpaceOnUse">
<stop stop-color="#0C0F6C"/>
<stop offset="0.59" stop-color="#3C0289"/>
<stop offset="1" stop-color="#8B46AB"/>
</linearGradient>
<linearGradient id="paint1_linear_453_3301" x1="31.0896" y1="72.4879" x2="91.7561" y2="48.5662" gradientUnits="userSpaceOnUse">
<stop stop-color="#F2CC33" stop-opacity="0.2"/>
<stop offset="1" stop-color="#DA185E" stop-opacity="0"/>
</linearGradient>
<linearGradient id="paint2_linear_453_3301" x1="33.4263" y1="71.9687" x2="71.6157" y2="56.9101" gradientUnits="userSpaceOnUse">
<stop stop-color="#F2CC33" stop-opacity="0.8"/>
<stop offset="0.31" stop-color="#E77E45" stop-opacity="0.46"/>
<stop offset="0.63" stop-color="#DD3557" stop-opacity="0.13"/>
<stop offset="0.78" stop-color="#DA185E" stop-opacity="0"/>
</linearGradient>
<linearGradient id="paint3_linear_453_3301" x1="35.1628" y1="71.3789" x2="48.6589" y2="66.0572" gradientUnits="userSpaceOnUse">
<stop stop-color="#F2CC33"/>
<stop offset="1" stop-color="#F7DC6B" stop-opacity="0.3"/>
</linearGradient>
<linearGradient id="paint4_linear_453_3301" x1="22.8524" y1="139.151" x2="60.5102" y2="131.359" gradientUnits="userSpaceOnUse">
<stop stop-color="#4172DA"/>
<stop offset="0.82" stop-color="#8BECEF"/>
</linearGradient>
<linearGradient id="paint5_linear_453_3301" x1="90.1414" y1="66.8041" x2="101.608" y2="22.0062" gradientUnits="userSpaceOnUse">
<stop offset="0.13" stop-color="#C74ECE"/>
<stop offset="1" stop-color="#EFC0D5"/>
</linearGradient>
<linearGradient id="paint6_linear_453_3301" x1="86.5683" y1="80.8087" x2="103.836" y2="13.3159" gradientUnits="userSpaceOnUse">
<stop offset="0.13" stop-color="#C74ECE"/>
<stop offset="1" stop-color="#EFC0D5"/>
</linearGradient>
<linearGradient id="paint7_linear_453_3301" x1="16.654" y1="140.433" x2="66.7077" y2="130.077" gradientUnits="userSpaceOnUse">
<stop stop-color="#4172DA"/>
<stop offset="0.82" stop-color="#8BECEF"/>
</linearGradient>
</defs>
</svg>
