<svg width="76" height="140" viewBox="0 0 76 140" fill="none" xmlns="http://www.w3.org/2000/svg">
<g opacity="0.1">
<path d="M23.2169 142.681C15.0022 137.529 8.44094 130.254 3.63744 120.996C1.18347 116.888 0 112.676 0 108.447C0 103.748 1.87964 99.0665 5.51707 95.3072C9.62441 91.1999 14.776 89.094 20.763 89.094C28.3859 89.094 35.4171 92.9577 39.5245 99.8845L40.5861 102.112C43.51 107.159 46.3294 109.491 51.8465 109.491C57.3636 109.491 60.6355 109.265 63.3332 107.49C66.5007 105.489 68.0148 101.747 68.0148 94.8199C68.0148 90.8344 66.1352 88.0149 62.3933 86.2571C60.7574 85.561 59.4695 85.1955 58.5296 85.0911L56.5456 84.8648H21.3721C15.7506 84.743 10.4598 82.5153 6.83977 78.7734C2.85425 74.9097 0.852792 70.0888 0.852792 64.3455L0.38289 16.2757C0.38289 11.1241 2.73242 6.07691 6.59611 2.21323C10.3554 -1.42421 15.3851 -3.65192 20.9022 -4H79.1708C84.7923 -4 89.9613 -1.54604 93.825 2.33505C97.5842 6.19874 99.9164 11.8376 99.9164 17.4591C99.9164 23.0806 97.6886 28.1278 93.825 31.887C90.0657 35.5245 84.7923 37.6304 79.1708 37.6304H42.3613V43.2519H52.3338C67.806 43.2519 82.2339 47.9335 92.6589 56.4963C103.328 65.2853 109.541 78.0773 109.541 93.5494C109.541 109.022 103.206 123.676 92.5371 134.118C81.8684 144.787 67.4405 151 51.8465 151C41.4041 151 31.7971 148.181 23.2343 142.681H23.2169Z" fill="url(#paint0_linear_453_2944)"/>
<path d="M18.7096 25.0822C19.5449 25.0822 19.5449 23.7769 18.7096 23.7769C17.8742 23.7769 17.8742 25.0822 18.7096 25.0822Z" fill="white"/>
<path d="M66.1529 21.4625C66.9883 21.4625 66.9883 20.1572 66.1529 20.1572C65.3175 20.1572 65.3175 21.4625 66.1529 21.4625Z" fill="white"/>
<path d="M71.3736 8.60071C72.209 8.60071 72.209 7.29541 71.3736 7.29541C70.5382 7.29541 70.5382 8.60071 71.3736 8.60071Z" fill="white"/>
<path d="M46.0513 8.60071C46.8867 8.60071 46.8867 7.29541 46.0513 7.29541C45.216 7.29541 45.216 8.60071 46.0513 8.60071Z" fill="white"/>
<path d="M23.1295 9.401C23.9649 9.401 23.9649 8.0957 23.1295 8.0957C22.2941 8.0957 22.2941 9.401 23.1295 9.401Z" fill="white"/>
<path d="M29.5689 40.7633C30.4043 40.7633 30.4043 39.458 29.5689 39.458C28.7335 39.458 28.7335 40.7633 29.5689 40.7633Z" fill="white"/>
<path d="M10.2681 56.4442C11.1035 56.4442 11.1035 55.1389 10.2681 55.1389C9.43275 55.1389 9.43275 56.4442 10.2681 56.4442Z" fill="white"/>
<path d="M50.0709 64.0844C50.9063 64.0844 50.9063 62.7791 50.0709 62.7791C49.2355 62.7791 49.2355 64.0844 50.0709 64.0844Z" fill="white"/>
<path d="M30.7701 63.2838C31.6055 63.2838 31.6055 61.9785 30.7701 61.9785C29.9347 61.9785 29.9347 63.2838 30.7701 63.2838Z" fill="white"/>
<path d="M7.44881 15.0404C8.2842 15.0404 8.2842 13.7351 7.44881 13.7351C6.61342 13.7351 6.61342 15.0404 7.44881 15.0404Z" fill="white"/>
<path d="M68.1539 57.2448C68.9893 57.2448 68.9893 55.9395 68.1539 55.9395C67.3185 55.9395 67.3185 57.2448 68.1539 57.2448Z" fill="white"/>
<path d="M47.6519 138.069C48.4873 138.069 48.4873 136.764 47.6519 136.764C46.8165 136.764 46.8165 138.069 47.6519 138.069Z" fill="white"/>
<path d="M41.2301 124.789C42.0655 124.789 42.0655 123.484 41.2301 123.484C40.3947 123.484 40.3947 124.789 41.2301 124.789Z" fill="white"/>
<path d="M23.5301 104.287C24.3655 104.287 24.3655 102.982 23.5301 102.982C22.6947 102.982 22.6947 104.287 23.5301 104.287Z" fill="white"/>
<path d="M15.0894 111.528C15.9248 111.528 15.9248 110.223 15.0894 110.223C14.254 110.223 14.254 111.528 15.0894 111.528Z" fill="white"/>
<path d="M63.3336 136.05C64.169 136.05 64.169 134.745 63.3336 134.745C62.4982 134.745 62.4982 136.05 63.3336 136.05Z" fill="white"/>
<path d="M31.1707 132.03C32.0061 132.03 32.0061 130.725 31.1707 130.725C30.3353 130.725 30.3353 132.03 31.1707 132.03Z" fill="white"/>
<path fill-rule="evenodd" clip-rule="evenodd" d="M14.6889 39.719L16.2726 40.624L14.6541 41.4594L13.7491 43.0606L12.8963 41.442L11.3125 40.5196L12.9311 39.6842L13.8361 38.083L14.6889 39.719Z" fill="white"/>
<path fill-rule="evenodd" clip-rule="evenodd" d="M33.3285 72.3166L34.9297 73.2217L33.2937 74.0745L32.3887 75.6582L31.5359 74.0396L29.9521 73.1346L31.5707 72.2818L32.4757 70.6807L33.3285 72.3166Z" fill="white"/>
<mask id="mask0_453_2944" style="mask-type:luminance" maskUnits="userSpaceOnUse" x="0" y="-4" width="110" height="155">
<path d="M23.2169 142.681C15.0022 137.529 8.44094 130.254 3.63744 120.996C1.18347 116.888 0 112.676 0 108.447C0 103.748 1.87964 99.0665 5.51707 95.3072C9.62441 91.1999 14.776 89.094 20.763 89.094C28.3859 89.094 35.4171 92.9577 39.5245 99.8845L40.5861 102.112C43.51 107.159 46.3294 109.491 51.8465 109.491C57.3636 109.491 60.6355 109.265 63.3332 107.49C66.5007 105.489 68.0148 101.747 68.0148 94.8199C68.0148 90.8344 66.1352 88.0149 62.3933 86.2571C60.7574 85.561 59.4695 85.1955 58.5296 85.0911L56.5456 84.8648H21.3721C15.7506 84.743 10.4598 82.5153 6.83977 78.7734C2.85425 74.9097 0.852792 70.0888 0.852792 64.3455L0.38289 16.2757C0.38289 11.1241 2.73242 6.07691 6.59611 2.21323C10.3554 -1.42421 15.3851 -3.65192 20.9022 -4H79.1708C84.7923 -4 89.9613 -1.54604 93.825 2.33505C97.5842 6.19874 99.9164 11.8376 99.9164 17.4591C99.9164 23.0806 97.6886 28.1278 93.825 31.887C90.0657 35.5245 84.7923 37.6304 79.1708 37.6304H42.3613V43.2519H52.3338C67.806 43.2519 82.2339 47.9335 92.6589 56.4963C103.328 65.2853 109.541 78.0773 109.541 93.5494C109.541 109.022 103.206 123.676 92.5371 134.118C81.8684 144.787 67.4405 151 51.8465 151C41.4041 151 31.7971 148.181 23.2343 142.681H23.2169Z" fill="white"/>
</mask>
<g mask="url(#mask0_453_2944)">
<path opacity="0.2" d="M24.3657 -10.335C14.2366 -7.09784 4.07262 -2.46837 -1.79252 6.89498C-4.7512 11.6289 -6.10871 17.2852 -4.94264 22.75C-2.47128 34.3759 9.27643 38.9879 19.7536 42.4861C35.4694 47.7422 51.4811 53.0504 68.0323 53.3288C77.2738 53.4855 86.6894 52.0932 95.4262 56.1831C98.646 57.6972 100.647 61.1258 100.143 64.6414C99.3073 70.4196 92.9374 71.4812 87.7684 71.603C59.3477 72.2644 30.9966 68.3485 2.57588 68.5399C-25.8448 68.7488 -55.3272 73.5175 -78.7182 89.6684C-93.2331 99.6757 -105.224 114.782 -107.191 132.291C-108.079 140.14 -106.93 148.076 -105.312 155.804C-102.771 168.056 -98.9416 180.308 -91.6146 190.472C-78.0917 209.234 -54.8051 218.197 -32.9631 225.228C-9.13701 232.903 15.159 239.012 39.7856 243.433C57.207 246.565 74.9591 248.793 92.5372 246.827C110.481 244.825 128.389 238.124 141.129 225.35C144.749 221.73 148.056 217.24 148.108 212.123C148.143 208.172 146.194 204.465 143.757 201.367C134.185 189.202 117.895 185.007 102.805 181.527C86.7068 177.82 70.6081 174.13 54.5094 170.423C27.6028 164.245 -0.435005 157.509 -21.5635 139.722C-24.2959 137.425 -26.9935 134.78 -28.0552 131.368C-30.0392 124.929 -25.4272 118.159 -19.8057 114.469C-10.7208 108.517 0.992119 107.803 11.6434 109.944C22.2946 112.085 32.2149 116.819 42.17 121.187C54.7879 126.704 67.632 131.647 80.685 136.033C87.9947 138.487 95.4784 140.784 103.171 141.062C109.785 141.306 117.547 139.322 119.183 132.117C119.861 129.106 119.13 125.956 117.494 123.328C113.927 117.637 107.696 115.113 101.622 113.077C78.4921 105.297 53.9699 102.043 31.2229 93.2188C29.5521 92.5749 27.655 91.6176 27.3592 89.8424C27.1503 88.5719 27.8987 87.3363 28.7341 86.3616C35.9393 78.0773 49.1142 81.3145 59.835 83.6814C75.5508 87.1622 92.0324 87.1796 107.766 83.751C117.686 81.5929 129.399 75.3101 126.788 64.3282C125.918 60.6559 123.534 57.5406 120.436 55.4173C105.555 45.236 87.1419 43.9829 70.4341 38.1003C67.7538 37.1605 65.1432 36.0989 62.5501 34.9502C54.7183 31.4694 57.5029 19.7043 66.0657 20.035C96.3138 21.2011 126.666 29.0677 157.106 30.7733C159.508 30.9125 161.909 29.9553 163.354 28.0408C166.661 23.6898 162.223 18.6427 158.15 15.7014C118.939 -12.5453 71.3913 -25.3372 24.3657 -10.3524V-10.335Z" fill="white"/>
<path d="M59.1563 28.1804C78.3418 28.1804 93.8947 12.6275 93.8947 -6.55801C93.8947 -25.7435 78.3418 -41.2964 59.1563 -41.2964C39.9709 -41.2964 24.418 -25.7435 24.418 -6.55801C24.418 12.6275 39.9709 28.1804 59.1563 28.1804Z" fill="url(#paint1_linear_453_2944)"/>
</g>
<path fill-rule="evenodd" clip-rule="evenodd" d="M53.9172 18.7473L56.3538 20.1222L53.865 21.4275L52.4901 23.8467L51.1848 21.3753L48.7656 19.983L51.237 18.6951L52.6293 16.2585L53.9172 18.7473Z" fill="white"/>
<mask id="mask1_453_2944" style="mask-type:luminance" maskUnits="userSpaceOnUse" x="0" y="-4" width="110" height="155">
<path d="M23.2169 142.681C15.0022 137.529 8.44094 130.254 3.63744 120.996C1.18347 116.888 0 112.676 0 108.447C0 103.748 1.87964 99.0665 5.51707 95.3072C9.62441 91.1999 14.776 89.094 20.763 89.094C28.3859 89.094 35.4171 92.9577 39.5245 99.8845L40.5861 102.112C43.51 107.159 46.3294 109.491 51.8465 109.491C57.3636 109.491 60.6355 109.265 63.3332 107.49C66.5007 105.489 68.0148 101.747 68.0148 94.8199C68.0148 90.8344 66.1352 88.0149 62.3933 86.2571C60.7574 85.561 59.4695 85.1955 58.5296 85.0911L56.5456 84.8648H21.3721C15.7506 84.743 10.4598 82.5153 6.83977 78.7734C2.85425 74.9097 0.852792 70.0888 0.852792 64.3455L0.38289 16.2757C0.38289 11.1241 2.73242 6.07691 6.59611 2.21323C10.3554 -1.42421 15.3851 -3.65192 20.9022 -4H79.1708C84.7923 -4 89.9613 -1.54604 93.825 2.33505C97.5842 6.19874 99.9164 11.8376 99.9164 17.4591C99.9164 23.0806 97.6886 28.1278 93.825 31.887C90.0657 35.5245 84.7923 37.6304 79.1708 37.6304H42.3613V43.2519H52.3338C67.806 43.2519 82.2339 47.9335 92.6589 56.4963C103.328 65.2853 109.541 78.0773 109.541 93.5494C109.541 109.022 103.206 123.676 92.5371 134.118C81.8684 144.787 67.4405 151 51.8465 151C41.4041 151 31.7971 148.181 23.2343 142.681H23.2169Z" fill="white"/>
</mask>
<g mask="url(#mask1_453_2944)">
<path d="M59.1563 28.1804C78.3418 28.1804 93.8947 12.6275 93.8947 -6.55801C93.8947 -25.7435 78.3418 -41.2964 59.1563 -41.2964C39.9709 -41.2964 24.418 -25.7435 24.418 -6.55801C24.418 12.6275 39.9709 28.1804 59.1563 28.1804Z" fill="url(#paint2_linear_453_2944)"/>
</g>
<path fill-rule="evenodd" clip-rule="evenodd" d="M42.7439 21.2883L45.8766 23.0809L42.6742 24.7517L40.899 27.8844L39.2109 24.6995L36.0781 22.9068L39.2805 21.2187L41.0731 18.0859L42.7439 21.2883Z" fill="white"/>
<path d="M116.329 123.606C111.23 123.606 104.163 122.371 97.5326 120.508C85.7849 117.202 73.8979 111.528 75.0292 107.508C75.6209 105.402 79.5368 105.001 82.687 105.054V105.924C78.7188 105.889 76.1953 106.568 75.8646 107.751C75.151 110.292 83.9749 115.809 97.7588 119.673C111.543 123.537 121.95 123.415 122.664 120.891C123.029 119.603 120.924 117.532 117.042 115.339L117.478 114.574C120.575 116.314 124.143 118.855 123.517 121.118C123.029 122.858 120.262 123.606 116.346 123.606H116.329Z" fill="white"/>
<g opacity="0.2">
<path fill-rule="evenodd" clip-rule="evenodd" d="M115.267 129.019C106.756 137.808 92.7287 138.017 83.9397 129.506C75.1507 120.996 74.9418 106.968 83.4524 98.1789C91.9629 89.3899 105.991 89.1811 114.78 97.6916C123.569 106.202 123.777 120.23 115.267 129.019Z" fill="url(#paint3_linear_453_2944)"/>
</g>
</g>
<defs>
<linearGradient id="paint0_linear_453_2944" x1="51.7769" y1="-5.14866" x2="56.9981" y2="180.204" gradientUnits="userSpaceOnUse">
<stop offset="0.22" stop-color="#3C0289"/>
<stop offset="0.65" stop-color="#4172DA"/>
<stop offset="1" stop-color="#80C3FF"/>
</linearGradient>
<linearGradient id="paint1_linear_453_2944" x1="104.424" y1="-55.7591" x2="24.3658" y2="31.2609" gradientUnits="userSpaceOnUse">
<stop offset="0.04" stop-color="#0C0F6C"/>
<stop offset="0.91" stop-color="#E0369B"/>
</linearGradient>
<linearGradient id="paint2_linear_453_2944" x1="104.424" y1="-55.7591" x2="24.3658" y2="31.2609" gradientUnits="userSpaceOnUse">
<stop offset="0.37" stop-color="#8BECEF"/>
<stop offset="0.91" stop-color="#E0369B"/>
</linearGradient>
<linearGradient id="paint3_linear_453_2944" x1="73.7061" y1="179.282" x2="110.429" y2="85.2652" gradientUnits="userSpaceOnUse">
<stop offset="0.13" stop-color="#C74ECE"/>
<stop offset="1" stop-color="#EFC0D5"/>
</linearGradient>
</defs>
</svg>
