<svg width="72" height="68" viewBox="0 0 72 68" fill="none" xmlns="http://www.w3.org/2000/svg">
<rect x="0.5" y="0.5" width="71" height="67" rx="7.5" fill="#FFF9F2" stroke="#FFCEB0"/>
<path d="M16.2315 27H13.2827V25.1761H16.1293C16.9399 25.1761 17.616 25.0284 18.1577 24.733C18.6993 24.4337 19.1065 23.9886 19.3793 23.3977C19.652 22.803 19.7884 22.0606 19.7884 21.1705C19.7884 20.2803 19.652 19.5417 19.3793 18.9545C19.1065 18.3636 18.7031 17.9223 18.169 17.6307C17.6387 17.3352 16.9796 17.1875 16.1918 17.1875H13.2202V15.3636H16.3111C17.4664 15.3636 18.4588 15.5966 19.2884 16.0625C20.1217 16.5246 20.7618 17.1894 21.2088 18.0568C21.6558 18.9242 21.8793 19.9621 21.8793 21.1705C21.8793 22.3826 21.6539 23.4242 21.2031 24.2955C20.7562 25.1667 20.1103 25.8352 19.2656 26.3011C18.4247 26.767 17.4134 27 16.2315 27ZM14.3963 15.3636V27H12.2884V15.3636H14.3963ZM10.6065 21.5568V20.2614H16.0554V21.5568H10.6065ZM23.7912 27V18.2727H25.848V27H23.7912ZM25.6151 17.0455H24.0469L23.9673 15.9545C24.3688 15.9394 24.6529 15.8883 24.8196 15.8011C24.9863 15.7102 25.0677 15.5852 25.0639 15.4261C25.0677 15.2216 24.9579 15.0795 24.7344 15C24.5109 14.9205 24.2344 14.8807 23.9048 14.8807L23.956 13.8636C24.8954 13.8636 25.6075 14 26.0923 14.2727C26.5772 14.5455 26.8177 14.9167 26.8139 15.3864C26.8177 15.7462 26.6946 16.0152 26.4446 16.1932C26.1946 16.3674 25.9181 16.4773 25.6151 16.5227V17.0455ZM30.0199 21.8864V27H27.9631V18.2727H29.929V19.7557H30.0312C30.232 19.267 30.5521 18.8788 30.9915 18.5909C31.4347 18.303 31.982 18.1591 32.6335 18.1591C33.2358 18.1591 33.7604 18.2879 34.2074 18.5455C34.6581 18.803 35.0066 19.1761 35.2528 19.6648C35.5028 20.1534 35.6259 20.7462 35.6222 21.4432V27H33.5653V21.7614C33.5653 21.178 33.4138 20.7216 33.1108 20.392C32.8116 20.0625 32.3968 19.8977 31.8665 19.8977C31.5066 19.8977 31.1866 19.9773 30.9062 20.1364C30.6297 20.2917 30.4119 20.517 30.2528 20.8125C30.0975 21.108 30.0199 21.4659 30.0199 21.8864ZM39.7699 21.8864V27H37.7131V15.3636H39.7244V19.7557H39.8267C40.0313 19.2633 40.3475 18.875 40.7756 18.5909C41.2074 18.303 41.7566 18.1591 42.4233 18.1591C43.0294 18.1591 43.5578 18.286 44.0085 18.5398C44.4593 18.7936 44.8078 19.1648 45.054 19.6534C45.304 20.142 45.429 20.7386 45.429 21.4432V27H43.3722V21.7614C43.3722 21.1742 43.2206 20.7178 42.9176 20.392C42.6184 20.0625 42.1979 19.8977 41.6562 19.8977C41.2926 19.8977 40.9669 19.9773 40.679 20.1364C40.3949 20.2917 40.1714 20.517 40.0085 20.8125C39.8494 21.108 39.7699 21.4659 39.7699 21.8864ZM55.6477 27.1591C54.8295 27.1591 54.1023 27.0189 53.4659 26.7386C52.8333 26.4583 52.3333 26.0682 51.9659 25.5682C51.5985 25.0682 51.4034 24.4905 51.3807 23.8352H53.517C53.536 24.1496 53.6402 24.4242 53.8295 24.6591C54.0189 24.8902 54.2708 25.0701 54.5852 25.1989C54.8996 25.3277 55.2519 25.392 55.642 25.392C56.0587 25.392 56.428 25.3201 56.75 25.1761C57.072 25.0284 57.3239 24.8239 57.5057 24.5625C57.6875 24.3011 57.7765 24 57.7727 23.6591C57.7765 23.3068 57.6856 22.9962 57.5 22.7273C57.3144 22.4583 57.0455 22.2481 56.6932 22.0966C56.3447 21.9451 55.9242 21.8693 55.4318 21.8693H54.4034V20.2443H55.4318C55.8371 20.2443 56.1913 20.1742 56.4943 20.0341C56.8011 19.8939 57.0417 19.697 57.2159 19.4432C57.3902 19.1856 57.4754 18.8883 57.4716 18.5511C57.4754 18.2216 57.4015 17.9356 57.25 17.6932C57.1023 17.447 56.892 17.2557 56.6193 17.1193C56.3504 16.983 56.0341 16.9148 55.6705 16.9148C55.3144 16.9148 54.9848 16.9792 54.6818 17.108C54.3788 17.2367 54.1345 17.4205 53.9489 17.6591C53.7633 17.8939 53.6648 18.1742 53.6534 18.5H51.625C51.6402 17.8485 51.8277 17.2765 52.1875 16.7841C52.5511 16.2879 53.036 15.9015 53.642 15.625C54.2481 15.3447 54.928 15.2045 55.6818 15.2045C56.4583 15.2045 57.1326 15.3504 57.7045 15.642C58.2803 15.9299 58.7254 16.3182 59.0398 16.8068C59.3542 17.2955 59.5114 17.8352 59.5114 18.4261C59.5152 19.0814 59.322 19.6307 58.9318 20.0739C58.5455 20.517 58.0379 20.8068 57.4091 20.9432V21.0341C58.2273 21.1477 58.8542 21.4508 59.2898 21.9432C59.7292 22.4318 59.947 23.0398 59.9432 23.767C59.9432 24.4186 59.7576 25.0019 59.3864 25.517C59.0189 26.0284 58.5114 26.4299 57.8636 26.7216C57.2197 27.0133 56.4811 27.1591 55.6477 27.1591Z" fill="#FB6514"/>
<path d="M16.8998 53.1392C16.2767 53.1392 15.7165 53.0199 15.2194 52.7812C14.7255 52.5393 14.3311 52.2079 14.0361 51.7869C13.7412 51.366 13.5837 50.8854 13.5638 50.3452H15.0553C15.0918 50.7827 15.2857 51.1423 15.637 51.424C15.9883 51.7057 16.4092 51.8466 16.8998 51.8466C17.2909 51.8466 17.6372 51.7571 17.9388 51.5781C18.2438 51.3958 18.4824 51.1456 18.6547 50.8274C18.8304 50.5092 18.9182 50.1463 18.9182 49.7386C18.9182 49.3243 18.8287 48.9548 18.6498 48.63C18.4708 48.3052 18.2239 48.05 17.909 47.8643C17.5974 47.6787 17.2395 47.5843 16.8351 47.581C16.5269 47.581 16.217 47.634 15.9055 47.7401C15.5939 47.8461 15.342 47.9853 15.1498 48.1577L13.7428 47.9489L14.3145 42.8182H19.9126V44.1357H15.5922L15.2691 46.9844H15.3287C15.5276 46.7921 15.7911 46.6314 16.1192 46.5021C16.4507 46.3729 16.8053 46.3082 17.1831 46.3082C17.8029 46.3082 18.3548 46.4557 18.8387 46.7507C19.3259 47.0457 19.7087 47.4484 19.9871 47.9588C20.2689 48.4659 20.4081 49.0492 20.4047 49.7088C20.4081 50.3684 20.2589 50.9567 19.9573 51.4737C19.659 51.9908 19.2447 52.3984 18.7144 52.6967C18.1874 52.9917 17.5825 53.1392 16.8998 53.1392ZM25.7654 53.169C24.9798 53.1657 24.3087 52.9586 23.7519 52.5476C23.195 52.1366 22.7691 51.5384 22.4742 50.7528C22.1792 49.9673 22.0317 49.0211 22.0317 47.9141C22.0317 46.8104 22.1792 45.8674 22.4742 45.0852C22.7725 44.303 23.2 43.7064 23.7568 43.2955C24.317 42.8845 24.9865 42.679 25.7654 42.679C26.5442 42.679 27.2121 42.8861 27.7689 43.3004C28.3257 43.7114 28.7516 44.308 29.0466 45.0902C29.3449 45.8691 29.4941 46.8104 29.4941 47.9141C29.4941 49.0244 29.3466 49.9723 29.0516 50.7578C28.7566 51.54 28.3307 52.1383 27.7739 52.5526C27.2171 52.9635 26.5476 53.169 25.7654 53.169ZM25.7654 51.8416C26.4548 51.8416 26.9933 51.5052 27.3811 50.8324C27.7722 50.1596 27.9678 49.1868 27.9678 47.9141C27.9678 47.0689 27.8783 46.3546 27.6993 45.7713C27.5236 45.1847 27.2701 44.7405 26.9387 44.4389C26.6105 44.134 26.2194 43.9815 25.7654 43.9815C25.0793 43.9815 24.5407 44.3196 24.1496 44.9957C23.7585 45.6719 23.5613 46.6446 23.558 47.9141C23.558 48.7625 23.6458 49.4801 23.8215 50.0668C24.0004 50.6501 24.254 51.0926 24.5821 51.3942C24.9102 51.6925 25.3047 51.8416 25.7654 51.8416ZM38.5473 45.3636V46.5568H34.3762V45.3636H38.5473ZM35.4948 43.5341H36.9813V50.7578C36.9813 51.0462 37.0244 51.2633 37.1105 51.4091C37.1967 51.5516 37.3077 51.6494 37.4436 51.7024C37.5828 51.7521 37.7336 51.777 37.896 51.777C38.0154 51.777 38.1198 51.7687 38.2093 51.7521C38.2987 51.7356 38.3683 51.7223 38.4181 51.7124L38.6865 52.9403C38.6003 52.9735 38.4777 53.0066 38.3186 53.0398C38.1595 53.0762 37.9607 53.0961 37.722 53.0994C37.3309 53.1061 36.9664 53.0365 36.6283 52.8906C36.2902 52.7448 36.0168 52.5194 35.808 52.2145C35.5992 51.9096 35.4948 51.5268 35.4948 51.0661V43.5341ZM45.029 49.8331V45.3636H46.5205V53H45.0589V51.6776H44.9793C44.8037 52.0852 44.5219 52.425 44.1341 52.6967C43.7497 52.9652 43.2707 53.0994 42.6974 53.0994C42.2068 53.0994 41.7726 52.9917 41.3948 52.7763C41.0203 52.5575 40.7253 52.2344 40.5099 51.8068C40.2977 51.3793 40.1917 50.8506 40.1917 50.2209V45.3636H41.6782V50.0419C41.6782 50.5623 41.8224 50.9766 42.1107 51.2848C42.3991 51.593 42.7736 51.7472 43.2343 51.7472C43.5127 51.7472 43.7894 51.6776 44.0645 51.5384C44.343 51.3991 44.5733 51.1887 44.7556 50.907C44.9412 50.6252 45.0323 50.2673 45.029 49.8331ZM51.7345 53.1541C51.0186 53.1541 50.3938 52.9901 49.8602 52.6619C49.3266 52.3338 48.9123 51.8748 48.6173 51.2848C48.3223 50.6948 48.1748 50.0054 48.1748 49.2166C48.1748 48.4245 48.3223 47.7318 48.6173 47.1385C48.9123 46.5452 49.3266 46.0845 49.8602 45.7564C50.3938 45.4283 51.0186 45.2642 51.7345 45.2642C52.4504 45.2642 53.0751 45.4283 53.6088 45.7564C54.1424 46.0845 54.5567 46.5452 54.8517 47.1385C55.1466 47.7318 55.2941 48.4245 55.2941 49.2166C55.2941 50.0054 55.1466 50.6948 54.8517 51.2848C54.5567 51.8748 54.1424 52.3338 53.6088 52.6619C53.0751 52.9901 52.4504 53.1541 51.7345 53.1541ZM51.7394 51.9062C52.2035 51.9062 52.5879 51.7836 52.8928 51.5384C53.1978 51.2931 53.4231 50.9666 53.569 50.5589C53.7181 50.1513 53.7927 49.7022 53.7927 49.2116C53.7927 48.7244 53.7181 48.277 53.569 47.8693C53.4231 47.4583 53.1978 47.1286 52.8928 46.88C52.5879 46.6314 52.2035 46.5071 51.7394 46.5071C51.2721 46.5071 50.8843 46.6314 50.5761 46.88C50.2712 47.1286 50.0441 47.4583 49.895 47.8693C49.7491 48.277 49.6762 48.7244 49.6762 49.2116C49.6762 49.7022 49.7491 50.1513 49.895 50.5589C50.0441 50.9666 50.2712 51.2931 50.5761 51.5384C50.8843 51.7836 51.2721 51.9062 51.7394 51.9062ZM52.3808 42.8381L54.2948 44.5632H52.9873L51.7146 43.4347L50.4568 44.5632H49.1492L51.0583 42.8381H52.3808ZM54.5782 43.6335H53.6535L53.6237 42.7784C53.9021 42.7585 54.1076 42.7204 54.2401 42.6641C54.3727 42.6077 54.439 42.5116 54.439 42.3757C54.439 42.2166 54.3528 42.1072 54.1805 42.0476C54.0081 41.9846 53.791 41.9531 53.5292 41.9531L53.574 41.2472C54.1971 41.2472 54.6694 41.3482 54.9909 41.5504C55.3124 41.7493 55.4731 42.0211 55.4731 42.3658C55.4731 42.6475 55.3803 42.8563 55.1947 42.9922C55.0091 43.1248 54.8036 43.206 54.5782 43.2358V43.6335ZM56.9534 53V45.3636H58.4399V53H56.9534ZM57.7041 44.1854C57.4456 44.1854 57.2235 44.0992 57.0379 43.9268C56.8556 43.7512 56.7645 43.5424 56.7645 43.3004C56.7645 43.0552 56.8556 42.8464 57.0379 42.674C57.2235 42.4983 57.4456 42.4105 57.7041 42.4105C57.9626 42.4105 58.183 42.4983 58.3653 42.674C58.5509 42.8464 58.6437 43.0552 58.6437 43.3004C58.6437 43.5424 58.5509 43.7512 58.3653 43.9268C58.183 44.0992 57.9626 44.1854 57.7041 44.1854Z" fill="#1F1F1F"/>
</svg>
