<svg width="72" height="68" viewBox="0 0 72 68" fill="none" xmlns="http://www.w3.org/2000/svg">
<rect x="0.5" y="0.5" width="71" height="67" rx="7.5" fill="#FFF9F2" stroke="#FFCEB0"/>
<path d="M16.38 27H13.4311V25.1761H16.2777C17.0883 25.1761 17.7644 25.0284 18.3061 24.733C18.8478 24.4337 19.255 23.9886 19.5277 23.3977C19.8004 22.803 19.9368 22.0606 19.9368 21.1705C19.9368 20.2803 19.8004 19.5417 19.5277 18.9545C19.255 18.3636 18.8516 17.9223 18.3175 17.6307C17.7872 17.3352 17.1281 17.1875 16.3402 17.1875H13.3686V15.3636H16.4595C17.6148 15.3636 18.6072 15.5966 19.4368 16.0625C20.2701 16.5246 20.9103 17.1894 21.3572 18.0568C21.8042 18.9242 22.0277 19.9621 22.0277 21.1705C22.0277 22.3826 21.8023 23.4242 21.3516 24.2955C20.9046 25.1667 20.2588 25.8352 19.4141 26.3011C18.5732 26.767 17.5618 27 16.38 27ZM14.5447 15.3636V27H12.4368V15.3636H14.5447ZM10.755 21.5568V20.2614H16.2038V21.5568H10.755ZM23.9396 27V18.2727H25.9964V27H23.9396ZM25.7635 17.0455H24.1953L24.1158 15.9545C24.5173 15.9394 24.8014 15.8883 24.968 15.8011C25.1347 15.7102 25.2161 15.5852 25.2124 15.4261C25.2161 15.2216 25.1063 15.0795 24.8828 15C24.6593 14.9205 24.3828 14.8807 24.0533 14.8807L24.1044 13.8636C25.0438 13.8636 25.7559 14 26.2408 14.2727C26.7256 14.5455 26.9661 14.9167 26.9624 15.3864C26.9661 15.7462 26.843 16.0152 26.593 16.1932C26.343 16.3674 26.0665 16.4773 25.7635 16.5227V17.0455ZM30.1683 21.8864V27H28.1115V18.2727H30.0774V19.7557H30.1797C30.3804 19.267 30.7005 18.8788 31.1399 18.5909C31.5831 18.303 32.1304 18.1591 32.782 18.1591C33.3842 18.1591 33.9089 18.2879 34.3558 18.5455C34.8066 18.803 35.1551 19.1761 35.4013 19.6648C35.6513 20.1534 35.7744 20.7462 35.7706 21.4432V27H33.7138V21.7614C33.7138 21.178 33.5623 20.7216 33.2592 20.392C32.96 20.0625 32.5452 19.8977 32.0149 19.8977C31.6551 19.8977 31.335 19.9773 31.0547 20.1364C30.7782 20.2917 30.5604 20.517 30.4013 20.8125C30.246 21.108 30.1683 21.4659 30.1683 21.8864ZM39.9183 21.8864V27H37.8615V15.3636H39.8729V19.7557H39.9751C40.1797 19.2633 40.496 18.875 40.924 18.5909C41.3558 18.303 41.9051 18.1591 42.5717 18.1591C43.1778 18.1591 43.7062 18.286 44.157 18.5398C44.6077 18.7936 44.9562 19.1648 45.2024 19.6534C45.4524 20.142 45.5774 20.7386 45.5774 21.4432V27H43.5206V21.7614C43.5206 21.1742 43.3691 20.7178 43.0661 20.392C42.7668 20.0625 42.3464 19.8977 41.8047 19.8977C41.4411 19.8977 41.1153 19.9773 40.8274 20.1364C40.5433 20.2917 40.3198 20.517 40.157 20.8125C39.9979 21.108 39.9183 21.4659 39.9183 21.8864ZM55.6655 27.1591C54.9079 27.1591 54.2299 27.017 53.6314 26.733C53.0329 26.4451 52.5575 26.0511 52.2053 25.5511C51.8568 25.0511 51.6712 24.4792 51.6484 23.8352H53.6939C53.7318 24.3125 53.9382 24.7027 54.3132 25.0057C54.6882 25.3049 55.139 25.4545 55.6655 25.4545C56.0784 25.4545 56.4458 25.3598 56.7678 25.1705C57.0897 24.9811 57.3435 24.7178 57.5291 24.3807C57.7147 24.0436 57.8056 23.6591 57.8018 23.2273C57.8056 22.7879 57.7128 22.3977 57.5234 22.0568C57.334 21.7159 57.0746 21.4489 56.745 21.2557C56.4155 21.0587 56.0367 20.9602 55.6087 20.9602C55.2602 20.9564 54.9174 21.0208 54.5803 21.1534C54.2431 21.286 53.9761 21.4602 53.7791 21.6761L51.8757 21.3636L52.4837 15.3636H59.2337V17.125H54.228L53.8928 20.2102H53.9609C54.1768 19.9564 54.4818 19.7462 54.8757 19.5795C55.2696 19.4091 55.7015 19.3239 56.1712 19.3239C56.8757 19.3239 57.5045 19.4905 58.0575 19.8239C58.6106 20.1534 59.0462 20.608 59.3643 21.1875C59.6825 21.767 59.8416 22.4299 59.8416 23.1761C59.8416 23.9451 59.6636 24.6307 59.3075 25.233C58.9553 25.8314 58.4647 26.303 57.8359 26.6477C57.2109 26.9886 56.4875 27.1591 55.6655 27.1591Z" fill="#FB6514"/>
<path d="M17.08 53.1392C16.6259 53.1326 16.1785 53.0497 15.7377 52.8906C15.3002 52.7315 14.9024 52.4664 14.5445 52.0952C14.1865 51.724 13.8998 51.2251 13.6844 50.5987C13.4723 49.9723 13.3662 49.1901 13.3662 48.2521C13.3662 47.3639 13.454 46.575 13.6297 45.8857C13.8087 45.1963 14.0655 44.6146 14.4003 44.1406C14.7351 43.6634 15.1394 43.3004 15.6134 43.0518C16.0873 42.8033 16.6193 42.679 17.2093 42.679C17.8158 42.679 18.3544 42.7983 18.825 43.0369C19.2957 43.2756 19.6768 43.6054 19.9685 44.0263C20.2635 44.4472 20.4507 44.9261 20.5303 45.4631H19.0139C18.9112 45.0388 18.7074 44.6925 18.4024 44.424C18.0975 44.1555 17.6998 44.0213 17.2093 44.0213C16.4635 44.0213 15.8818 44.3461 15.4642 44.9957C15.0499 45.6454 14.8411 46.5485 14.8378 47.7053H14.9124C15.088 47.4169 15.3035 47.1716 15.5587 46.9695C15.8172 46.764 16.1056 46.6065 16.4237 46.4972C16.7452 46.3845 17.0833 46.3281 17.4379 46.3281C18.0279 46.3281 18.5615 46.4723 19.0388 46.7607C19.5194 47.0457 19.9022 47.4401 20.1872 47.9439C20.4723 48.4477 20.6148 49.0244 20.6148 49.674C20.6148 50.3236 20.4673 50.9119 20.1723 51.4389C19.8807 51.9659 19.4697 52.3835 18.9394 52.6918C18.4091 52.9967 17.7893 53.1458 17.08 53.1392ZM17.075 51.8466C17.4661 51.8466 17.8158 51.7505 18.124 51.5582C18.4323 51.366 18.6759 51.1075 18.8548 50.7827C19.0338 50.4579 19.1233 50.0949 19.1233 49.6939C19.1233 49.3028 19.0355 48.9465 18.8598 48.625C18.6875 48.3035 18.4488 48.0483 18.1439 47.8594C17.8423 47.6705 17.4976 47.576 17.1098 47.576C16.8148 47.576 16.5414 47.6323 16.2895 47.745C16.0409 47.8577 15.8222 48.0135 15.6333 48.2124C15.4443 48.4112 15.2952 48.6399 15.1858 48.8984C15.0798 49.1536 15.0267 49.4238 15.0267 49.7088C15.0267 50.09 15.1146 50.4429 15.2902 50.7678C15.4692 51.0926 15.7128 51.3544 16.021 51.5533C16.3326 51.7488 16.6839 51.8466 17.075 51.8466ZM25.866 53.1392C25.1534 53.1392 24.5237 53.0166 23.9768 52.7713C23.4333 52.526 23.0074 52.188 22.6991 51.7571C22.3909 51.3262 22.2384 50.8357 22.2417 50.2855C22.2384 49.8546 22.3263 49.4586 22.5052 49.0973C22.6875 48.7327 22.9345 48.4295 23.246 48.1875C23.5576 47.9422 23.9056 47.7865 24.29 47.7202V47.6605C23.7829 47.5379 23.3769 47.2661 23.072 46.8452C22.7671 46.4242 22.6163 45.9403 22.6196 45.3935C22.6163 44.8731 22.7538 44.4091 23.0322 44.0014C23.314 43.5904 23.7001 43.2673 24.1906 43.032C24.6811 42.7966 25.2396 42.679 25.866 42.679C26.4858 42.679 27.0393 42.7983 27.5265 43.0369C28.0171 43.2723 28.4032 43.5954 28.6849 44.0064C28.9666 44.4141 29.1092 44.8764 29.1125 45.3935C29.1092 45.9403 28.9534 46.4242 28.6452 46.8452C28.3369 47.2661 27.9359 47.5379 27.442 47.6605V47.7202C27.8232 47.7865 28.1662 47.9422 28.4711 48.1875C28.7794 48.4295 29.0247 48.7327 29.2069 49.0973C29.3925 49.4586 29.487 49.8546 29.4903 50.2855C29.487 50.8357 29.3312 51.3262 29.023 51.7571C28.7148 52.188 28.2872 52.526 27.7403 52.7713C27.1968 53.0166 26.572 53.1392 25.866 53.1392ZM25.866 51.8814C26.287 51.8814 26.6515 51.8118 26.9598 51.6726C27.268 51.5301 27.5067 51.3329 27.6757 51.081C27.8447 50.8258 27.9309 50.5275 27.9342 50.1861C27.9309 49.8314 27.8381 49.5182 27.6558 49.2464C27.4768 48.9747 27.2332 48.7609 26.925 48.6051C26.6167 48.4493 26.2638 48.3714 25.866 48.3714C25.465 48.3714 25.1087 48.4493 24.7971 48.6051C24.4856 48.7609 24.2403 48.9747 24.0613 49.2464C23.8824 49.5182 23.7945 49.8314 23.7979 50.1861C23.7945 50.5275 23.8757 50.8258 24.0415 51.081C24.2105 51.3329 24.4508 51.5301 24.7623 51.6726C25.0739 51.8118 25.4418 51.8814 25.866 51.8814ZM25.866 47.1435C26.2041 47.1435 26.5041 47.0755 26.7659 46.9396C27.0277 46.8037 27.2332 46.6148 27.3824 46.3729C27.5348 46.1309 27.6127 45.8475 27.616 45.5227C27.6127 45.2045 27.5365 44.9261 27.3873 44.6875C27.2415 44.4489 27.0377 44.2649 26.7758 44.1357C26.514 44.0031 26.2107 43.9368 25.866 43.9368C25.5147 43.9368 25.2065 44.0031 24.9413 44.1357C24.6795 44.2649 24.4756 44.4489 24.3298 44.6875C24.184 44.9261 24.1127 45.2045 24.116 45.5227C24.1127 45.8475 24.1856 46.1309 24.3348 46.3729C24.4839 46.6148 24.6894 46.8037 24.9513 46.9396C25.2164 47.0755 25.5213 47.1435 25.866 47.1435ZM38.561 45.3636V46.5568H34.3898V45.3636H38.561ZM35.5084 43.5341H36.9949V50.7578C36.9949 51.0462 37.038 51.2633 37.1242 51.4091C37.2104 51.5516 37.3214 51.6494 37.4573 51.7024C37.5965 51.7521 37.7473 51.777 37.9097 51.777C38.029 51.777 38.1334 51.7687 38.2229 51.7521C38.3124 51.7356 38.382 51.7223 38.4317 51.7124L38.7002 52.9403C38.614 52.9735 38.4914 53.0066 38.3323 53.0398C38.1732 53.0762 37.9743 53.0961 37.7357 53.0994C37.3446 53.1061 36.98 53.0365 36.642 52.8906C36.3039 52.7448 36.0305 52.5194 35.8216 52.2145C35.6128 51.9096 35.5084 51.5268 35.5084 51.0661V43.5341ZM45.0427 49.8331V45.3636H46.5342V53H45.0725V51.6776H44.993C44.8173 52.0852 44.5356 52.425 44.1478 52.6967C43.7633 52.9652 43.2844 53.0994 42.711 53.0994C42.2205 53.0994 41.7863 52.9917 41.4085 52.7763C41.0339 52.5575 40.739 52.2344 40.5235 51.8068C40.3114 51.3793 40.2053 50.8506 40.2053 50.2209V45.3636H41.6919V50.0419C41.6919 50.5623 41.836 50.9766 42.1244 51.2848C42.4127 51.593 42.7873 51.7472 43.248 51.7472C43.5264 51.7472 43.8031 51.6776 44.0782 51.5384C44.3566 51.3991 44.587 51.1887 44.7693 50.907C44.9549 50.6252 45.046 50.2673 45.0427 49.8331ZM51.7481 53.1541C51.0322 53.1541 50.4075 52.9901 49.8738 52.6619C49.3402 52.3338 48.9259 51.8748 48.6309 51.2848C48.336 50.6948 48.1885 50.0054 48.1885 49.2166C48.1885 48.4245 48.336 47.7318 48.6309 47.1385C48.9259 46.5452 49.3402 46.0845 49.8738 45.7564C50.4075 45.4283 51.0322 45.2642 51.7481 45.2642C52.464 45.2642 53.0888 45.4283 53.6224 45.7564C54.156 46.0845 54.5703 46.5452 54.8653 47.1385C55.1603 47.7318 55.3078 48.4245 55.3078 49.2166C55.3078 50.0054 55.1603 50.6948 54.8653 51.2848C54.5703 51.8748 54.156 52.3338 53.6224 52.6619C53.0888 52.9901 52.464 53.1541 51.7481 53.1541ZM51.7531 51.9062C52.2171 51.9062 52.6016 51.7836 52.9065 51.5384C53.2114 51.2931 53.4368 50.9666 53.5827 50.5589C53.7318 50.1513 53.8064 49.7022 53.8064 49.2116C53.8064 48.7244 53.7318 48.277 53.5827 47.8693C53.4368 47.4583 53.2114 47.1286 52.9065 46.88C52.6016 46.6314 52.2171 46.5071 51.7531 46.5071C51.2858 46.5071 50.898 46.6314 50.5898 46.88C50.2848 47.1286 50.0578 47.4583 49.9086 47.8693C49.7628 48.277 49.6899 48.7244 49.6899 49.2116C49.6899 49.7022 49.7628 50.1513 49.9086 50.5589C50.0578 50.9666 50.2848 51.2931 50.5898 51.5384C50.898 51.7836 51.2858 51.9062 51.7531 51.9062ZM52.3944 42.8381L54.3085 44.5632H53.001L51.7282 43.4347L50.4704 44.5632H49.1629L51.072 42.8381H52.3944ZM54.5919 43.6335H53.6672L53.6373 42.7784C53.9157 42.7585 54.1212 42.7204 54.2538 42.6641C54.3864 42.6077 54.4527 42.5116 54.4527 42.3757C54.4527 42.2166 54.3665 42.1072 54.1942 42.0476C54.0218 41.9846 53.8047 41.9531 53.5429 41.9531L53.5876 41.2472C54.2107 41.2472 54.683 41.3482 55.0045 41.5504C55.326 41.7493 55.4868 42.0211 55.4868 42.3658C55.4868 42.6475 55.394 42.8563 55.2084 42.9922C55.0228 43.1248 54.8173 43.206 54.5919 43.2358V43.6335ZM56.9671 53V45.3636H58.4536V53H56.9671ZM57.7178 44.1854C57.4593 44.1854 57.2372 44.0992 57.0516 43.9268C56.8693 43.7512 56.7781 43.5424 56.7781 43.3004C56.7781 43.0552 56.8693 42.8464 57.0516 42.674C57.2372 42.4983 57.4593 42.4105 57.7178 42.4105C57.9763 42.4105 58.1967 42.4983 58.379 42.674C58.5646 42.8464 58.6574 43.0552 58.6574 43.3004C58.6574 43.5424 58.5646 43.7512 58.379 43.9268C58.1967 44.0992 57.9763 44.1854 57.7178 44.1854Z" fill="#1F1F1F"/>
</svg>
