<svg width="787" height="97" viewBox="0 0 787 97" fill="none" xmlns="http://www.w3.org/2000/svg">
<path fill-rule="evenodd" clip-rule="evenodd" d="M0 76.871C4.48685 67.8776 7.01084 57.7336 7.01084 47C7.01084 37.0049 4.8222 27.521 0.898022 19.0014C0.935503 19.0003 0.973109 18.9998 1.01084 18.9998H738.011V4.43773C738.011 0.770025 742.535 -0.963842 744.986 1.76456L785.534 46.8997C786.932 48.455 786.895 50.824 785.451 52.3358L744.903 94.7843C742.411 97.3933 738.011 95.6293 738.011 92.0214V76.9998H1.01083C0.661627 76.9998 0.322877 76.9551 0 76.871Z" fill="url(#paint0_linear_453_2236)"/>
<mask id="mask0_453_2236" style="mask-type:alpha" maskUnits="userSpaceOnUse" x="7" y="0" width="779" height="97">
<path fill-rule="evenodd" clip-rule="evenodd" d="M784.524 46.8997L743.976 1.76456C741.524 -0.963842 737 0.770025 737 4.43773V19H11C8.79086 19 7 20.7909 7 23V48V73C7 75.2091 8.79088 77 11 77H737V92.0214C737 95.6293 741.4 97.3933 743.892 94.7843L784.44 52.3358C785.885 50.824 785.921 48.455 784.524 46.8997Z" fill="url(#paint1_linear_453_2236)"/>
</mask>
<g mask="url(#mask0_453_2236)">
<line opacity="0.4" x1="718.5" y1="31" x2="718.5" y2="77" stroke="white"/>
<line opacity="0.4" x1="638.5" y1="31" x2="638.5" y2="77" stroke="white"/>
<g opacity="0.2">
<line x1="678.5" y1="41" x2="678.5" y2="77" stroke="white"/>
<line x1="686.5" y1="49" x2="686.5" y2="77" stroke="white"/>
<line x1="694.5" y1="49" x2="694.5" y2="77" stroke="white"/>
<line x1="702.5" y1="49" x2="702.5" y2="77" stroke="white"/>
<line x1="710.5" y1="49" x2="710.5" y2="77" stroke="white"/>
<line x1="646.5" y1="49" x2="646.5" y2="77" stroke="white"/>
<line x1="654.5" y1="49" x2="654.5" y2="77" stroke="white"/>
<line x1="662.5" y1="49" x2="662.5" y2="77" stroke="white"/>
<line x1="670.5" y1="49" x2="670.5" y2="77" stroke="white"/>
</g>
<line opacity="0.4" x1="558.5" y1="31" x2="558.5" y2="77" stroke="white"/>
<g opacity="0.2">
<line x1="598.5" y1="41" x2="598.5" y2="77" stroke="white"/>
<line x1="606.5" y1="49" x2="606.5" y2="77" stroke="white"/>
<line x1="614.5" y1="49" x2="614.5" y2="77" stroke="white"/>
<line x1="622.5" y1="49" x2="622.5" y2="77" stroke="white"/>
<line x1="630.5" y1="49" x2="630.5" y2="77" stroke="white"/>
<line x1="566.5" y1="49" x2="566.5" y2="77" stroke="white"/>
<line x1="574.5" y1="49" x2="574.5" y2="77" stroke="white"/>
<line x1="582.5" y1="49" x2="582.5" y2="77" stroke="white"/>
<line x1="590.5" y1="49" x2="590.5" y2="77" stroke="white"/>
</g>
<line opacity="0.4" x1="478.5" y1="31" x2="478.5" y2="77" stroke="white"/>
<g opacity="0.2">
<line x1="518.5" y1="41" x2="518.5" y2="77" stroke="white"/>
<line x1="526.5" y1="49" x2="526.5" y2="77" stroke="white"/>
<line x1="534.5" y1="49" x2="534.5" y2="77" stroke="white"/>
<line x1="542.5" y1="49" x2="542.5" y2="77" stroke="white"/>
<line x1="550.5" y1="49" x2="550.5" y2="77" stroke="white"/>
<line x1="486.5" y1="49" x2="486.5" y2="77" stroke="white"/>
<line x1="494.5" y1="49" x2="494.5" y2="77" stroke="white"/>
<line x1="502.5" y1="49" x2="502.5" y2="77" stroke="white"/>
<line x1="510.5" y1="49" x2="510.5" y2="77" stroke="white"/>
</g>
<line opacity="0.4" x1="398.5" y1="31" x2="398.5" y2="77" stroke="white"/>
<g opacity="0.2">
<line x1="438.5" y1="41" x2="438.5" y2="77" stroke="white"/>
<line x1="446.5" y1="49" x2="446.5" y2="77" stroke="white"/>
<line x1="454.5" y1="49" x2="454.5" y2="77" stroke="white"/>
<line x1="462.5" y1="49" x2="462.5" y2="77" stroke="white"/>
<line x1="470.5" y1="49" x2="470.5" y2="77" stroke="white"/>
<line x1="406.5" y1="49" x2="406.5" y2="77" stroke="white"/>
<line x1="414.5" y1="49" x2="414.5" y2="77" stroke="white"/>
<line x1="422.5" y1="49" x2="422.5" y2="77" stroke="white"/>
<line x1="430.5" y1="49" x2="430.5" y2="77" stroke="white"/>
</g>
<line opacity="0.4" x1="318.5" y1="31" x2="318.5" y2="77" stroke="white"/>
<g opacity="0.2">
<line x1="358.5" y1="41" x2="358.5" y2="77" stroke="white"/>
<line x1="366.5" y1="49" x2="366.5" y2="77" stroke="white"/>
<line x1="374.5" y1="49" x2="374.5" y2="77" stroke="white"/>
<line x1="382.5" y1="49" x2="382.5" y2="77" stroke="white"/>
<line x1="390.5" y1="49" x2="390.5" y2="77" stroke="white"/>
<line x1="326.5" y1="49" x2="326.5" y2="77" stroke="white"/>
<line x1="334.5" y1="49" x2="334.5" y2="77" stroke="white"/>
<line x1="342.5" y1="49" x2="342.5" y2="77" stroke="white"/>
<line x1="350.5" y1="49" x2="350.5" y2="77" stroke="white"/>
</g>
<line opacity="0.4" x1="238.5" y1="31" x2="238.5" y2="77" stroke="white"/>
<g opacity="0.2">
<line x1="278.5" y1="41" x2="278.5" y2="77" stroke="white"/>
<line x1="286.5" y1="49" x2="286.5" y2="77" stroke="white"/>
<line x1="294.5" y1="49" x2="294.5" y2="77" stroke="white"/>
<line x1="302.5" y1="49" x2="302.5" y2="77" stroke="white"/>
<line x1="310.5" y1="49" x2="310.5" y2="77" stroke="white"/>
<line x1="246.5" y1="49" x2="246.5" y2="77" stroke="white"/>
<line x1="254.5" y1="49" x2="254.5" y2="77" stroke="white"/>
<line x1="262.5" y1="49" x2="262.5" y2="77" stroke="white"/>
<line x1="270.5" y1="49" x2="270.5" y2="77" stroke="white"/>
</g>
<line opacity="0.4" x1="158.5" y1="31" x2="158.5" y2="77" stroke="white"/>
<g opacity="0.2">
<line x1="198.5" y1="41" x2="198.5" y2="77" stroke="white"/>
<line x1="206.5" y1="49" x2="206.5" y2="77" stroke="white"/>
<line x1="214.5" y1="49" x2="214.5" y2="77" stroke="white"/>
<line x1="222.5" y1="49" x2="222.5" y2="77" stroke="white"/>
<line x1="230.5" y1="49" x2="230.5" y2="77" stroke="white"/>
<line x1="166.5" y1="49" x2="166.5" y2="77" stroke="white"/>
<line x1="174.5" y1="49" x2="174.5" y2="77" stroke="white"/>
<line x1="182.5" y1="49" x2="182.5" y2="77" stroke="white"/>
<line x1="190.5" y1="49" x2="190.5" y2="77" stroke="white"/>
</g>
<line opacity="0.4" x1="78.5" y1="31" x2="78.5" y2="77" stroke="white"/>
<g opacity="0.2">
<line x1="118.5" y1="41" x2="118.5" y2="77" stroke="white"/>
<line x1="126.5" y1="49" x2="126.5" y2="77" stroke="white"/>
<line x1="134.5" y1="49" x2="134.5" y2="77" stroke="white"/>
<line x1="142.5" y1="49" x2="142.5" y2="77" stroke="white"/>
<line x1="150.5" y1="49" x2="150.5" y2="77" stroke="white"/>
<line x1="86.5" y1="49" x2="86.5" y2="77" stroke="white"/>
<line x1="94.5" y1="49" x2="94.5" y2="77" stroke="white"/>
<line x1="102.5" y1="49" x2="102.5" y2="77" stroke="white"/>
<line x1="110.5" y1="49" x2="110.5" y2="77" stroke="white"/>
</g>
<g opacity="0.2">
<line x1="38.5" y1="41" x2="38.5" y2="77" stroke="white"/>
<line x1="46.5" y1="49" x2="46.5" y2="77" stroke="white"/>
<line x1="54.5" y1="49" x2="54.5" y2="77" stroke="white"/>
<line x1="62.5" y1="49" x2="62.5" y2="77" stroke="white"/>
<line x1="70.5" y1="49" x2="70.5" y2="77" stroke="white"/>
<line x1="14.5" y1="49" x2="14.5" y2="77" stroke="white"/>
<line x1="22.5" y1="49" x2="22.5" y2="77" stroke="white"/>
<line x1="30.5" y1="49" x2="30.5" y2="77" stroke="white"/>
</g>
<g opacity="0.2">
<line x1="758.5" y1="41" x2="758.5" y2="96" stroke="white"/>
<line x1="766.5" y1="49" x2="766.5" y2="89" stroke="white"/>
<line x1="774.5" y1="49" x2="774.5" y2="80" stroke="white"/>
<line x1="782.5" y1="49" x2="782.5" y2="77" stroke="white"/>
<line x1="726.5" y1="49" x2="726.5" y2="77" stroke="white"/>
<line x1="734.5" y1="49" x2="734.5" y2="77" stroke="white"/>
<line x1="742.5" y1="49" x2="742.5" y2="77" stroke="white"/>
<line x1="750.5" y1="49" x2="750.5" y2="77" stroke="white"/>
</g>
</g>
<defs>
<linearGradient id="paint0_linear_453_2236" x1="-20.9893" y1="0.429689" x2="0.910599" y2="189.087" gradientUnits="userSpaceOnUse">
<stop stop-color="#F89B29"/>
<stop offset="0.49" stop-color="#FB5651"/>
<stop offset="1" stop-color="#FF0F7B"/>
</linearGradient>
<linearGradient id="paint1_linear_453_2236" x1="-22" y1="0.429689" x2="-0.100149" y2="189.087" gradientUnits="userSpaceOnUse">
<stop stop-color="#F89B29"/>
<stop offset="0.49" stop-color="#FB5651"/>
<stop offset="1" stop-color="#FF0F7B"/>
</linearGradient>
</defs>
</svg>
