<svg width="24" height="24" viewBox="0 0 24 24" fill="none" xmlns="http://www.w3.org/2000/svg">
<path d="M12.4755 24C17.4982 24 22.0067 21.0129 23.9652 16.393C24.0338 16.2302 23.9995 16.0459 23.8752 15.9216C23.7509 15.7973 23.5624 15.763 23.4038 15.8316C21.9681 16.4402 20.4424 16.7487 18.8696 16.7487C12.4626 16.7487 7.25127 11.5374 7.25127 5.13039C7.25127 3.55757 7.55985 2.03189 8.1684 0.596211C8.23695 0.437617 8.20269 0.24905 8.07839 0.124775C7.95412 0.000500762 7.76984 -0.0337928 7.60698 0.0347686C2.98707 1.99331 0 6.5018 0 11.5246C0 18.403 5.59703 24 12.4755 24Z" fill="url(#paint0_linear_453_3383)"/>
<defs>
<linearGradient id="paint0_linear_453_3383" x1="-3.16675" y1="-0.720253" x2="22.0009" y2="27.3181" gradientUnits="userSpaceOnUse">
<stop stop-color="#97E0FF"/>
<stop offset="1" stop-color="#1075FF"/>
</linearGradient>
</defs>
</svg>
