<svg width="28" height="28" viewBox="0 0 28 28" fill="none" xmlns="http://www.w3.org/2000/svg">
<g clip-path="url(#clip0_453_3385)">
<path d="M3.33594 14C3.33594 13.547 2.96866 13.1797 2.51562 13.1797H0.820312C0.367281 13.1797 0 13.547 0 14C0 14.453 0.367281 14.8203 0.820312 14.8203H2.51562C2.96866 14.8203 3.33594 14.453 3.33594 14ZM27.1797 13.1797H25.4844C25.0313 13.1797 24.6641 13.547 24.6641 14C24.6641 14.453 25.0313 14.8203 25.4844 14.8203H27.1797C27.6327 14.8203 28 14.453 28 14C28 13.547 27.6327 13.1797 27.1797 13.1797ZM14 0C13.547 0 13.1797 0.367281 13.1797 0.820312V2.51562C13.1797 2.96866 13.547 3.33594 14 3.33594C14.453 3.33594 14.8203 2.96866 14.8203 2.51562V0.820312C14.8203 0.367281 14.453 0 14 0ZM14 24.6641C13.547 24.6641 13.1797 25.0313 13.1797 25.4844V27.1797C13.1797 27.6327 13.547 28 14 28C14.453 28 14.8203 27.6327 14.8203 27.1797V25.4844C14.8203 25.0313 14.453 24.6641 14 24.6641ZM5.29927 21.5406L4.13919 22.7007C3.81883 23.0211 3.81883 23.5405 4.13919 23.8608C4.45955 24.1812 4.97897 24.1811 5.29927 23.8608L6.45936 22.7007C6.77972 22.3804 6.77972 21.861 6.45936 21.5406C6.13905 21.2202 5.61963 21.2202 5.29927 21.5406ZM22.7007 6.45936L23.8608 5.29927C24.1812 4.97891 24.1812 4.45955 23.8608 4.13919C23.5405 3.81883 23.0211 3.81883 22.7007 4.13919L21.5406 5.29927C21.2203 5.61963 21.2203 6.139 21.5406 6.45936C21.8609 6.77977 22.3804 6.77972 22.7007 6.45936ZM5.29927 4.13919C4.97897 3.81883 4.45955 3.81883 4.13919 4.13919C3.81883 4.45955 3.81883 4.97891 4.13919 5.29927L5.29927 6.45936C5.61963 6.77972 6.13905 6.77966 6.45936 6.45936C6.77972 6.139 6.77972 5.61963 6.45936 5.29927L5.29927 4.13919ZM22.7007 21.5406C22.3804 21.2203 21.861 21.2203 21.5406 21.5406C21.2203 21.861 21.2203 22.3804 21.5406 22.7007L22.7007 23.8608C23.0211 24.1812 23.5405 24.1811 23.8608 23.8608C24.1812 23.5405 24.1812 23.0211 23.8608 22.7007L22.7007 21.5406ZM9.91905 23.8523C9.50064 23.6789 9.02065 23.8777 8.84729 24.2963L8.21942 25.812C8.04606 26.2305 8.2448 26.7104 8.66337 26.8838C9.08327 27.0577 9.56238 26.857 9.73514 26.4398L10.363 24.9241C10.5364 24.5056 10.3376 24.0257 9.91905 23.8523ZM19.3366 1.11623C18.9181 0.942758 18.4382 1.14155 18.2649 1.56018L17.637 3.0759C17.4636 3.49442 17.6624 3.9743 18.0809 4.14766C18.5001 4.32135 18.9796 4.12158 19.1527 3.70371L19.7806 2.18799C19.954 1.76947 19.7552 1.28959 19.3366 1.11623ZM1.56018 9.73514L3.0759 10.363C3.17855 10.4056 3.28486 10.4257 3.38948 10.4257C3.71137 10.4257 4.0168 10.235 4.14766 9.91905C4.32102 9.50053 4.12229 9.02065 3.70371 8.84729L2.18799 8.21942C1.76941 8.04595 1.28959 8.24474 1.11623 8.66337C0.942867 9.0819 1.1416 9.56173 1.56018 9.73514ZM26.4398 18.2649L24.9241 17.637C24.5055 17.4636 24.0257 17.6623 23.8523 18.0809C23.679 18.4995 23.8777 18.9794 24.2963 19.1527L25.812 19.7806C26.2319 19.9545 26.711 19.7538 26.8838 19.3366C27.0571 18.9181 26.8584 18.4383 26.4398 18.2649ZM19.1527 24.2962C18.9794 23.8777 18.4995 23.6789 18.0809 23.8523C17.6624 24.0256 17.4636 24.5055 17.637 24.924L18.2649 26.4398C18.4378 26.8575 18.9173 27.0575 19.3366 26.8837C19.7552 26.7104 19.9539 26.2305 19.7806 25.812L19.1527 24.2962ZM9.73514 1.56018C9.56178 1.1416 9.08195 0.942812 8.66337 1.11623C8.2448 1.28959 8.04606 1.76947 8.21942 2.18799L8.84729 3.70371C9.02027 4.12141 9.49971 4.32141 9.91905 4.14766C10.3376 3.9743 10.5364 3.49442 10.363 3.0759L9.73514 1.56018ZM23.8523 9.91905C24.0253 10.3368 24.5048 10.5367 24.9241 10.363L26.4398 9.73514C26.8584 9.56178 27.0571 9.0819 26.8838 8.66337C26.7105 8.2448 26.2306 8.04601 25.812 8.21942L24.2963 8.84729C23.8777 9.02065 23.6789 9.50053 23.8523 9.91905ZM4.14766 18.0809C3.97436 17.6624 3.49448 17.4636 3.0759 17.637L1.56018 18.2649C1.1416 18.4382 0.942867 18.9181 1.11623 19.3366C1.2892 19.7543 1.76865 19.9543 2.18799 19.7806L3.70371 19.1527C4.12229 18.9794 4.32108 18.4995 4.14766 18.0809Z" fill="url(#paint0_linear_453_3385)"/>
<path d="M14 23.0234C18.9835 23.0234 23.0234 18.9835 23.0234 14C23.0234 9.01649 18.9835 4.97656 14 4.97656C9.01649 4.97656 4.97656 9.01649 4.97656 14C4.97656 18.9835 9.01649 23.0234 14 23.0234Z" fill="url(#paint1_linear_453_3385)"/>
</g>
<defs>
<linearGradient id="paint0_linear_453_3385" x1="14" y1="28" x2="14" y2="0" gradientUnits="userSpaceOnUse">
<stop stop-color="#FD6501"/>
<stop offset="1" stop-color="#FFF3D5"/>
</linearGradient>
<linearGradient id="paint1_linear_453_3385" x1="14" y1="23.0234" x2="14" y2="4.97656" gradientUnits="userSpaceOnUse">
<stop stop-color="#FD5900"/>
<stop offset="1" stop-color="#FFDE00"/>
</linearGradient>
<clipPath id="clip0_453_3385">
<rect width="28" height="28" fill="white"/>
</clipPath>
</defs>
</svg>
