<svg width="212" height="18" viewBox="0 0 212 18" fill="none" xmlns="http://www.w3.org/2000/svg">
<line y1="-0.323171" x2="67.2195" y2="-0.323171" transform="matrix(-1 0 0 1 67.2195 8.83588)" stroke="url(#paint0_linear_453_2061)" stroke-width="0.646341"/>
<path d="M84.3817 6.52889L85.9494 8.85236L84.3089 11.1288C84.2937 11.15 84.3195 11.1773 84.3423 11.1622L86.6187 9.52163L88.9422 11.0893C88.9634 11.1045 88.9892 11.0787 88.9755 11.0559L87.4154 8.72488L88.9634 6.54103C88.9786 6.51978 88.9528 6.49246 88.93 6.50764L86.7462 8.05561L84.4151 6.4955C84.3939 6.48032 84.3681 6.50764 84.3817 6.52889Z" fill="#DBAA75"/>
<path d="M86.6808 3.74855L85.8385 8.08893L81.4708 8.79766C81.4283 8.80373 81.4283 8.86443 81.4708 8.87202L85.8385 9.58075L86.6808 13.9211C86.6884 13.9606 86.7461 13.9621 86.7537 13.9211L87.6126 9.58075L91.7739 8.87202C91.8149 8.86443 91.8149 8.80524 91.7739 8.79917L87.6126 8.09045L86.7537 3.75006C86.7461 3.71061 86.6884 3.71061 86.6808 3.75006V3.74855Z" fill="#DBAA75"/>
<path d="M102.131 4.85087L104.838 8.86425L102.005 12.7964C101.978 12.8331 102.023 12.8803 102.062 12.854L105.994 10.0203L110.008 12.7282C110.045 12.7544 110.089 12.7099 110.066 12.6705L107.371 8.64405L110.045 4.87184C110.071 4.83514 110.026 4.78796 109.987 4.81417L106.215 7.48801L102.188 4.7932C102.151 4.76698 102.107 4.81417 102.131 4.85087Z" fill="#DBAA75"/>
<path d="M106.102 0.0484409L104.647 7.54568L97.1027 8.76988C97.0293 8.78037 97.0293 8.88522 97.1027 8.89833L104.647 10.1225L106.102 17.6198C106.115 17.6879 106.215 17.6905 106.228 17.6198L107.712 10.1225L114.899 8.89833C114.97 8.88522 114.97 8.78299 114.899 8.7725L107.712 7.5483L106.228 0.0510635C106.215 -0.0170937 106.115 -0.0170937 106.102 0.0510635V0.0484409Z" fill="#DBAA75"/>
<path d="M123.138 6.52889L124.706 8.85236L123.065 11.1288C123.05 11.15 123.076 11.1773 123.098 11.1622L125.375 9.52163L127.698 11.0893C127.72 11.1045 127.745 11.0787 127.732 11.0559L126.172 8.72488L127.72 6.54103C127.735 6.51978 127.709 6.49246 127.686 6.50764L125.502 8.05561L123.171 6.4955C123.15 6.48032 123.124 6.50764 123.138 6.52889Z" fill="#DBAA75"/>
<path d="M125.437 3.74855L124.595 8.08893L120.227 8.79766C120.185 8.80373 120.185 8.86443 120.227 8.87202L124.595 9.58075L125.437 13.9211C125.445 13.9606 125.502 13.9621 125.51 13.9211L126.369 9.58075L130.53 8.87202C130.571 8.86443 130.571 8.80524 130.53 8.79917L126.369 8.09045L125.51 3.75006C125.502 3.71061 125.445 3.71061 125.437 3.75006V3.74855Z" fill="#DBAA75"/>
<line y1="-0.323171" x2="67.2195" y2="-0.323171" transform="matrix(1 -8.74228e-08 -8.74228e-08 -1 144.781 8.83588)" stroke="url(#paint1_linear_453_2061)" stroke-width="0.646341"/>
<defs>
<linearGradient id="paint0_linear_453_2061" x1="0" y1="0.5" x2="67.2195" y2="0.5" gradientUnits="userSpaceOnUse">
<stop stop-color="#E5C9A9"/>
<stop offset="1" stop-color="#E5C9A9" stop-opacity="0"/>
</linearGradient>
<linearGradient id="paint1_linear_453_2061" x1="0" y1="0.5" x2="67.2195" y2="0.5" gradientUnits="userSpaceOnUse">
<stop stop-color="#E5C9A9"/>
<stop offset="1" stop-color="#E5C9A9" stop-opacity="0"/>
</linearGradient>
</defs>
</svg>
