<svg width="57" height="77" viewBox="0 0 57 77" fill="none" xmlns="http://www.w3.org/2000/svg">
<path opacity="0.2" d="M38.5438 63.6142C48.6644 63.6142 56.8688 55.4098 56.8688 45.2891C56.8688 35.1685 48.6644 26.9641 38.5438 26.9641C28.4231 26.9641 20.2188 35.1685 20.2188 45.2891C20.2188 55.4098 28.4231 63.6142 38.5438 63.6142Z" fill="#8BECEF"/>
<path fill-rule="evenodd" clip-rule="evenodd" d="M26.2742 49.0675C24.1886 42.5316 27.7926 35.5419 34.3285 33.4563C40.8644 31.3708 47.8541 34.9747 49.9397 41.5106C52.0252 48.0465 48.4213 55.0362 41.8854 57.1218C35.3495 59.2074 28.3598 55.6034 26.2742 49.0675Z" fill="url(#paint0_linear_453_2648)"/>
<path fill-rule="evenodd" clip-rule="evenodd" d="M9.17157 46.5719C8.22042 43.605 9.86094 40.4374 12.8279 39.4863C15.7948 38.5351 18.9624 40.1756 19.9135 43.1425C20.8647 46.1095 19.2242 49.2771 16.2572 50.2282C13.2903 51.1794 10.1227 49.5389 9.17157 46.5719Z" fill="url(#paint1_linear_453_2648)"/>
<path d="M16.6409 73.9458C14.7036 72.0086 13.4645 69.3035 13.4645 66.4239V28.0984C12.3476 28.4474 11.2306 28.6307 10.1137 28.6307C7.58307 28.6307 5.0612 27.6272 3.17634 25.8121C1.23912 23.9883 0 21.3443 0 18.3425C0 14.5815 1.88486 11.2306 5.34916 9.17124L18.1069 1.58817C19.9306 0.532298 21.99 0 24.2239 0C27.0425 0 29.4597 0.994786 31.2747 2.87965C33.0985 4.76451 34.0933 7.11185 34.2765 9.93042V9.9915L34.3376 10.1049V66.4239C34.3376 69.4257 33.3428 72.0697 31.519 73.9458C29.5818 76.0052 27.1123 77 24.2327 77C21.353 77 18.5868 75.883 16.6496 73.9458H16.6409Z" fill="url(#paint2_linear_453_2648)"/>
<mask id="mask0_453_2648" style="mask-type:luminance" maskUnits="userSpaceOnUse" x="0" y="0" width="35" height="77">
<path d="M16.6409 73.9458C14.7036 72.0086 13.4645 69.3035 13.4645 66.4239V28.0984C12.3476 28.4474 11.2306 28.6307 10.1137 28.6307C7.58307 28.6307 5.0612 27.6272 3.17634 25.8121C1.23912 23.9883 0 21.3443 0 18.3425C0 14.5815 1.88486 11.2306 5.34916 9.17124L18.1069 1.58817C19.9306 0.532298 21.99 0 24.2239 0C27.0425 0 29.4597 0.994786 31.2747 2.87965C33.0985 4.76451 34.0933 7.11185 34.2765 9.93042V9.9915L34.3376 10.1049V66.4239C34.3376 69.4257 33.3428 72.0697 31.519 73.9458C29.5818 76.0052 27.1123 77 24.2327 77C21.353 77 18.5868 75.883 16.6496 73.9458H16.6409Z" fill="white"/>
</mask>
<g mask="url(#mask0_453_2648)">
<path opacity="0.2" d="M-27.4445 -2.42606C-31.9123 0.497212 -36.1969 4.10113 -37.7676 9.40666C-38.5617 12.0943 -38.457 15.0089 -37.1655 17.4959C-34.4167 22.7752 -28.1164 23.4384 -22.5927 23.7176C-14.3028 24.1452 -5.84715 24.5641 2.18968 22.4698C6.67495 21.3092 11.038 19.3633 15.8113 20.1748C17.5652 20.4715 18.9963 21.859 19.2232 23.6216C19.5897 26.5275 16.6577 27.8888 14.1795 28.6392C0.540436 32.7754 -13.6833 34.6865 -27.3921 38.5958C-41.101 42.5051 -54.6964 48.7706 -63.8328 59.7132C-69.4873 66.5022 -73.2658 75.4029 -71.8609 84.1291C-71.2326 88.0385 -69.6095 91.7209 -67.8032 95.2376C-64.9235 100.814 -61.4331 106.224 -56.5377 110.151C-47.4886 117.402 -35.0363 118.606 -23.5439 119.069C-11.0043 119.584 1.55267 119.278 14.0486 118.1C22.8795 117.271 31.7628 115.962 39.9916 112.664C48.3949 109.295 56.1438 103.65 60.5854 95.7612C61.842 93.5272 62.8455 90.9094 62.1823 88.4399C61.6675 86.5288 60.2276 85.0017 58.6395 83.8324C52.3828 79.2425 43.9445 79.3995 36.1957 79.7486L11.3784 80.8655C-2.45265 81.4851 -16.8945 81.9999 -29.4864 76.2406C-31.1182 75.4902 -32.7762 74.5827 -33.7448 73.073C-35.5686 70.2283 -34.2509 66.3364 -32.0257 63.7971C-28.4306 59.7045 -22.872 57.7847 -17.4355 57.392C-11.9991 56.9994 -6.57143 57.9593 -1.17863 58.7272C5.65398 59.6958 12.5302 60.3677 19.4152 60.7254C23.2722 60.9262 27.1903 61.0309 30.9512 60.1321C34.1799 59.3554 37.6617 57.3571 37.4872 53.666C37.4086 52.1214 36.632 50.6991 35.4889 49.6519C33.0019 47.3744 29.6598 46.9991 26.4485 46.8246C14.2318 46.1701 1.94535 47.8805 -10.2277 46.685C-11.1178 46.5977 -12.1649 46.3883 -12.5401 45.5768C-12.8107 44.9921 -12.6187 44.294 -12.3394 43.7094C-9.96591 38.7442 -3.16821 38.5347 2.3293 38.238C10.3923 37.8104 18.3506 35.6114 25.4886 31.8417C29.9914 29.4682 34.8082 24.8608 32.0769 19.9043C31.1694 18.2463 29.5987 17.0595 27.8098 16.4487C19.2581 13.5342 10.1916 15.3928 1.33452 14.7907C-0.0791321 14.6947 -1.49277 14.5377 -2.89769 14.3282C-7.14735 13.7 -7.38296 7.64397 -3.19438 6.64918C11.5791 3.14998 27.295 2.88819 42.2255 -0.375407C43.4035 -0.628467 44.4332 -1.41383 44.8783 -2.53078C45.8905 -5.0701 43.0719 -6.92006 40.7071 -7.79268C17.9492 -16.1698 -6.73722 -15.9779 -27.4445 -2.42606Z" fill="white"/>
</g>
<path fill-rule="evenodd" clip-rule="evenodd" d="M12.2607 18.8748L13.2817 19.4594L12.2433 20.0092L11.6586 21.0302L11.1089 19.983L10.0879 19.3984L11.135 18.8573L11.7197 17.8276L12.2607 18.8748Z" fill="white"/>
<path fill-rule="evenodd" clip-rule="evenodd" d="M15.9078 9.46784L16.763 9.9565L15.8904 10.419L15.4017 11.2742L14.9479 10.4015L14.0928 9.91287L14.9654 9.45038L15.4541 8.59521L15.9078 9.46784Z" fill="white"/>
<path fill-rule="evenodd" clip-rule="evenodd" d="M24.2153 11.3091L25.0094 11.7629L24.1979 12.1904L23.7441 12.9845L23.3165 12.173L22.5225 11.7192L23.334 11.2916L23.7878 10.4976L24.2153 11.3091Z" fill="white"/>
<path fill-rule="evenodd" clip-rule="evenodd" d="M30.0005 19.0493L30.5328 19.3634L29.983 19.6426L29.6776 20.1837L29.3897 19.6339L28.8486 19.3285L29.3984 19.0405L29.7125 18.4995L30.0005 19.0493Z" fill="white"/>
<path fill-rule="evenodd" clip-rule="evenodd" d="M29.3723 6.99873L29.9046 7.30414L29.3549 7.59211L29.0495 8.13313L28.7615 7.58338L28.2205 7.26924L28.7702 6.98127L29.0844 6.44897L29.3723 6.99873Z" fill="white"/>
<path fill-rule="evenodd" clip-rule="evenodd" d="M6.23883 15.079L6.77113 15.3845L6.22138 15.6724L5.91597 16.2135L5.628 15.6637L5.0957 15.3496L5.64546 15.0616L5.95087 14.5293L6.23883 15.079Z" fill="white"/>
<path d="M19.2321 20.7685C19.651 20.7685 19.651 20.114 19.2321 20.114C18.8133 20.114 18.8133 20.7685 19.2321 20.7685Z" fill="white"/>
<path d="M23.0016 5.68059C23.4205 5.68059 23.4205 5.02612 23.0016 5.02612C22.5828 5.02612 22.5828 5.68059 23.0016 5.68059Z" fill="white"/>
<path d="M29.7126 29.9833C30.1314 29.9833 30.1314 29.3289 29.7126 29.3289C29.2937 29.3289 29.2937 29.9833 29.7126 29.9833Z" fill="white"/>
<path d="M20.2797 31.6586C20.6986 31.6586 20.6986 31.0042 20.2797 31.0042C19.8609 31.0042 19.8609 31.6586 20.2797 31.6586Z" fill="white"/>
<path d="M7.92352 25.3757C8.34238 25.3757 8.34238 24.7212 7.92352 24.7212C7.50466 24.7212 7.50466 25.3757 7.92352 25.3757Z" fill="white"/>
<path d="M25.5156 24.5383C25.9344 24.5383 25.9344 23.8838 25.5156 23.8838C25.0967 23.8838 25.0967 24.5383 25.5156 24.5383Z" fill="white"/>
<path d="M28.8747 46.9555C29.2935 46.9555 29.2935 46.301 28.8747 46.301C28.4558 46.301 28.4558 46.9555 28.8747 46.9555Z" fill="white"/>
<path d="M20.07 48.2121C20.4889 48.2121 20.4889 47.5576 20.07 47.5576C19.6511 47.5576 19.6511 48.2121 20.07 48.2121Z" fill="white"/>
<path d="M17.7665 41.0917C18.1854 41.0917 18.1854 40.4373 17.7665 40.4373C17.3477 40.4373 17.3477 41.0917 17.7665 41.0917Z" fill="white"/>
<path d="M23.2116 42.7673C23.6305 42.7673 23.6305 42.1128 23.2116 42.1128C22.7927 42.1128 22.7927 42.7673 23.2116 42.7673Z" fill="white"/>
<path d="M31.5973 36.9032C32.0162 36.9032 32.0162 36.2488 31.5973 36.2488C31.1785 36.2488 31.1785 36.9032 31.5973 36.9032Z" fill="white"/>
<path d="M30.5505 61.4152C30.9693 61.4152 30.9693 60.7607 30.5505 60.7607C30.1316 60.7607 30.1316 61.4152 30.5505 61.4152Z" fill="white"/>
<path d="M22.1645 67.9074C22.5833 67.9074 22.5833 67.2529 22.1645 67.2529C21.7456 67.2529 21.7456 67.9074 22.1645 67.9074Z" fill="white"/>
<path d="M15.8815 58.6926C16.3004 58.6926 16.3004 58.0381 15.8815 58.0381C15.4627 58.0381 15.4627 58.6926 15.8815 58.6926Z" fill="white"/>
<path d="M23.2116 58.902C23.6305 58.902 23.6305 58.2476 23.2116 58.2476C22.7927 58.2476 22.7927 58.902 23.2116 58.902Z" fill="white"/>
<path d="M30.9694 53.0292C31.3883 53.0292 31.3883 52.3748 30.9694 52.3748C30.5506 52.3748 30.5506 53.0292 30.9694 53.0292Z" fill="white"/>
<defs>
<linearGradient id="paint0_linear_453_2648" x1="28.7437" y1="59.9578" x2="41.833" y2="39.4512" gradientUnits="userSpaceOnUse">
<stop offset="0.04" stop-color="#0C0F6C"/>
<stop offset="0.3" stop-color="#354FA0"/>
<stop offset="0.53" stop-color="#5581C9"/>
<stop offset="0.73" stop-color="#6CA4E6"/>
<stop offset="0.89" stop-color="#7ABAF8"/>
<stop offset="1" stop-color="#80C3FF"/>
</linearGradient>
<linearGradient id="paint1_linear_453_2648" x1="10.2973" y1="51.511" x2="16.2398" y2="42.2001" gradientUnits="userSpaceOnUse">
<stop stop-color="#EFC0D5"/>
<stop offset="1" stop-color="#C74ECE"/>
</linearGradient>
<linearGradient id="paint2_linear_453_2648" x1="41.8247" y1="-39.1108" x2="5.17463" y2="82.1834" gradientUnits="userSpaceOnUse">
<stop stop-color="#0C0F6C"/>
<stop offset="0.59" stop-color="#3C0289"/>
<stop offset="1" stop-color="#8B46AB"/>
</linearGradient>
</defs>
</svg>
