<svg width="65" height="78" viewBox="0 0 65 78" fill="none" xmlns="http://www.w3.org/2000/svg">
<path fill-rule="evenodd" clip-rule="evenodd" d="M3.16068 56.8819C1.92769 53.0481 4.05503 48.9374 7.91027 47.7171C11.7568 46.4882 15.8813 48.6085 17.1056 52.451C18.3385 56.2848 16.2112 60.3955 12.356 61.6157C8.5094 62.8446 4.38498 60.7244 3.16068 56.8819Z" fill="url(#paint0_linear_453_2518)"/>
<g opacity="0.2">
<path fill-rule="evenodd" clip-rule="evenodd" d="M1.11105 57.5311C-0.477936 52.5636 2.26589 47.2499 7.24992 45.6662C12.234 44.0825 17.5653 46.8172 19.1543 51.7847C20.7433 56.7522 17.9995 62.0659 13.0154 63.6496C8.03139 65.2333 2.70004 62.4986 1.11105 57.5311Z" fill="url(#paint1_linear_453_2518)"/>
</g>
<path d="M47.7912 8.83388C53.0009 13.9658 56.1529 20.9584 56.1529 28.4789C56.1529 34.1387 54.3989 39.6168 51.1775 44.2208L36.0257 72.0267C33.9765 75.4624 30.5294 77.3923 26.787 77.3923C23.8608 77.3923 21.4036 76.3451 19.4152 74.2421C17.6004 72.3728 16.6105 69.8718 16.6105 67.4832C16.6105 65.562 17.1402 63.6927 18.2516 61.884L21.994 55.8174C15.8551 54.4154 10.2372 50.9191 6.26043 46.0815C2.28362 41.1832 0 35.0041 0 28.4702C0 20.9497 3.09983 13.9572 8.24884 8.82523C13.3978 3.63272 20.4137 0.60376 28.0808 0.60376C35.7478 0.60376 42.6421 3.6933 47.7912 8.82523V8.83388ZM22.7581 23.1738C21.2994 24.5758 20.4224 26.4365 20.4224 28.4789C20.4224 30.5212 21.2994 32.3819 22.706 33.7839C24.1127 35.1253 26.0403 35.9388 28.0895 35.9388C30.0171 35.9388 32.0055 35.1253 33.3513 33.7839C34.8101 32.3819 35.6958 30.5212 35.6958 28.4789C35.6958 26.4365 34.758 24.5758 33.2992 23.1738C31.9534 21.8325 30.0258 21.019 28.0895 21.019C26.0403 21.019 24.1127 21.8325 22.7668 23.1738H22.7581Z" fill="url(#paint2_linear_453_2518)"/>
<path fill-rule="evenodd" clip-rule="evenodd" d="M43.4496 26.4886L44.4481 27.0598L43.4322 27.5877L42.8591 28.5829L42.3295 27.5704L41.3309 26.9992L42.3555 26.4713L42.9199 25.4761L43.4496 26.4886Z" fill="white"/>
<path fill-rule="evenodd" clip-rule="evenodd" d="M10.1069 21.2181L11.1055 21.7893L10.0896 22.3172L9.51647 23.3124L8.98681 22.2999L7.99695 21.7287L9.01286 21.2008L9.57725 20.2056L10.1069 21.2181Z" fill="white"/>
<path fill-rule="evenodd" clip-rule="evenodd" d="M33.2468 46.4453L35.131 47.5271L33.2034 48.5309L32.1267 50.4089L31.1195 48.4877L29.2266 47.4146L31.1542 46.4107L32.2396 44.5327L33.2468 46.4453Z" fill="white"/>
<path d="M19.5107 16.744C19.9275 16.744 19.9275 16.095 19.5107 16.095C19.0939 16.095 19.0939 16.744 19.5107 16.744Z" fill="white"/>
<path d="M37.3106 17.4276C37.7274 17.4276 37.7274 16.7786 37.3106 16.7786C36.8939 16.7786 36.8939 17.4276 37.3106 17.4276Z" fill="white"/>
<path d="M38.9083 8.78212C39.3251 8.78212 39.3251 8.13306 38.9083 8.13306C38.4915 8.13306 38.4915 8.78212 38.9083 8.78212Z" fill="white"/>
<path d="M5.35727 27.6657H5.58302C5.99981 27.6657 5.99981 27.0166 5.58302 27.0166H5.35727C4.94048 27.0166 4.94048 27.6657 5.35727 27.6657Z" fill="white"/>
<path d="M47.8077 36.9943C48.2245 36.9943 48.2245 36.3452 47.8077 36.3452C47.3909 36.3452 47.3909 36.9943 47.8077 36.9943Z" fill="white"/>
<path d="M51.9161 23.5719C52.3329 23.5719 52.3329 22.9229 51.9161 22.9229C51.4993 22.9229 51.4993 23.5719 51.9161 23.5719Z" fill="white"/>
<path d="M13.7972 40.5343C13.8753 40.6122 13.9535 40.6901 14.0229 40.7593C14.3182 41.0536 14.7784 40.5949 14.4831 40.3007C14.405 40.2228 14.3268 40.1449 14.2574 40.0757C13.9622 39.7814 13.502 40.2401 13.7972 40.5343Z" fill="white"/>
<path d="M32.5177 60.8803C32.9344 60.8803 32.9344 60.2312 32.5177 60.2312C32.1009 60.2312 32.1009 60.8803 32.5177 60.8803Z" fill="white"/>
<path d="M36.6248 58.1456C37.0416 58.1456 37.0416 57.4966 36.6248 57.4966C36.2081 57.4966 36.2081 58.1456 36.6248 58.1456Z" fill="white"/>
<path d="M32.9775 53.3683C33.3943 53.3683 33.3943 52.7192 32.9775 52.7192C32.5607 52.7192 32.5607 53.3683 32.9775 53.3683Z" fill="white"/>
<path d="M25.9013 58.3705C26.3181 58.3705 26.3181 57.7214 25.9013 57.7214C25.4845 57.7214 25.4845 58.3705 25.9013 58.3705Z" fill="white"/>
<path d="M26.127 67.9249C26.5438 67.9249 26.5438 67.2759 26.127 67.2759C25.7103 67.2759 25.7103 67.9249 26.127 67.9249Z" fill="white"/>
<path d="M21.1084 65.8822C21.5251 65.8822 21.5251 65.2332 21.1084 65.2332C20.6916 65.2332 20.6916 65.8822 21.1084 65.8822Z" fill="white"/>
<path d="M22.9317 72.2514C23.3485 72.2514 23.3485 71.6023 22.9317 71.6023C22.5149 71.6023 22.5149 72.2514 22.9317 72.2514Z" fill="white"/>
<path d="M30.0089 72.9354C30.4257 72.9354 30.4257 72.2864 30.0089 72.2864C29.5921 72.2864 29.5921 72.9354 30.0089 72.9354Z" fill="white"/>
<path d="M32.9781 69.1969L33.2038 68.9718C33.4991 68.6776 33.0389 68.2189 32.7436 68.5132C32.6655 68.5911 32.5873 68.669 32.5179 68.7382C32.2227 69.0324 32.6829 69.4911 32.9781 69.1969Z" fill="white"/>
<path d="M40.9581 52.2348C41.3749 52.2348 41.3749 51.5857 40.9581 51.5857C40.5413 51.5857 40.5413 52.2348 40.9581 52.2348Z" fill="white"/>
<path d="M22.4718 48.5912C22.8886 48.5912 22.8886 47.9421 22.4718 47.9421C22.055 47.9421 22.055 48.5912 22.4718 48.5912Z" fill="white"/>
<path d="M28.6368 6.7394C29.0536 6.7394 29.0536 6.09033 28.6368 6.09033C28.22 6.09033 28.22 6.7394 28.6368 6.7394Z" fill="white"/>
<mask id="mask0_453_2518" style="mask-type:luminance" maskUnits="userSpaceOnUse" x="0" y="0" width="57" height="78">
<path d="M47.7912 8.83388C53.0009 13.9658 56.1529 20.9584 56.1529 28.4789C56.1529 34.1387 54.3989 39.6168 51.1775 44.2208L36.0257 72.0267C33.9765 75.4624 30.5294 77.3923 26.787 77.3923C23.8608 77.3923 21.4036 76.3451 19.4152 74.2421C17.6004 72.3728 16.6105 69.8718 16.6105 67.4832C16.6105 65.562 17.1402 63.6927 18.2516 61.884L21.994 55.8174C15.8551 54.4154 10.2372 50.9191 6.26043 46.0815C2.28362 41.1832 0 35.0041 0 28.4702C0 20.9497 3.09983 13.9572 8.24884 8.82523C13.3978 3.63272 20.4137 0.60376 28.0808 0.60376C35.7478 0.60376 42.6421 3.6933 47.7912 8.82523V8.83388ZM22.7581 23.1738C21.2994 24.5758 20.4224 26.4365 20.4224 28.4789C20.4224 30.5212 21.2994 32.3819 22.706 33.7839C24.1127 35.1253 26.0403 35.9388 28.0895 35.9388C30.0171 35.9388 32.0055 35.1253 33.3513 33.7839C34.8101 32.3819 35.6958 30.5212 35.6958 28.4789C35.6958 26.4365 34.758 24.5758 33.2992 23.1738C31.9534 21.8325 30.0258 21.019 28.0895 21.019C26.0403 21.019 24.1127 21.8325 22.7668 23.1738H22.7581Z" fill="white"/>
</mask>
<g mask="url(#mask0_453_2518)">
<path opacity="0.2" d="M73.8225 52.2263C75.2725 47.1377 76.1321 41.6509 73.8485 36.6575C72.6937 34.1304 70.714 32.0188 68.1178 30.9976C62.6041 28.8341 57.4464 32.4429 53.1049 35.818C46.5926 40.8894 39.9762 46.0819 35.3047 52.8754C32.6998 56.6659 30.6854 60.9584 26.5783 63.4594C25.0675 64.3768 23.0878 64.2729 21.768 63.096C19.5972 61.1661 20.9083 58.2323 22.2803 56.0601C29.8258 44.0914 39.2642 33.4122 47.0007 21.5646C54.7373 9.71702 60.8675 -3.8181 60.5896 -17.9504C60.4159 -26.7084 57.4377 -35.8299 50.691 -41.4551C47.6693 -43.9735 44.0485 -45.6697 40.393 -47.1323C34.5927 -49.4429 28.4365 -51.217 22.1934 -50.9661C10.6624 -50.5074 0.529381 -43.3071 -8.4141 -36.1761C-18.1651 -28.4046 -27.3951 -20.0014 -36.0173 -11.0011C-42.1128 -4.64025 -47.9304 2.11866 -51.9506 9.94204C-56.0576 17.9298 -58.1937 27.1985 -56.3876 35.9911C-55.8753 38.4835 -54.9202 41.0884 -52.8015 42.5163C-51.1691 43.6154 -49.0852 43.8231 -47.1315 43.6587C-39.4384 43.0269 -33.204 37.419 -27.6035 32.114C-21.6296 26.4542 -15.6644 20.7944 -9.69049 15.1345C0.294937 5.66687 10.8013 -4.11235 24.0169 -7.98942C25.7274 -8.49136 27.5682 -8.88945 29.2874 -8.38751C32.5088 -7.4442 34.0631 -3.67098 34.0457 -0.321819C34.0197 5.07839 31.0935 10.1324 27.273 13.9662C23.4438 17.7914 18.7463 20.6126 14.1964 23.5464C8.43089 27.2677 2.83037 31.24 -2.57913 35.4459C-5.60949 37.8085 -8.62249 40.2749 -10.8627 43.3991C-12.7816 46.0819 -14.0928 49.8378 -11.5487 52.486C-10.4806 53.5937 -8.96981 54.1562 -7.42424 54.1908C-4.0726 54.2774 -1.31141 52.3821 1.20665 50.4263C10.81 42.9664 18.9199 33.6891 28.8446 26.6705C29.574 26.1513 30.4944 25.632 31.3106 25.9955C31.901 26.2551 32.2049 26.9042 32.3786 27.5187C33.8373 32.7804 28.8706 37.3585 24.9286 41.149C19.1544 46.7136 14.6132 53.5418 11.7131 61.0103C9.88095 65.7182 9.27314 72.304 14.5611 74.2339C16.3237 74.883 18.2861 74.7445 20.0227 74.0435C28.3497 70.6597 33.9415 63.3729 40.9834 58.0592C42.1122 57.2111 43.2757 56.415 44.4653 55.6534C48.0687 53.36 52.1931 57.739 49.7011 61.2094C40.8966 73.4377 29.2614 83.866 20.1703 96.0164C19.4583 96.9684 19.1891 98.2319 19.5885 99.357C20.4916 101.919 23.8172 101.469 26.1529 100.577C48.6939 92.0615 67.1105 75.8522 73.8225 52.2436V52.2263Z" fill="white"/>
</g>
<path fill-rule="evenodd" clip-rule="evenodd" d="M55.0672 27.0685C49.2757 31.3263 41.1137 30.0974 36.8417 24.3251C32.5696 18.5528 33.8026 10.4178 39.5942 6.15999C45.3857 1.90214 53.5477 3.13103 57.8198 8.90336C62.0918 14.6757 60.8588 22.8106 55.0672 27.0685Z" fill="url(#paint3_linear_453_2518)"/>
<path d="M60.2946 19.8164C62.9689 21.954 64.3582 23.8406 63.8372 24.9483C62.7866 27.1724 54.477 25.4762 45.2643 21.1664C36.0517 16.8567 29.4352 11.5516 30.4859 9.32752C30.9721 8.28902 33.0474 8.10729 36.0604 8.64385" stroke="#1D1670" stroke-width="0.5" stroke-miterlimit="10"/>
<g opacity="0.2">
<path fill-rule="evenodd" clip-rule="evenodd" d="M57.2208 29.9848C49.8142 35.4283 39.3773 33.8619 33.9157 26.4712C28.4541 19.0892 30.0257 8.68686 37.441 3.24338C44.8476 -2.2001 55.2845 -0.633686 60.7461 6.75698C66.2077 14.139 64.6361 24.5413 57.2208 29.9848Z" fill="url(#paint4_linear_453_2518)"/>
</g>
<defs>
<linearGradient id="paint0_linear_453_2518" x1="4.61942" y1="63.2773" x2="12.2935" y2="51.2076" gradientUnits="userSpaceOnUse">
<stop stop-color="#4172DA"/>
<stop offset="0.82" stop-color="#8BECEF"/>
</linearGradient>
<linearGradient id="paint1_linear_453_2518" x1="2.99526" y1="65.8045" x2="12.9336" y2="50.1883" gradientUnits="userSpaceOnUse">
<stop stop-color="#4172DA"/>
<stop offset="0.82" stop-color="#8BECEF"/>
</linearGradient>
<linearGradient id="paint2_linear_453_2518" x1="28.0808" y1="90.5985" x2="28.0808" y2="-6.36285" gradientUnits="userSpaceOnUse">
<stop stop-color="#3C0289"/>
<stop offset="0.49" stop-color="#4172DA"/>
<stop offset="0.94" stop-color="#80C3FF"/>
</linearGradient>
<linearGradient id="paint3_linear_453_2518" x1="36.5524" y1="9.30951" x2="58.0531" y2="23.9976" gradientUnits="userSpaceOnUse">
<stop stop-color="#EFC0D5"/>
<stop offset="1" stop-color="#C74ECE"/>
</linearGradient>
<linearGradient id="paint4_linear_453_2518" x1="33.5453" y1="7.26857" x2="61.0479" y2="26.0568" gradientUnits="userSpaceOnUse">
<stop stop-color="#EFC0D5"/>
<stop offset="1" stop-color="#C74ECE"/>
</linearGradient>
</defs>
</svg>
