<svg width="59" height="78" viewBox="0 0 59 78" fill="none" xmlns="http://www.w3.org/2000/svg">
<path d="M52.6738 43.0649C53.1619 37.5299 49.0707 32.6472 43.5357 32.1591C38.0008 31.671 33.1181 35.7622 32.6299 41.2972C32.1418 46.8321 36.2331 51.7148 41.768 52.2029C47.303 52.6911 52.1856 48.5998 52.6738 43.0649Z" fill="url(#paint0_linear_453_3252)"/>
<g opacity="0.2">
<path fill-rule="evenodd" clip-rule="evenodd" d="M30.1914 46.1598C27.9958 39.2821 31.7874 31.9282 38.6651 29.7327C45.5428 27.5371 52.8966 31.3287 55.0922 38.2063C57.2877 45.084 53.4962 52.4378 46.6185 54.6334C39.7408 56.829 32.387 53.0374 30.1914 46.1598Z" fill="url(#paint1_linear_453_3252)"/>
</g>
<path d="M9.62876 74.8962C7.90934 73.0534 6.95704 70.6197 6.95704 68.0097C6.95704 65.8141 7.43319 63.7332 8.43839 61.7757L29.6446 21.1445H10.9338C7.90052 21.1445 5.1759 20.0158 3.20959 18.1112C1.12865 16.2066 0 13.5967 0 10.6869C0 7.77707 1.24327 5.04364 3.20959 3.08614C5.16708 1.12865 7.90052 0 10.9338 0H47.2268C50.1366 0 52.9846 1.24327 54.9509 3.20959C56.9084 5.16708 58.1605 8.02396 58.1605 10.872C58.1605 13.0676 57.5697 14.9722 56.4411 16.577L26.4438 72.3568C24.3629 75.9191 20.7389 78 16.9385 78C13.8524 78 11.357 76.8713 9.62876 74.9139V74.8962Z" fill="url(#paint2_linear_453_3252)"/>
<path fill-rule="evenodd" clip-rule="evenodd" d="M19.7687 52.6935L21.3559 53.6017L19.7335 54.4482L18.8252 56.0353L17.9788 54.4129L16.3916 53.5047L18.014 52.6582L18.9222 51.071L19.7687 52.6935Z" fill="white"/>
<path fill-rule="evenodd" clip-rule="evenodd" d="M14.6727 71.9952L15.6427 72.5507L14.6463 73.0709L14.0908 74.0496L13.5705 73.0533L12.5918 72.4978L13.5882 71.9687L14.1525 70.9988L14.6727 71.9952Z" fill="white"/>
<path fill-rule="evenodd" clip-rule="evenodd" d="M38.0477 38.1358L39.0265 38.6913L38.0301 39.2115L37.4746 40.1903L36.9543 39.1939L35.9756 38.6296L36.972 38.1093L37.5275 37.1394L38.0477 38.1358Z" fill="white"/>
<path fill-rule="evenodd" clip-rule="evenodd" d="M26.409 9.47881L27.3878 10.0343L26.3914 10.5545L25.8359 11.5333L25.3157 10.5369L24.3369 9.98141L25.3333 9.46117L25.8888 8.48242L26.409 9.47881Z" fill="white"/>
<path d="M19.9983 13.8613C20.4216 13.8613 20.4216 13.2 19.9983 13.2C19.5751 13.2 19.5751 13.8613 19.9983 13.8613Z" fill="white"/>
<path d="M45.2344 12.7678C45.6577 12.7678 45.6577 12.1064 45.2344 12.1064C44.8112 12.1064 44.8112 12.7678 45.2344 12.7678Z" fill="white"/>
<path d="M47.0596 5.08759C47.4829 5.08759 47.4829 4.42627 47.0596 4.42627C46.6364 4.42627 46.6364 5.08759 47.0596 5.08759Z" fill="white"/>
<path d="M9.39067 5.81952C9.81392 5.81952 9.81392 5.1582 9.39067 5.1582C8.96743 5.1582 8.96743 5.81952 9.39067 5.81952Z" fill="white"/>
<path d="M36.4522 27.3959C36.8754 27.3959 36.8754 26.7346 36.4522 26.7346C36.029 26.7346 36.029 27.3959 36.4522 27.3959Z" fill="white"/>
<path d="M34.627 9.10834C35.0502 9.10834 35.0502 8.44702 34.627 8.44702C34.2038 8.44702 34.2038 9.10834 34.627 9.10834Z" fill="white"/>
<path d="M30.6055 51.1679C31.0288 51.1679 31.0288 50.5066 30.6055 50.5066C30.1823 50.5066 30.1823 51.1679 30.6055 51.1679Z" fill="white"/>
<path d="M19.337 63.1335C19.7602 63.1335 19.7602 62.4722 19.337 62.4722C18.9137 62.4722 18.9137 63.1335 19.337 63.1335Z" fill="white"/>
<path d="M13.1651 62.4721C13.5883 62.4721 13.5883 61.8108 13.1651 61.8108C12.7418 61.8108 12.7418 62.4721 13.1651 62.4721Z" fill="white"/>
<path d="M21.9825 69.0854C22.4057 69.0854 22.4057 68.4241 21.9825 68.4241C21.5592 68.4241 21.5592 69.0854 21.9825 69.0854Z" fill="white"/>
<path d="M12.6797 69.0854C13.103 69.0854 13.103 68.4241 12.6797 68.4241C12.2565 68.4241 12.2565 69.0854 12.6797 69.0854Z" fill="white"/>
<path d="M18.1729 53.7253C18.5961 53.7253 18.5961 53.064 18.1729 53.064C17.7497 53.064 17.7497 53.7253 18.1729 53.7253Z" fill="white"/>
<path d="M18.9053 45.3132C19.3286 45.3132 19.3286 44.6519 18.9053 44.6519C18.4821 44.6519 18.4821 45.3132 18.9053 45.3132Z" fill="white"/>
<path d="M38.2862 46.4155C38.7094 46.4155 38.7094 45.7542 38.2862 45.7542C37.8629 45.7542 37.8629 46.4155 38.2862 46.4155Z" fill="white"/>
<path d="M28.0398 61.0351C28.4631 61.0351 28.4631 60.3738 28.0398 60.3738C27.6166 60.3738 27.6166 61.0351 28.0398 61.0351Z" fill="white"/>
<path d="M26.5762 41.2924C26.9995 41.2924 26.9995 40.6311 26.5762 40.6311C26.153 40.6311 26.153 41.2924 26.5762 41.2924Z" fill="white"/>
<mask id="mask0_453_3252" style="mask-type:luminance" maskUnits="userSpaceOnUse" x="0" y="0" width="59" height="78">
<path d="M9.62876 74.8962C7.90934 73.0534 6.95704 70.6197 6.95704 68.0097C6.95704 65.8141 7.43319 63.7332 8.43839 61.7757L29.6446 21.1445H10.9338C7.90052 21.1445 5.1759 20.0158 3.20959 18.1112C1.12865 16.2066 0 13.5967 0 10.6869C0 7.77707 1.24327 5.04364 3.20959 3.08614C5.16708 1.12865 7.90052 0 10.9338 0H47.2268C50.1366 0 52.9846 1.24327 54.9509 3.20959C56.9084 5.16708 58.1605 8.02396 58.1605 10.872C58.1605 13.0676 57.5697 14.9722 56.4411 16.577L26.4438 72.3568C24.3629 75.9191 20.7389 78 16.9385 78C13.8524 78 11.357 76.8713 9.62876 74.9139V74.8962Z" fill="white"/>
</mask>
<g mask="url(#mask0_453_3252)">
<path opacity="0.2" d="M16.3653 -23.9926C11.8507 -21.0388 7.52132 -17.3971 5.93416 -12.036C5.13177 -9.32024 5.23758 -6.37518 6.54257 -3.86218C9.3201 1.47243 15.6864 2.14257 21.2679 2.42473C29.6445 2.85679 38.1887 3.28003 46.3097 1.16382C50.8419 -0.00891113 55.2507 -1.97522 60.0739 -1.15519C61.8462 -0.855396 63.2923 0.546593 63.5215 2.32774C63.8919 5.26398 60.9292 6.63951 58.425 7.39783C44.6432 11.5773 30.2706 13.5084 16.4182 17.4586C2.56586 21.4089 -11.1719 27.7399 -20.4038 38.7971C-26.1176 45.6572 -29.9356 54.651 -28.516 63.4686C-27.8811 67.4188 -26.2411 71.1399 -24.4158 74.6933C-21.506 80.3277 -17.979 85.7946 -13.0324 89.7625C-3.88858 97.0899 8.69405 98.3067 20.3068 98.774C32.9776 99.2943 45.666 98.9768 58.2927 97.7953C67.2161 96.9576 76.1924 95.635 84.5073 92.302C92.9986 88.8984 100.829 83.1934 105.317 75.2224C106.586 72.9651 107.6 70.3198 106.93 67.8245C106.41 65.8934 104.955 64.3503 103.35 63.1688C97.0282 58.5308 88.5016 58.6895 80.6717 59.0422L55.5946 60.1708C41.6188 60.7969 27.0257 61.3171 14.302 55.4975C12.6531 54.7392 10.9778 53.8222 9.99905 52.2968C8.15619 49.4222 9.48764 45.4896 11.7361 42.9237C15.3689 38.7883 20.9857 36.8484 26.479 36.4516C31.9724 36.0548 37.4569 37.0248 42.9061 37.8007C49.8103 38.7795 56.7585 39.4584 63.7155 39.8199C67.6129 40.0227 71.572 40.1285 75.3723 39.2203C78.6348 38.4356 82.153 36.4164 81.9767 32.6865C81.8973 31.1258 81.1125 29.6886 79.9574 28.6305C77.4444 26.3291 74.0673 25.9499 70.8225 25.7736C58.4779 25.1123 46.0628 26.8405 33.7623 25.6325C32.8629 25.5443 31.8048 25.3327 31.4257 24.5127C31.1523 23.9219 31.3463 23.2165 31.6285 22.6257C34.0269 17.6085 40.8957 17.3969 46.4508 17.0971C54.5982 16.6651 62.6398 14.443 69.8525 10.6339C74.4024 8.23549 79.2697 3.57983 76.5098 -1.42854C75.5928 -3.10387 74.0056 -4.30306 72.198 -4.92028C63.5568 -7.86535 54.3954 -5.98721 45.4456 -6.59562C44.0171 -6.69261 42.5887 -6.85133 41.1691 -7.06295C36.8749 -7.69781 36.6368 -13.8172 40.8693 -14.8224C55.7974 -18.3582 71.6778 -18.6227 86.7646 -21.9205C87.955 -22.1762 88.9954 -22.9698 89.4451 -24.0984C90.468 -26.6643 87.6199 -28.5337 85.2303 -29.4154C62.2342 -37.8803 37.2894 -37.6863 16.3653 -23.9926Z" fill="white"/>
</g>
<path d="M45.5955 27.7575C46.0187 27.7575 46.0187 27.0962 45.5955 27.0962C45.1723 27.0962 45.1723 27.7575 45.5955 27.7575Z" fill="white"/>
<mask id="mask1_453_3252" style="mask-type:luminance" maskUnits="userSpaceOnUse" x="0" y="0" width="59" height="78">
<path d="M9.62876 74.8962C7.90934 73.0534 6.95704 70.6197 6.95704 68.0097C6.95704 65.8141 7.43319 63.7332 8.43839 61.7757L29.6446 21.1445H10.9338C7.90052 21.1445 5.1759 20.0158 3.20959 18.1112C1.12865 16.2066 0 13.5967 0 10.6869C0 7.77707 1.24327 5.04364 3.20959 3.08614C5.16708 1.12865 7.90052 0 10.9338 0H47.2268C50.1366 0 52.9846 1.24327 54.9509 3.20959C56.9084 5.16708 58.1605 8.02396 58.1605 10.872C58.1605 13.0676 57.5697 14.9722 56.4411 16.577L26.4438 72.3568C24.3629 75.9191 20.7389 78 16.9385 78C13.8524 78 11.357 76.8713 9.62876 74.9139V74.8962Z" fill="white"/>
</mask>
<g mask="url(#mask1_453_3252)">
<path d="M20.5501 63.3323C24.8566 53.3472 20.2531 41.7615 10.2679 37.455C0.282777 33.1485 -11.3029 37.752 -15.6094 47.7372C-19.9159 57.7223 -15.3124 69.308 -5.32724 73.6145C4.65792 77.921 16.2436 73.3175 20.5501 63.3323Z" fill="#EFC0D5"/>
<path d="M-9.68202 68.1419C-18.4378 68.1419 -24.9276 65.7435 -25.9504 61.467C-26.6999 58.3544 -24.5131 54.748 -19.7957 51.318C-15.1313 47.9232 -8.53574 45.0928 -1.21718 43.3381C13.949 39.6965 27.528 41.9008 29.0534 48.2583C29.8029 51.3709 27.6162 54.9773 22.8988 58.4073C18.2343 61.802 11.6388 64.6325 4.32024 66.3872C-0.635218 67.5775 -5.43196 68.1419 -9.68202 68.1419ZM12.8997 42.0067C8.65847 42.0067 3.86173 42.571 -1.11137 43.7702C-8.37702 45.516 -14.9196 48.32 -19.54 51.6795C-24.1075 54.9949 -26.2325 58.4426 -25.5271 61.37C-24.0546 67.4894 -10.7137 69.5438 4.21443 65.9639C11.4801 64.218 18.0227 61.4141 22.6431 58.0546C27.2106 54.7392 29.3356 51.3003 28.6302 48.3641C27.6515 44.2816 21.391 42.0067 12.8997 42.0067Z" fill="white"/>
</g>
<path fill-rule="evenodd" clip-rule="evenodd" d="M47.165 19.6717C44.0789 21.5763 40.0228 20.624 38.1183 17.5291C36.2137 14.4429 37.1659 10.3869 40.2609 8.48226C43.347 6.57767 47.4031 7.52997 49.3077 10.6249C51.2123 13.7111 50.26 17.7671 47.165 19.6717Z" fill="url(#paint3_linear_453_3252)"/>
<path d="M50.5951 19.5836C49.9337 19.5836 49.1402 19.4072 48.4524 19.2044C46.6977 18.693 44.5462 17.7319 42.3771 16.4798C38.3739 14.1872 34.5559 10.9864 35.3583 9.60209C35.7022 9.0025 36.7339 8.93196 38.4357 9.38165L38.321 9.80489C36.9191 9.43456 35.9579 9.43456 35.7375 9.81371C35.2614 10.6426 37.9595 13.4289 42.5975 16.0918C44.7314 17.3174 46.8564 18.2697 48.5758 18.7723C50.4363 19.3102 51.2916 19.1691 51.4768 18.8517C51.662 18.5343 51.3534 17.7142 49.9514 16.3828L50.2512 16.0654C51.2387 17 52.3145 18.2786 51.856 19.0721C51.6443 19.4425 51.1682 19.5747 50.5951 19.5747V19.5836Z" fill="white"/>
<defs>
<linearGradient id="paint0_linear_453_3252" x1="35.0698" y1="54.0677" x2="45.6773" y2="37.4466" gradientUnits="userSpaceOnUse">
<stop stop-color="#EFC0D5"/>
<stop offset="1" stop-color="#C74ECE"/>
</linearGradient>
<linearGradient id="paint1_linear_453_3252" x1="32.7926" y1="57.6226" x2="46.5744" y2="36.0284" gradientUnits="userSpaceOnUse">
<stop stop-color="#EFC0D5"/>
<stop offset="1" stop-color="#C74ECE"/>
</linearGradient>
<linearGradient id="paint2_linear_453_3252" x1="31.7167" y1="64.0595" x2="27.6871" y2="-17.494" gradientUnits="userSpaceOnUse">
<stop stop-color="#3C0289"/>
<stop offset="0.49" stop-color="#4172DA"/>
<stop offset="0.94" stop-color="#80C3FF"/>
</linearGradient>
<linearGradient id="paint3_linear_453_3252" x1="44.9254" y1="29.2211" x2="42.721" y2="1.88674" gradientUnits="userSpaceOnUse">
<stop stop-color="#4172DA"/>
<stop offset="0.82" stop-color="#8BECEF"/>
</linearGradient>
</defs>
</svg>
