<svg width="64" height="78" viewBox="0 0 64 78" fill="none" xmlns="http://www.w3.org/2000/svg">
<path fill-rule="evenodd" clip-rule="evenodd" d="M3.03014 32.3095C2.32129 30.0867 3.54646 27.7151 5.76928 27.0062C7.9921 26.2974 10.3637 27.5225 11.0725 29.7454C11.7814 31.9682 10.5562 34.3398 8.3334 35.0486C6.11058 35.7575 3.73899 34.5323 3.03014 32.3095Z" fill="url(#paint0_linear_453_3129)"/>
<path d="M17.242 70.0976C12.2275 65.1444 9.27832 58.3622 9.27832 50.9936C9.27832 43.625 12.2275 37.8492 17.3557 32.9573C14.9404 29.8943 13.6977 26.3501 13.6977 22.342C13.6977 15.9185 16.2356 10.2565 20.4799 6.18714C24.663 2.24032 30.1501 0 36.0484 0C41.9468 0 47.4863 2.24032 51.6694 6.18714C55.9138 10.2565 58.4517 15.9185 58.4517 22.342C58.4517 26.0525 57.2702 29.4742 54.9774 32.4847C60.3419 37.3766 63.4661 43.6863 63.4661 50.9936C63.4661 58.3009 60.517 65.0831 55.5025 70.0976C50.488 75.0508 43.592 78 36.346 78C29.0999 78 22.1952 75.0508 17.242 70.0976ZM40.5903 55.238C41.8243 54.1178 42.4193 52.7001 42.4193 50.9936C42.4193 49.4009 41.833 47.9307 40.5903 46.6267C39.3477 45.3928 37.9387 44.7977 36.346 44.7977C34.7532 44.7977 33.283 45.4453 32.1016 46.688C30.9202 47.9832 30.3339 49.4009 30.3339 50.9936C30.3339 54.4679 32.8717 56.9445 36.346 56.9445C37.9387 56.9445 39.3564 56.3581 40.5903 55.238ZM40.4678 20.6967C40.4678 19.4628 40.0565 18.4564 39.1726 17.5725C38.2887 16.6887 37.2298 16.2773 35.9872 16.2773C34.867 16.2773 33.8081 16.7499 32.9242 17.6338C32.0403 18.5177 31.5678 19.5766 31.5678 20.758C31.5678 21.9394 32.0403 22.9371 32.9242 23.7684C33.8081 24.591 34.867 25.0024 35.9872 25.0024C38.4025 25.0024 40.4678 23.0596 40.4678 20.6967Z" fill="url(#paint1_linear_453_3129)"/>
<path fill-rule="evenodd" clip-rule="evenodd" d="M39.6799 9.53871L41.0451 10.3176L39.6537 11.0439L38.8748 12.4091L38.1484 11.0177L36.792 10.2388L38.1747 9.51245L38.9535 8.15601L39.6799 9.53871Z" fill="white"/>
<path fill-rule="evenodd" clip-rule="evenodd" d="M45.8152 32.5545L46.7866 33.1146L45.789 33.6397L45.2289 34.6111L44.7126 33.6134L43.7324 33.0621L44.7301 32.537L45.2902 31.5569L45.8152 32.5545Z" fill="white"/>
<path fill-rule="evenodd" clip-rule="evenodd" d="M26.159 32.9659L27.1304 33.526L26.1327 34.0511L25.5814 35.0312L25.0563 34.0336L24.0762 33.4735L25.0738 32.9484L25.6339 31.9683L26.159 32.9659Z" fill="white"/>
<path d="M19.535 27.7328C19.9551 27.7328 19.9551 27.0764 19.535 27.0764C19.115 27.0764 19.115 27.7328 19.535 27.7328Z" fill="white"/>
<path d="M21.5738 17.5287C21.9939 17.5287 21.9939 16.8723 21.5738 16.8723C21.1538 16.8723 21.1538 17.5287 21.5738 17.5287Z" fill="white"/>
<path d="M52.7897 16.3561C53.2097 16.3561 53.2097 15.6997 52.7897 15.6997C52.3696 15.6997 52.3696 16.3561 52.7897 16.3561Z" fill="white"/>
<path d="M48.4137 27.4439C48.8337 27.4439 48.8337 26.7876 48.4137 26.7876C47.9936 26.7876 47.9936 27.4439 48.4137 27.4439Z" fill="white"/>
<path d="M32.9508 4.10434C33.3708 4.10434 33.3708 3.448 32.9508 3.448C32.5307 3.448 32.5307 4.10434 32.9508 4.10434Z" fill="white"/>
<path d="M50.453 42.0321C50.873 42.0321 50.873 41.3757 50.453 41.3757C50.0329 41.3757 50.0329 42.0321 50.453 42.0321Z" fill="white"/>
<path d="M22.1607 40.8595C22.5808 40.8595 22.5808 40.2031 22.1607 40.2031C21.7407 40.2031 21.7407 40.8595 22.1607 40.8595Z" fill="white"/>
<path d="M16.3231 53.1114C16.7432 53.1114 16.7432 52.4551 16.3231 52.4551C15.903 52.4551 15.903 53.1114 16.3231 53.1114Z" fill="white"/>
<path d="M27.9977 14.6058C28.4177 14.6058 28.4177 13.9495 27.9977 13.9495C27.5776 13.9495 27.5776 14.6058 27.9977 14.6058Z" fill="white"/>
<path d="M22.4488 10.8165C22.8689 10.8165 22.8689 10.1602 22.4488 10.1602C22.0288 10.1602 22.0288 10.8165 22.4488 10.8165Z" fill="white"/>
<path d="M41.1246 7.02719C41.5447 7.02719 41.5447 6.37085 41.1246 6.37085C40.7046 6.37085 40.7046 7.02719 41.1246 7.02719Z" fill="white"/>
<path d="M44.3268 16.3561C44.7468 16.3561 44.7468 15.6997 44.3268 15.6997C43.9067 15.6997 43.9067 16.3561 44.3268 16.3561Z" fill="white"/>
<path d="M37.9125 37.9454C38.3325 37.9454 38.3325 37.2891 37.9125 37.2891C37.4924 37.2891 37.4924 37.9454 37.9125 37.9454Z" fill="white"/>
<path d="M56.8766 56.034C57.2966 56.034 57.2966 55.3777 56.8766 55.3777C56.4565 55.3777 56.4565 56.034 56.8766 56.034Z" fill="white"/>
<path d="M46.3746 68.5748C46.7947 68.5748 46.7947 67.9185 46.3746 67.9185C45.9546 67.9185 45.9546 68.5748 46.3746 68.5748Z" fill="white"/>
<path d="M30.3248 69.7389C30.7449 69.7389 30.7449 69.0825 30.3248 69.0825C29.9048 69.0825 29.9048 69.7389 30.3248 69.7389Z" fill="white"/>
<path d="M30.3248 63.6129C30.7449 63.6129 30.7449 62.9565 30.3248 62.9565C29.9048 62.9565 29.9048 63.6129 30.3248 63.6129Z" fill="white"/>
<path d="M19.8238 63.6129C20.2439 63.6129 20.2439 62.9565 19.8238 62.9565C19.4038 62.9565 19.4038 63.6129 19.8238 63.6129Z" fill="white"/>
<path d="M27.1227 25.4046C27.5427 25.4046 27.5427 24.7483 27.1227 24.7483C26.7026 24.7483 26.7026 25.4046 27.1227 25.4046Z" fill="white"/>
<path d="M29.1617 6.44077C29.5818 6.44077 29.5818 5.78442 29.1617 5.78442C28.7417 5.78442 28.7417 6.44077 29.1617 6.44077Z" fill="white"/>
<mask id="mask0_453_3129" style="mask-type:luminance" maskUnits="userSpaceOnUse" x="9" y="0" width="55" height="78">
<path d="M17.242 70.0976C12.2275 65.1444 9.27832 58.3622 9.27832 50.9936C9.27832 43.625 12.2275 37.8492 17.3557 32.9573C14.9404 29.8943 13.6977 26.3501 13.6977 22.342C13.6977 15.9185 16.2356 10.2565 20.4799 6.18714C24.663 2.24032 30.1501 0 36.0484 0C41.9468 0 47.4863 2.24032 51.6694 6.18714C55.9138 10.2565 58.4517 15.9185 58.4517 22.342C58.4517 26.0525 57.2702 29.4742 54.9774 32.4847C60.3419 37.3766 63.4661 43.6863 63.4661 50.9936C63.4661 58.3009 60.517 65.0831 55.5025 70.0976C50.488 75.0508 43.592 78 36.346 78C29.0999 78 22.1952 75.0508 17.242 70.0976ZM40.5903 55.238C41.8243 54.1178 42.4193 52.7001 42.4193 50.9936C42.4193 49.4009 41.833 47.9307 40.5903 46.6267C39.3477 45.3928 37.9387 44.7977 36.346 44.7977C34.7532 44.7977 33.283 45.4453 32.1016 46.688C30.9202 47.9832 30.3339 49.4009 30.3339 50.9936C30.3339 54.4679 32.8717 56.9445 36.346 56.9445C37.9387 56.9445 39.3564 56.3581 40.5903 55.238ZM40.4678 20.6967C40.4678 19.4628 40.0565 18.4564 39.1726 17.5725C38.2887 16.6887 37.2298 16.2773 35.9872 16.2773C34.867 16.2773 33.8081 16.7499 32.9242 17.6338C32.0403 18.5177 31.5678 19.5766 31.5678 20.758C31.5678 21.9394 32.0403 22.9371 32.9242 23.7684C33.8081 24.591 34.867 25.0024 35.9872 25.0024C38.4025 25.0024 40.4678 23.0596 40.4678 20.6967Z" fill="white"/>
</mask>
<g mask="url(#mask0_453_3129)">
<path opacity="0.2" d="M96.9393 68.5223C98.4095 63.3765 99.2934 57.837 97.0093 52.7788C95.8541 50.2146 93.8588 48.0793 91.2509 47.0379C85.7026 44.8326 80.4956 48.4644 76.1113 51.8774C69.5391 56.9969 62.8619 62.2214 58.1274 69.0736C55.4933 72.8979 53.4542 77.2298 49.3062 79.7502C47.7834 80.6778 45.7881 80.564 44.458 79.3651C42.2701 77.4048 43.6003 74.4469 44.9918 72.2503C52.6316 60.1648 62.1705 49.3833 69.9941 37.4291C77.8265 25.4748 84.0312 11.7966 83.7861 -2.4942C83.6374 -11.3505 80.6532 -20.5831 73.8709 -26.2889C70.8343 -28.8443 67.185 -30.5682 63.5007 -32.0472C57.6461 -34.3926 51.4502 -36.2041 45.1668 -35.9678C33.5451 -35.5302 23.3062 -28.2754 14.2836 -21.0906C4.43843 -13.2583 -4.89041 -4.78703 -13.5979 4.29678C-19.7588 10.7202 -25.6309 17.5374 -29.709 25.4398C-33.8746 33.5085 -36.0449 42.8723 -34.2509 51.7724C-33.7433 54.2927 -32.7894 56.9356 -30.6541 58.3796C-29.0089 59.491 -26.9173 59.7098 -24.9395 59.5522C-17.1772 58.9309 -10.885 53.2776 -5.23171 47.9306C0.797909 42.2247 6.82753 36.5102 12.8659 30.8044C22.9474 21.2567 33.5714 11.3941 46.8996 7.50849C48.6236 7.00092 50.4788 6.60711 52.2116 7.11469C55.4583 8.07732 57.016 11.8929 56.9898 15.2796C56.9548 20.7404 53.9881 25.8424 50.1288 29.7104C46.2607 33.5697 41.5175 36.4052 36.9231 39.3631C31.1035 43.1086 25.4502 47.108 19.9807 51.3523C16.9177 53.7327 13.881 56.218 11.6145 59.3685C9.67169 62.0726 8.3415 65.8707 10.9056 68.5573C11.9733 69.6862 13.5047 70.2463 15.0537 70.29C18.4317 70.3863 21.2234 68.4785 23.77 66.5007C33.4664 58.9834 41.6663 49.6283 51.6865 42.5485C52.4216 42.0322 53.3492 41.4984 54.1719 41.8747C54.7582 42.146 55.0732 42.7936 55.2483 43.4237C56.7097 48.7444 51.6865 53.3651 47.7134 57.1894C41.8763 62.799 37.2819 69.695 34.3415 77.2385C32.4862 81.9992 31.8561 88.6502 37.1769 90.6192C38.9534 91.2756 40.9224 91.1531 42.6814 90.4355C51.0827 87.04 56.736 79.6802 63.8507 74.3244C64.9884 73.4668 66.1611 72.6616 67.36 71.9003C71.0005 69.5899 75.1486 74.0356 72.6283 77.5273C63.7195 89.8666 51.9665 100.386 42.7777 112.655C42.0514 113.618 41.7888 114.895 42.1826 116.033C43.084 118.623 46.4357 118.177 48.7986 117.284C71.5431 108.726 90.1395 92.387 96.9655 68.5223H96.9393Z" fill="white"/>
<path fill-rule="evenodd" clip-rule="evenodd" d="M59.9035 84.8698C59.9648 70.3427 49.6821 57.3821 34.9012 54.5554C20.1203 51.7288 5.78572 59.9987 0.491211 73.5194L59.9035 84.8698Z" fill="url(#paint2_linear_453_3129)"/>
<path fill-rule="evenodd" clip-rule="evenodd" d="M37.1413 72.9243C36.8 73.9569 35.0322 74.2982 33.1945 73.6944C31.3567 73.0818 30.149 71.7516 30.4903 70.7277C30.8316 69.6951 32.5994 69.3538 34.4371 69.9576C36.2749 70.5702 37.4826 71.9004 37.1413 72.9243Z" fill="white"/>
<path fill-rule="evenodd" clip-rule="evenodd" d="M9.46116 62.064L4.01788 68.8812C2.94147 68.0236 2.76644 66.4571 3.62407 65.3807L5.96066 62.4578C6.81828 61.3814 8.38476 61.2064 9.46116 62.064Z" fill="url(#paint3_linear_453_3129)"/>
<path fill-rule="evenodd" clip-rule="evenodd" d="M58.1187 79.0501L56.876 72.6267C58.2237 72.3642 59.5364 73.2481 59.7989 74.6045L60.0964 76.136C60.359 77.4837 59.4751 78.7964 58.1187 79.0589V79.0501Z" fill="url(#paint4_linear_453_3129)"/>
<path fill-rule="evenodd" clip-rule="evenodd" d="M24.2597 55.2819L16.016 58.1523C15.561 56.8483 16.2523 55.4306 17.5475 54.9756L21.083 53.7504C22.3869 53.2953 23.8046 53.9867 24.2597 55.2819Z" fill="url(#paint5_linear_453_3129)"/>
<path fill-rule="evenodd" clip-rule="evenodd" d="M54.5656 69.0824L48.7197 62.6064C49.7436 61.6876 51.3188 61.7663 52.2377 62.7815L54.7406 65.5556C55.6595 66.5795 55.5807 68.1547 54.5656 69.0736V69.0824Z" fill="url(#paint6_linear_453_3129)"/>
<path fill-rule="evenodd" clip-rule="evenodd" d="M40.9046 56.8133L32.3372 55.1768C32.5997 53.8203 33.9036 52.9365 35.2513 53.199L38.9269 53.8991C40.2833 54.1616 41.1672 55.4656 40.9046 56.8133Z" fill="url(#paint7_linear_453_3129)"/>
<path fill-rule="evenodd" clip-rule="evenodd" d="M23.6475 60.4537C23.9801 61.6089 22.1423 63.1579 19.5344 63.9105C16.9266 64.6631 14.5462 64.3305 14.2137 63.1754C13.8811 62.0202 15.7189 60.4712 18.3268 59.7186C20.9346 58.966 23.315 59.2985 23.6475 60.4537Z" fill="white"/>
<path fill-rule="evenodd" clip-rule="evenodd" d="M18.458 60.69C20.8121 60.0074 22.9737 60.2174 23.6213 61.11C23.7 60.8825 23.7088 60.655 23.6475 60.4449C23.315 59.2898 20.9346 58.9572 18.3268 59.7098C15.7189 60.4624 13.8811 62.0114 14.2137 63.1666C14.2487 63.2803 14.3012 63.3766 14.3712 63.4729C14.7125 62.4402 16.3227 61.2938 18.4493 60.6812L18.458 60.69Z" fill="#4172DA"/>
<path fill-rule="evenodd" clip-rule="evenodd" d="M51.984 69.6253C51.4327 70.2203 49.91 69.6953 48.571 68.4613C47.2408 67.2274 46.602 65.7397 47.1533 65.1446C47.7047 64.5495 49.2274 65.0746 50.5663 66.3085C51.8965 67.5425 52.5353 69.0302 51.984 69.6253Z" fill="white"/>
<path fill-rule="evenodd" clip-rule="evenodd" d="M50.0495 66.7286C51.2571 67.8488 51.8872 69.1614 51.5897 69.844C51.7472 69.809 51.8785 69.739 51.9835 69.6253C52.5348 69.0302 51.896 67.5512 50.5658 66.3085C49.2356 65.0746 47.7041 64.5495 47.1528 65.1446C47.1003 65.2059 47.0565 65.2671 47.0303 65.3459C47.7391 65.1796 48.9555 65.7134 50.0495 66.7286Z" fill="#4172DA"/>
<path fill-rule="evenodd" clip-rule="evenodd" d="M34.429 69.9491C32.5913 69.3365 30.8235 69.6865 30.4822 70.7192C30.456 70.7979 30.4472 70.8679 30.4385 70.9467C31.0073 70.1678 32.5825 69.9578 34.2103 70.5004C35.9168 71.0605 37.0807 72.2506 36.9669 73.2395C37.0369 73.1433 37.0982 73.0383 37.1332 72.9157C37.4745 71.8831 36.2668 70.5529 34.429 69.9491Z" fill="#4172DA"/>
</g>
<path d="M51.9147 10.8165C52.3347 10.8165 52.3347 10.1602 51.9147 10.1602C51.4946 10.1602 51.4946 10.8165 51.9147 10.8165Z" fill="white"/>
<path d="M56.579 21.9041C56.999 21.9041 56.999 21.2478 56.579 21.2478C56.1589 21.2478 56.1589 21.9041 56.579 21.9041Z" fill="white"/>
<path d="M53.3756 23.9435C53.7957 23.9435 53.7957 23.2871 53.3756 23.2871C52.9555 23.2871 52.9555 23.9435 53.3756 23.9435Z" fill="white"/>
<path d="M39.6627 30.6554C40.0828 30.6554 40.0828 29.999 39.6627 29.999C39.2426 29.999 39.2426 30.6554 39.6627 30.6554Z" fill="white"/>
<path d="M32.6617 32.1082C33.0818 32.1082 33.0818 31.4519 32.6617 31.4519C32.2417 31.4519 32.2417 32.1082 32.6617 32.1082Z" fill="white"/>
<mask id="mask1_453_3129" style="mask-type:luminance" maskUnits="userSpaceOnUse" x="9" y="0" width="55" height="78">
<path d="M17.242 70.0976C12.2275 65.1444 9.27832 58.3622 9.27832 50.9936C9.27832 43.625 12.2275 37.8492 17.3557 32.9573C14.9404 29.8943 13.6977 26.3501 13.6977 22.342C13.6977 15.9185 16.2356 10.2565 20.4799 6.18714C24.663 2.24032 30.1501 0 36.0484 0C41.9468 0 47.4863 2.24032 51.6694 6.18714C55.9138 10.2565 58.4517 15.9185 58.4517 22.342C58.4517 26.0525 57.2702 29.4742 54.9774 32.4847C60.3419 37.3766 63.4661 43.6863 63.4661 50.9936C63.4661 58.3009 60.517 65.0831 55.5025 70.0976C50.488 75.0508 43.592 78 36.346 78C29.0999 78 22.1952 75.0508 17.242 70.0976ZM40.5903 55.238C41.8243 54.1178 42.4193 52.7001 42.4193 50.9936C42.4193 49.4009 41.833 47.9307 40.5903 46.6267C39.3477 45.3928 37.9387 44.7977 36.346 44.7977C34.7532 44.7977 33.283 45.4453 32.1016 46.688C30.9202 47.9832 30.3339 49.4009 30.3339 50.9936C30.3339 54.4679 32.8717 56.9445 36.346 56.9445C37.9387 56.9445 39.3564 56.3581 40.5903 55.238ZM40.4678 20.6967C40.4678 19.4628 40.0565 18.4564 39.1726 17.5725C38.2887 16.6887 37.2298 16.2773 35.9872 16.2773C34.867 16.2773 33.8081 16.7499 32.9242 17.6338C32.0403 18.5177 31.5678 19.5766 31.5678 20.758C31.5678 21.9394 32.0403 22.9371 32.9242 23.7684C33.8081 24.591 34.867 25.0024 35.9872 25.0024C38.4025 25.0024 40.4678 23.0596 40.4678 20.6967Z" fill="white"/>
</mask>
<g mask="url(#mask1_453_3129)">
<path fill-rule="evenodd" clip-rule="evenodd" d="M59.9043 84.8698C59.9655 70.3427 49.6828 57.3821 34.9019 54.5554C20.121 51.7288 5.78646 59.9987 0.491943 73.5194L59.9043 84.8698Z" fill="url(#paint8_linear_453_3129)"/>
<path fill-rule="evenodd" clip-rule="evenodd" d="M37.142 72.9243C36.8007 73.9569 35.033 74.2982 33.1952 73.6944C31.3574 73.0818 30.1497 71.7516 30.491 70.7277C30.8323 69.6951 32.6001 69.3538 34.4379 69.9576C36.2756 70.5702 37.4833 71.9004 37.142 72.9243Z" fill="white"/>
<path fill-rule="evenodd" clip-rule="evenodd" d="M9.46189 62.064L4.01861 68.8812C2.9422 68.0236 2.76718 66.4571 3.6248 65.3807L5.96139 62.4578C6.81901 61.3814 8.38549 61.2064 9.46189 62.064Z" fill="url(#paint9_linear_453_3129)"/>
<path fill-rule="evenodd" clip-rule="evenodd" d="M58.1194 79.0501L56.8767 72.6267C58.2244 72.3642 59.5371 73.2481 59.7996 74.6045L60.0972 76.136C60.3597 77.4837 59.4758 78.7964 58.1194 79.0589V79.0501Z" fill="url(#paint10_linear_453_3129)"/>
<path fill-rule="evenodd" clip-rule="evenodd" d="M24.2607 55.2819L16.017 58.1523C15.5619 56.8483 16.2533 55.4306 17.5485 54.9756L21.084 53.7504C22.3879 53.2953 23.8056 53.9867 24.2607 55.2819Z" fill="url(#paint11_linear_453_3129)"/>
<path fill-rule="evenodd" clip-rule="evenodd" d="M54.5663 69.0824L48.7205 62.6064C49.7444 61.6876 51.3196 61.7663 52.2385 62.7815L54.7413 65.5556C55.6602 66.5795 55.5814 68.1547 54.5663 69.0736V69.0824Z" fill="url(#paint12_linear_453_3129)"/>
<path fill-rule="evenodd" clip-rule="evenodd" d="M40.9054 56.8133L32.3379 55.1768C32.6004 53.8203 33.9044 52.9365 35.2521 53.199L38.9276 53.8991C40.284 54.1616 41.1679 55.4656 40.9054 56.8133Z" fill="url(#paint13_linear_453_3129)"/>
<path fill-rule="evenodd" clip-rule="evenodd" d="M23.6483 60.4537C23.9808 61.6089 22.143 63.1579 19.5352 63.9105C16.9273 64.6631 14.547 64.3305 14.2144 63.1754C13.8819 62.0202 15.7196 60.4712 18.3275 59.7186C20.9354 58.966 23.3157 59.2985 23.6483 60.4537Z" fill="white"/>
<path fill-rule="evenodd" clip-rule="evenodd" d="M18.4588 60.69C20.8129 60.0074 22.9744 60.2174 23.622 61.11C23.7008 60.8825 23.7095 60.655 23.6483 60.4449C23.3157 59.2898 20.9354 58.9572 18.3275 59.7098C15.7196 60.4624 13.8819 62.0114 14.2144 63.1666C14.2494 63.2803 14.3019 63.3766 14.3719 63.4729C14.7132 62.4402 16.3235 61.2938 18.45 60.6812L18.4588 60.69Z" fill="#4172DA"/>
<path fill-rule="evenodd" clip-rule="evenodd" d="M51.9847 69.6253C51.4334 70.2203 49.9107 69.6953 48.5718 68.4613C47.2416 67.2274 46.6027 65.7397 47.1541 65.1446C47.7054 64.5495 49.2281 65.0746 50.567 66.3085C51.8972 67.5425 52.5361 69.0302 51.9847 69.6253Z" fill="white"/>
<path fill-rule="evenodd" clip-rule="evenodd" d="M50.0502 66.7286C51.2579 67.8488 51.888 69.1614 51.5904 69.844C51.7479 69.809 51.8792 69.739 51.9842 69.6253C52.5355 69.0302 51.8967 67.5512 50.5665 66.3085C49.2363 65.0746 47.7049 64.5495 47.1535 65.1446C47.101 65.2059 47.0573 65.2671 47.031 65.3459C47.7399 65.1796 48.9563 65.7134 50.0502 66.7286Z" fill="#4172DA"/>
<path fill-rule="evenodd" clip-rule="evenodd" d="M34.4298 69.9491C32.592 69.3365 30.8243 69.6865 30.483 70.7192C30.4567 70.7979 30.448 70.8679 30.4392 70.9467C31.008 70.1678 32.5833 69.9578 34.211 70.5004C35.9175 71.0605 37.0814 72.2506 36.9676 73.2395C37.0377 73.1433 37.0989 73.0383 37.1339 72.9157C37.4752 71.8831 36.2675 70.5529 34.4298 69.9491Z" fill="#4172DA"/>
</g>
<path d="M26.2645 11.9454C25.6957 16.0673 21.8889 18.9552 17.7671 18.3864C13.6452 17.8175 10.7573 14.0107 11.3261 9.88888C11.895 5.76704 15.7018 2.87913 19.8236 3.44796C23.9455 4.01679 26.8334 7.82359 26.2645 11.9454Z" fill="url(#paint14_linear_453_3129)"/>
<path opacity="0.7" d="M26.1769 9.40749C26.2294 9.67003 26.2731 9.93257 26.2994 10.1951C29.2486 11.114 31.1126 12.1904 30.9813 13.1093C30.7713 14.632 25.118 15.1133 18.362 14.1857C11.606 13.2493 6.29401 11.2628 6.50404 9.73129C6.62655 8.82991 8.67435 8.29608 11.7198 8.19982C11.8161 7.94603 11.9211 7.70975 12.0348 7.47346C7.29165 7.40345 3.96617 8.0773 3.79115 9.36373C3.53736 11.2278 10.0133 13.6606 18.2745 14.7983C26.5269 15.9359 33.4317 15.3496 33.6855 13.4856C33.8605 12.1904 30.8063 10.6327 26.1681 9.41624L26.1769 9.40749Z" fill="#8BECEF"/>
<path opacity="0.6" d="M26.2908 10.1688C26.317 10.4051 26.3258 10.6414 26.3258 10.8864C27.9447 11.5253 28.9074 12.2079 28.8199 12.803C28.6448 14.0631 23.9892 14.457 18.4234 13.6868C12.8576 12.9167 8.48193 11.2715 8.65696 10.0201C8.73572 9.42498 9.82088 9.03117 11.5099 8.84739C11.5711 8.61111 11.6411 8.38358 11.7199 8.16479C8.62195 8.25231 6.53915 8.79488 6.41664 9.70502C6.20661 11.2452 11.5449 13.2493 18.3446 14.1857C25.1443 15.122 30.8327 14.6407 31.0427 13.1005C31.174 12.1729 29.2749 11.0877 26.2732 10.1513L26.2908 10.1688Z" fill="#8BECEF"/>
<g opacity="0.2">
<path fill-rule="evenodd" clip-rule="evenodd" d="M0.334522 33.1674C-0.846898 29.4568 1.2009 25.4925 4.90268 24.3111C8.61322 23.1297 12.5775 25.1775 13.759 28.8792C14.9404 32.5898 12.8926 36.5541 9.1908 37.7355C5.48026 38.9169 1.51594 36.8691 0.334522 33.1674Z" fill="url(#paint15_linear_453_3129)"/>
</g>
<path opacity="0.2" d="M28.7062 12.2866C27.9536 17.7649 22.9042 21.5892 17.4259 20.8278C11.9476 20.0752 8.12328 15.0257 8.88464 9.54745C9.63725 4.06916 14.6867 0.244863 20.165 1.00622C25.6433 1.75883 29.4676 6.80831 28.7062 12.2866Z" fill="url(#paint16_linear_453_3129)"/>
<defs>
<linearGradient id="paint0_linear_453_3129" x1="3.87026" y1="36.0113" x2="8.32465" y2="29.0365" gradientUnits="userSpaceOnUse">
<stop stop-color="#4172DA"/>
<stop offset="0.82" stop-color="#8BECEF"/>
</linearGradient>
<linearGradient id="paint1_linear_453_3129" x1="33.4318" y1="-28.0916" x2="37.3699" y2="77.7987" gradientUnits="userSpaceOnUse">
<stop stop-color="#0C0F6C"/>
<stop offset="0.59" stop-color="#3C0289"/>
<stop offset="1" stop-color="#8B46AB"/>
</linearGradient>
<linearGradient id="paint2_linear_453_3129" x1="17.8065" y1="96.3355" x2="49.8323" y2="50.2061" gradientUnits="userSpaceOnUse">
<stop stop-color="#4172DA"/>
<stop offset="0.82" stop-color="#8BECEF"/>
</linearGradient>
<linearGradient id="paint3_linear_453_3129" x1="-5.07012" y1="80.4565" x2="26.9557" y2="34.3271" gradientUnits="userSpaceOnUse">
<stop stop-color="#4172DA"/>
<stop offset="0.82" stop-color="#8BECEF"/>
</linearGradient>
<linearGradient id="paint4_linear_453_3129" x1="35.2871" y1="108.467" x2="67.3113" y2="62.3458" gradientUnits="userSpaceOnUse">
<stop stop-color="#4172DA"/>
<stop offset="0.82" stop-color="#8BECEF"/>
</linearGradient>
<linearGradient id="paint5_linear_453_3129" x1="0.405679" y1="84.2551" x2="32.4315" y2="38.1257" gradientUnits="userSpaceOnUse">
<stop stop-color="#4172DA"/>
<stop offset="0.82" stop-color="#8BECEF"/>
</linearGradient>
<linearGradient id="paint6_linear_453_3129" x1="26.3889" y1="102.295" x2="58.4147" y2="56.1656" gradientUnits="userSpaceOnUse">
<stop stop-color="#4172DA"/>
<stop offset="0.82" stop-color="#8BECEF"/>
</linearGradient>
<linearGradient id="paint7_linear_453_3129" x1="11.5211" y1="91.9725" x2="43.5468" y2="45.843" gradientUnits="userSpaceOnUse">
<stop stop-color="#4172DA"/>
<stop offset="0.82" stop-color="#8BECEF"/>
</linearGradient>
<linearGradient id="paint8_linear_453_3129" x1="17.8072" y1="96.3355" x2="49.833" y2="50.2061" gradientUnits="userSpaceOnUse">
<stop stop-color="#4172DA"/>
<stop offset="0.82" stop-color="#8BECEF"/>
</linearGradient>
<linearGradient id="paint9_linear_453_3129" x1="-5.06939" y1="80.4565" x2="26.9564" y2="34.3271" gradientUnits="userSpaceOnUse">
<stop stop-color="#4172DA"/>
<stop offset="0.82" stop-color="#8BECEF"/>
</linearGradient>
<linearGradient id="paint10_linear_453_3129" x1="35.2878" y1="108.467" x2="67.312" y2="62.3458" gradientUnits="userSpaceOnUse">
<stop stop-color="#4172DA"/>
<stop offset="0.82" stop-color="#8BECEF"/>
</linearGradient>
<linearGradient id="paint11_linear_453_3129" x1="0.406655" y1="84.2551" x2="32.4325" y2="38.1257" gradientUnits="userSpaceOnUse">
<stop stop-color="#4172DA"/>
<stop offset="0.82" stop-color="#8BECEF"/>
</linearGradient>
<linearGradient id="paint12_linear_453_3129" x1="26.3897" y1="102.295" x2="58.4154" y2="56.1656" gradientUnits="userSpaceOnUse">
<stop stop-color="#4172DA"/>
<stop offset="0.82" stop-color="#8BECEF"/>
</linearGradient>
<linearGradient id="paint13_linear_453_3129" x1="11.5218" y1="91.9725" x2="43.5476" y2="45.843" gradientUnits="userSpaceOnUse">
<stop stop-color="#4172DA"/>
<stop offset="0.82" stop-color="#8BECEF"/>
</linearGradient>
<linearGradient id="paint14_linear_453_3129" x1="14.9973" y1="29.5949" x2="20.5565" y2="2.24554" gradientUnits="userSpaceOnUse">
<stop offset="0.13" stop-color="#C74ECE"/>
<stop offset="1" stop-color="#EFC0D5"/>
</linearGradient>
<linearGradient id="paint15_linear_453_3129" x1="1.74348" y1="39.3457" x2="9.17329" y2="27.7066" gradientUnits="userSpaceOnUse">
<stop stop-color="#4172DA"/>
<stop offset="0.82" stop-color="#8BECEF"/>
</linearGradient>
<linearGradient id="paint16_linear_453_3129" x1="13.7507" y1="35.7048" x2="21.1283" y2="-0.584396" gradientUnits="userSpaceOnUse">
<stop offset="0.13" stop-color="#C74ECE"/>
<stop offset="1" stop-color="#EFC0D5"/>
</linearGradient>
</defs>
</svg>
