<svg width="124" height="141" viewBox="0 0 124 141" fill="none" xmlns="http://www.w3.org/2000/svg">
<g opacity="0.1">
<path fill-rule="evenodd" clip-rule="evenodd" d="M7.14597 127.622C4.35793 118.953 9.16827 109.658 17.8858 106.898C26.5837 104.12 35.9098 108.914 38.6782 117.603C41.4662 126.272 36.6559 135.567 27.9384 138.326C19.2405 141.105 9.91436 136.31 7.14597 127.622Z" fill="url(#paint0_linear_453_2480)"/>
<g opacity="0.2">
<path fill-rule="evenodd" clip-rule="evenodd" d="M2.51346 129.089C-1.07956 117.857 5.12479 105.841 16.3947 102.26C27.6646 98.6792 39.7199 104.863 43.313 116.096C46.906 127.328 40.7016 139.343 29.4317 142.924C18.1618 146.506 6.10649 140.322 2.51346 129.089Z" fill="url(#paint1_linear_453_2480)"/>
</g>
<path d="M108.066 18.9755C119.846 30.5798 126.973 46.3915 126.973 63.3968C126.973 76.1949 123.007 88.582 115.723 98.9926L81.4616 161.867C76.8279 169.636 69.0332 174 60.571 174C53.9543 174 48.3979 171.632 43.9017 166.877C39.7982 162.65 37.5599 156.995 37.5599 151.594C37.5599 147.249 38.7576 143.023 41.2707 138.933L49.733 125.215C35.8517 122.045 23.1485 114.139 14.1561 103.2C5.16375 92.1239 0 78.1518 0 63.3773C0 46.3719 7.00935 30.5603 18.6523 18.9559C30.2953 7.21459 46.1596 0.365479 63.4964 0.365479C80.8333 0.365479 96.4227 7.35157 108.066 18.9559V18.9755ZM51.4608 51.4011C48.1623 54.5713 46.1792 58.7786 46.1792 63.3968C46.1792 68.0151 48.1623 72.2224 51.343 75.3925C54.5237 78.4257 58.8824 80.2652 63.5161 80.2652C67.8748 80.2652 72.371 78.4257 75.4143 75.3925C78.7128 72.2224 80.7155 68.0151 80.7155 63.3968C80.7155 58.7786 78.595 54.5713 75.2965 51.4011C72.2532 48.3679 67.8944 46.5285 63.5161 46.5285C58.8824 46.5285 54.5237 48.3679 51.4804 51.4011H51.4608Z" fill="url(#paint2_linear_453_2480)"/>
<path fill-rule="evenodd" clip-rule="evenodd" d="M98.2485 58.8958L100.506 60.1873L98.2092 61.381L96.9134 63.6314L95.7157 61.3419L93.4578 60.0503L95.7746 58.8566L97.0508 56.6062L98.2485 58.8958Z" fill="white"/>
<path fill-rule="evenodd" clip-rule="evenodd" d="M22.8541 46.9785L25.112 48.2701L22.8148 49.4638L21.519 51.7142L20.3213 49.4246L18.083 48.1331L20.3802 46.9394L21.6564 44.689L22.8541 46.9785Z" fill="white"/>
<path fill-rule="evenodd" clip-rule="evenodd" d="M75.1785 104.022L79.439 106.468L75.0803 108.738L72.6457 112.985L70.3681 108.64L66.0879 106.214L70.4466 103.944L72.9009 99.6975L75.1785 104.022Z" fill="white"/>
<path d="M44.118 36.8612C45.0604 36.8612 45.0604 35.3936 44.118 35.3936C43.1755 35.3936 43.1755 36.8612 44.118 36.8612Z" fill="white"/>
<path d="M84.367 38.4074C85.3094 38.4074 85.3094 36.9397 84.367 36.9397C83.4245 36.9397 83.4245 38.4074 84.367 38.4074Z" fill="white"/>
<path d="M87.9803 18.8578C88.9227 18.8578 88.9227 17.3901 87.9803 17.3901C87.0378 17.3901 87.0378 18.8578 87.9803 18.8578Z" fill="white"/>
<path d="M12.1138 61.5575H12.6243C13.5667 61.5575 13.5667 60.0898 12.6243 60.0898H12.1138C11.1714 60.0898 11.1714 61.5575 12.1138 61.5575Z" fill="white"/>
<path d="M108.104 82.6517C109.047 82.6517 109.047 81.1841 108.104 81.1841C107.162 81.1841 107.162 82.6517 108.104 82.6517Z" fill="white"/>
<path d="M117.391 52.3009C118.334 52.3009 118.334 50.8333 117.391 50.8333C116.449 50.8333 116.449 52.3009 117.391 52.3009Z" fill="white"/>
<path d="M31.1983 90.6564C31.375 90.8325 31.5517 91.0086 31.7088 91.1651C32.3763 91.8305 33.4169 90.7933 32.7494 90.128C32.5727 89.9519 32.396 89.7758 32.2389 89.6192C31.5713 88.9539 30.5307 89.991 31.1983 90.6564Z" fill="white"/>
<path d="M73.5301 136.663C74.4725 136.663 74.4725 135.195 73.5301 135.195C72.5876 135.195 72.5876 136.663 73.5301 136.663Z" fill="white"/>
<path d="M82.816 130.479C83.7584 130.479 83.7584 129.011 82.816 129.011C81.8735 129.011 81.8735 130.479 82.816 130.479Z" fill="white"/>
<path d="M74.5691 119.677C75.5116 119.677 75.5116 118.209 74.5691 118.209C73.6267 118.209 73.6267 119.677 74.5691 119.677Z" fill="white"/>
<path d="M58.5682 130.987C59.5106 130.987 59.5106 129.52 58.5682 129.52C57.6257 129.52 57.6257 130.987 58.5682 130.987Z" fill="white"/>
<path d="M92.6141 117.113C93.5565 117.113 93.5565 115.646 92.6141 115.646C91.6716 115.646 91.6716 117.113 92.6141 117.113Z" fill="white"/>
<path d="M50.8123 108.875C51.7547 108.875 51.7547 107.407 50.8123 107.407C49.8699 107.407 49.8699 108.875 50.8123 108.875Z" fill="white"/>
<path d="M64.7527 14.2396C65.6952 14.2396 65.6952 12.772 64.7527 12.772C63.8103 12.772 63.8103 14.2396 64.7527 14.2396Z" fill="white"/>
<mask id="mask0_453_2480" style="mask-type:luminance" maskUnits="userSpaceOnUse" x="0" y="0" width="127" height="175">
<path d="M108.066 18.9755C119.846 30.5798 126.973 46.3915 126.973 63.3968C126.973 76.1949 123.007 88.582 115.723 98.9926L81.4616 161.867C76.8279 169.636 69.0332 174 60.571 174C53.9543 174 48.3979 171.632 43.9017 166.877C39.7982 162.65 37.5599 156.995 37.5599 151.594C37.5599 147.249 38.7576 143.023 41.2707 138.933L49.733 125.215C35.8517 122.045 23.1485 114.139 14.1561 103.2C5.16375 92.1239 0 78.1518 0 63.3773C0 46.3719 7.00935 30.5603 18.6523 18.9559C30.2953 7.21459 46.1596 0.365479 63.4964 0.365479C80.8333 0.365479 96.4227 7.35157 108.066 18.9559V18.9755ZM51.4608 51.4011C48.1623 54.5713 46.1792 58.7786 46.1792 63.3968C46.1792 68.0151 48.1623 72.2224 51.343 75.3925C54.5237 78.4257 58.8824 80.2652 63.5161 80.2652C67.8748 80.2652 72.371 78.4257 75.4143 75.3925C78.7128 72.2224 80.7155 68.0151 80.7155 63.3968C80.7155 58.7786 78.595 54.5713 75.2965 51.4011C72.2532 48.3679 67.8944 46.5285 63.5161 46.5285C58.8824 46.5285 54.5237 48.3679 51.4804 51.4011H51.4608Z" fill="white"/>
</mask>
<g mask="url(#mask0_453_2480)">
<path opacity="0.2" d="M166.929 117.094C170.208 105.588 172.152 93.1809 166.988 81.8896C164.377 76.1755 159.9 71.4007 154.029 69.0916C141.562 64.1994 129.899 72.3596 120.082 79.9914C105.357 91.4588 90.3956 103.2 79.8325 118.562C73.9423 127.133 69.3872 136.839 60.1003 142.494C56.684 144.569 52.2074 144.334 49.2231 141.673C44.3146 137.309 47.2793 130.675 50.3815 125.763C67.4434 98.6993 88.7856 74.5513 106.28 47.7615C123.773 20.9717 137.635 -9.634 137.007 -41.59C136.614 -61.3937 129.88 -82.0193 114.624 -94.7391C107.791 -100.434 99.604 -104.269 91.338 -107.576C78.2225 -112.801 64.302 -116.813 50.1851 -116.245C24.1111 -115.208 1.19824 -98.9268 -19.0248 -82.802C-41.0738 -65.2292 -61.9448 -46.2278 -81.4414 -25.8762C-95.2244 -11.493 -108.379 3.79025 -117.47 21.4805C-126.757 39.5426 -131.587 60.5008 -127.503 80.3828C-126.344 86.0187 -124.185 91.9089 -119.394 95.1378C-115.703 97.623 -110.991 98.0927 -106.573 97.7209C-89.1772 96.2923 -75.0799 83.6117 -62.416 71.616C-48.9078 58.8179 -35.4192 46.0199 -21.911 33.2218C0.668121 11.8135 24.4253 -10.2994 54.3083 -19.0662C58.1762 -20.2012 62.3386 -21.1014 66.2261 -19.9664C73.5104 -17.8334 77.0248 -9.30134 76.9856 -1.72818C76.9267 10.4828 70.31 21.911 61.671 30.58C53.0124 39.2295 42.3904 45.6089 32.1022 52.2428C19.0652 60.6574 6.40126 69.6395 -5.83074 79.15C-12.683 84.4923 -19.496 90.0694 -24.5616 97.1338C-28.9007 103.2 -31.8655 111.693 -26.1127 117.681C-23.6977 120.186 -20.2814 121.458 -16.7865 121.536C-9.20779 121.732 -2.96417 117.446 2.72969 113.024C24.4449 96.1553 42.7831 75.1775 65.2248 59.3071C66.8741 58.133 68.9552 56.9589 70.8008 57.7808C72.136 58.3678 72.8232 59.8355 73.2158 61.2249C76.5144 73.1228 65.2837 83.4747 56.3698 92.0459C43.3132 104.629 33.0446 120.068 26.4869 136.956C22.3441 147.602 20.9697 162.494 32.9268 166.858C36.9125 168.325 41.3498 168.012 45.2766 166.427C64.1057 158.776 76.75 142.299 92.6732 130.283C95.2256 128.366 97.8565 126.565 100.546 124.843C108.695 119.658 118.021 129.559 112.386 137.407C92.4768 165.057 66.1672 188.638 45.6104 216.113C44.0004 218.265 43.3918 221.122 44.2949 223.666C46.3369 229.459 53.8567 228.441 59.1382 226.425C110.108 207.17 151.752 170.517 166.929 117.133V117.094Z" fill="white"/>
</g>
<path fill-rule="evenodd" clip-rule="evenodd" d="M124.518 60.2072C111.422 69.835 92.9664 67.0563 83.3065 54.0038C73.6465 40.9514 76.4346 22.5566 89.5305 12.9288C102.626 3.30086 121.082 6.07964 130.742 19.1321C140.402 32.1845 137.614 50.5793 124.518 60.2072Z" fill="url(#paint3_linear_453_2480)"/>
<path d="M136.338 43.8085C142.386 48.642 145.527 52.908 144.349 55.4129C141.973 60.4421 123.184 56.6066 102.352 46.8613C81.5202 37.1159 66.559 25.1202 68.9348 20.091C70.0343 17.7428 74.7268 17.3318 81.5398 18.5451" stroke="#1D1670" stroke-width="0.5" stroke-miterlimit="10"/>
<g opacity="0.2">
<path fill-rule="evenodd" clip-rule="evenodd" d="M129.387 66.8018C112.639 79.1106 89.0392 75.5686 76.6894 58.8568C64.3396 42.1646 67.8934 18.6428 84.6608 6.33395C101.409 -5.97487 125.009 -2.4329 137.359 14.2789C149.708 30.9712 146.155 54.493 129.387 66.8018Z" fill="url(#paint4_linear_453_2480)"/>
</g>
</g>
<defs>
<linearGradient id="paint0_linear_453_2480" x1="10.4445" y1="142.083" x2="27.7972" y2="114.791" gradientUnits="userSpaceOnUse">
<stop stop-color="#4172DA"/>
<stop offset="0.82" stop-color="#8BECEF"/>
</linearGradient>
<linearGradient id="paint1_linear_453_2480" x1="6.77404" y1="147.797" x2="29.2467" y2="112.486" gradientUnits="userSpaceOnUse">
<stop stop-color="#4172DA"/>
<stop offset="0.82" stop-color="#8BECEF"/>
</linearGradient>
<linearGradient id="paint2_linear_453_2480" x1="63.4964" y1="203.862" x2="63.4964" y2="-15.3875" gradientUnits="userSpaceOnUse">
<stop stop-color="#3C0289"/>
<stop offset="0.49" stop-color="#4172DA"/>
<stop offset="0.94" stop-color="#80C3FF"/>
</linearGradient>
<linearGradient id="paint3_linear_453_2480" x1="82.6524" y1="20.0505" x2="131.27" y2="53.2632" gradientUnits="userSpaceOnUse">
<stop stop-color="#EFC0D5"/>
<stop offset="1" stop-color="#C74ECE"/>
</linearGradient>
<linearGradient id="paint4_linear_453_2480" x1="75.852" y1="15.4357" x2="138.041" y2="57.9197" gradientUnits="userSpaceOnUse">
<stop stop-color="#EFC0D5"/>
<stop offset="1" stop-color="#C74ECE"/>
</linearGradient>
</defs>
</svg>
