<svg width="108" height="140" viewBox="0 0 108 140" fill="none" xmlns="http://www.w3.org/2000/svg">
<g opacity="0.1">
<path fill-rule="evenodd" clip-rule="evenodd" d="M6.88713 61.4182C5.34651 56.5736 8.00931 51.4047 12.8404 49.8598C17.6715 48.3149 22.8259 50.9851 24.3665 55.8297C25.9071 60.6743 23.2443 65.8432 18.4132 67.3881C13.5822 68.933 8.42775 66.2628 6.88713 61.4182Z" fill="url(#paint0_linear_453_3049)"/>
<path d="M37.775 143.777C26.8765 132.981 20.4668 118.2 20.4668 102.14C20.4668 86.0802 26.8765 73.4919 38.0222 62.8299C32.7727 56.1543 30.0719 48.4296 30.0719 39.694C30.0719 25.6943 35.5877 13.3539 44.8124 4.4848C53.9039 -4.11725 65.8295 -9 78.6489 -9C91.4684 -9 103.508 -4.11725 112.6 4.4848C121.824 13.3539 127.34 25.6943 127.34 39.694C127.34 47.7811 124.772 55.2387 119.789 61.7999C131.448 72.4619 138.239 86.2137 138.239 102.14C138.239 118.066 131.829 132.848 120.93 143.777C110.032 154.572 95.0442 161 79.2956 161C63.5471 161 48.5403 154.572 37.775 143.777ZM88.5203 111.39C91.2021 108.949 92.4955 105.859 92.4955 102.14C92.4955 98.6686 91.2211 95.4643 88.5203 92.6223C85.8195 89.933 82.7572 88.636 79.2956 88.636C75.834 88.636 72.6386 90.0475 70.0709 92.7559C67.5032 95.5787 66.2289 98.6686 66.2289 102.14C66.2289 109.712 71.7447 115.11 79.2956 115.11C82.7572 115.11 85.8385 113.832 88.5203 111.39ZM88.254 36.1083C88.254 33.4189 87.3601 31.2255 85.4391 29.2991C83.518 27.3727 81.2166 26.4763 78.5158 26.4763C76.0812 26.4763 73.7798 27.5062 71.8588 29.4326C69.9378 31.359 68.9107 33.6669 68.9107 36.2418C68.9107 38.8167 69.9378 40.991 71.8588 42.803C73.7798 44.5959 76.0812 45.4923 78.5158 45.4923C83.7653 45.4923 88.254 41.258 88.254 36.1083Z" fill="url(#paint1_linear_453_3049)"/>
<path fill-rule="evenodd" clip-rule="evenodd" d="M86.5422 11.7895L89.5093 13.487L86.4852 15.0701L84.7924 18.0455L83.2137 15.0128L80.2656 13.3153L83.2708 11.7322L84.9635 8.77588L86.5422 11.7895Z" fill="white"/>
<path fill-rule="evenodd" clip-rule="evenodd" d="M99.8764 61.9522L101.988 63.1729L99.8193 64.3173L98.602 66.4344L97.4799 64.26L95.3496 63.0584L97.5179 61.914L98.7352 59.7778L99.8764 61.9522Z" fill="white"/>
<path fill-rule="evenodd" clip-rule="evenodd" d="M57.1566 62.8487L59.2679 64.0694L57.0996 65.2137L55.9013 67.35L54.7601 65.1756L52.6299 63.9549L54.7982 62.8105L56.0155 60.6743L57.1566 62.8487Z" fill="white"/>
<path d="M42.7592 51.4432C43.6721 51.4432 43.6721 50.0127 42.7592 50.0127C41.8462 50.0127 41.8462 51.4432 42.7592 51.4432Z" fill="white"/>
<path d="M47.1903 29.2034C48.1033 29.2034 48.1033 27.7729 47.1903 27.7729C46.2774 27.7729 46.2774 29.2034 47.1903 29.2034Z" fill="white"/>
<path d="M105.526 50.8138C106.438 50.8138 106.438 49.3833 105.526 49.3833C104.613 49.3833 104.613 50.8138 105.526 50.8138Z" fill="white"/>
<path d="M48.4647 80.0526C49.3777 80.0526 49.3777 78.6221 48.4647 78.6221C47.5518 78.6221 47.5518 80.0526 48.4647 80.0526Z" fill="white"/>
<path d="M35.7785 106.756C36.6914 106.756 36.6914 105.325 35.7785 105.325C34.8655 105.325 34.8655 106.756 35.7785 106.756Z" fill="white"/>
<path d="M61.1513 22.8331C62.0642 22.8331 62.0642 21.4026 61.1513 21.4026C60.2383 21.4026 60.2383 22.8331 61.1513 22.8331Z" fill="white"/>
<path d="M49.0922 14.5745C50.0051 14.5745 50.0051 13.144 49.0922 13.144C48.1792 13.144 48.1792 14.5745 49.0922 14.5745Z" fill="white"/>
<path d="M89.6811 6.31575C90.594 6.31575 90.594 4.88525 89.6811 4.88525C88.7681 4.88525 88.7681 6.31575 89.6811 6.31575Z" fill="white"/>
<path d="M96.6418 26.6478C97.5547 26.6478 97.5547 25.2173 96.6418 25.2173C95.7288 25.2173 95.7288 26.6478 96.6418 26.6478Z" fill="white"/>
<path d="M82.7003 73.7015C83.6133 73.7015 83.6133 72.271 82.7003 72.271C81.7874 72.271 81.7874 73.7015 82.7003 73.7015Z" fill="white"/>
<path d="M101.093 140.458C102.006 140.458 102.006 139.027 101.093 139.027C100.18 139.027 100.18 140.458 101.093 140.458Z" fill="white"/>
<path d="M66.2104 129.643C67.1233 129.643 67.1233 128.213 66.2104 128.213C65.2974 128.213 65.2974 129.643 66.2104 129.643Z" fill="white"/>
<path d="M43.3869 129.643C44.2998 129.643 44.2998 128.213 43.3869 128.213C42.4739 128.213 42.4739 129.643 43.3869 129.643Z" fill="white"/>
<path d="M59.2492 46.369C60.1621 46.369 60.1621 44.9385 59.2492 44.9385C58.3362 44.9385 58.3362 46.369 59.2492 46.369Z" fill="white"/>
<path d="M63.6808 5.03767C64.5938 5.03767 64.5938 3.60718 63.6808 3.60718C62.7679 3.60718 62.7679 5.03767 63.6808 5.03767Z" fill="white"/>
<mask id="mask0_453_3049" style="mask-type:luminance" maskUnits="userSpaceOnUse" x="20" y="-9" width="119" height="170">
<path d="M37.775 143.777C26.8765 132.981 20.4668 118.2 20.4668 102.14C20.4668 86.0802 26.8765 73.4919 38.0222 62.8299C32.7727 56.1543 30.0719 48.4296 30.0719 39.694C30.0719 25.6943 35.5877 13.3539 44.8124 4.4848C53.9039 -4.11725 65.8295 -9 78.6489 -9C91.4684 -9 103.508 -4.11725 112.6 4.4848C121.824 13.3539 127.34 25.6943 127.34 39.694C127.34 47.7811 124.772 55.2387 119.789 61.7999C131.448 72.4619 138.239 86.2137 138.239 102.14C138.239 118.066 131.829 132.848 120.93 143.777C110.032 154.572 95.0442 161 79.2956 161C63.5471 161 48.5403 154.572 37.775 143.777ZM88.5203 111.39C91.2021 108.949 92.4955 105.859 92.4955 102.14C92.4955 98.6686 91.2211 95.4643 88.5203 92.6223C85.8195 89.933 82.7572 88.636 79.2956 88.636C75.834 88.636 72.6386 90.0475 70.0709 92.7559C67.5032 95.5787 66.2289 98.6686 66.2289 102.14C66.2289 109.712 71.7447 115.11 79.2956 115.11C82.7572 115.11 85.8385 113.832 88.5203 111.39ZM88.254 36.1083C88.254 33.4189 87.3601 31.2255 85.4391 29.2991C83.518 27.3727 81.2166 26.4763 78.5158 26.4763C76.0812 26.4763 73.7798 27.5062 71.8588 29.4326C69.9378 31.359 68.9107 33.6669 68.9107 36.2418C68.9107 38.8167 69.9378 40.991 71.8588 42.803C73.7798 44.5959 76.0812 45.4923 78.5158 45.4923C83.7653 45.4923 88.254 41.258 88.254 36.1083Z" fill="white"/>
</mask>
<g mask="url(#mask0_453_3049)">
<path opacity="0.2" d="M210.991 140.343C214.186 129.128 216.107 117.055 211.143 106.031C208.632 100.442 204.296 95.7883 198.628 93.5186C186.569 88.7121 175.252 96.6275 165.723 104.066C151.439 115.224 136.927 126.611 126.637 141.545C120.912 149.88 116.48 159.321 107.465 164.814C104.155 166.836 99.8188 166.588 96.9278 163.975C92.1728 159.703 95.0638 153.256 98.088 148.469C114.692 122.128 135.424 98.6302 152.428 72.5762C169.451 46.5221 182.936 16.7106 182.404 -14.4361C182.08 -33.7382 175.594 -53.8605 160.854 -66.2963C154.254 -71.8657 146.323 -75.6231 138.315 -78.8465C125.591 -83.9581 112.125 -87.9063 98.4684 -87.3913C73.2099 -86.4376 50.9565 -70.6259 31.3469 -54.9668C9.94938 -37.8962 -10.3259 -19.4333 -29.2508 0.364777C-42.6409 14.3646 -55.4033 29.2226 -64.2666 46.4458C-73.3201 64.0313 -78.0371 84.4397 -74.138 103.837C-73.0348 109.33 -70.9616 115.09 -66.3207 118.238C-62.745 120.66 -58.1992 121.137 -53.9007 120.793C-37.03 119.439 -23.3546 107.118 -11.0677 95.4641C2.03706 83.0283 15.1418 70.5735 28.2656 58.1377C50.1766 37.3288 73.2669 15.8332 102.234 7.36467C105.981 6.25842 110.014 5.40012 113.779 6.50637C120.836 8.60443 124.221 16.9204 124.164 24.3017C124.088 36.2034 117.641 47.3232 109.253 55.7535C100.846 64.1648 90.537 70.3446 80.5516 76.7914C67.9033 84.9547 55.6164 93.6712 43.7289 102.922C37.0719 108.11 30.4719 113.526 25.5458 120.393C21.3233 126.286 18.4323 134.564 24.0051 140.42C26.3256 142.88 29.6541 144.101 33.0206 144.196C40.3623 144.406 46.4297 140.248 51.9645 135.938C73.0387 119.554 90.8604 99.1643 112.638 83.734C114.236 82.6087 116.252 81.4452 118.04 82.2654C119.314 82.8566 119.999 84.2681 120.379 85.6413C123.556 97.2379 112.638 107.309 104.003 115.644C91.3169 127.87 81.3314 142.899 74.9407 159.34C70.9084 169.716 69.539 184.212 81.1031 188.503C84.9642 189.934 89.2437 189.667 93.0667 188.103C111.326 180.702 123.613 164.662 139.076 152.989C141.549 151.12 144.097 149.365 146.703 147.706C154.615 142.67 163.631 152.36 158.153 159.97C138.791 186.863 113.247 209.789 93.2759 236.53C91.6973 238.628 91.1267 241.413 91.9826 243.892C93.9416 249.538 101.226 248.565 106.362 246.62C155.795 227.966 196.212 192.356 211.048 140.343H210.991Z" fill="white"/>
<path fill-rule="evenodd" clip-rule="evenodd" d="M130.498 175.973C130.631 144.311 108.282 116.064 76.1574 109.903C44.0327 103.742 12.8779 121.767 1.37085 151.235L130.498 175.973Z" fill="url(#paint2_linear_453_3049)"/>
<path fill-rule="evenodd" clip-rule="evenodd" d="M20.8664 126.268L9.03601 141.126C6.69655 139.257 6.31615 135.842 8.18011 133.496L13.2584 127.126C15.1224 124.78 18.527 124.398 20.8664 126.268Z" fill="url(#paint3_linear_453_3049)"/>
<path fill-rule="evenodd" clip-rule="evenodd" d="M53.0298 111.486L35.113 117.742C34.1239 114.9 35.6265 111.81 38.4415 110.819L46.1256 108.148C48.9595 107.156 52.0408 108.663 53.0298 111.486Z" fill="url(#paint4_linear_453_3049)"/>
<path fill-rule="evenodd" clip-rule="evenodd" d="M118.896 141.564L106.19 127.45C108.416 125.447 111.839 125.619 113.836 127.831L119.276 133.878C121.273 136.109 121.102 139.542 118.896 141.545V141.564Z" fill="url(#paint5_linear_453_3049)"/>
<path fill-rule="evenodd" clip-rule="evenodd" d="M89.2053 114.824L70.5847 111.257C71.1553 108.301 73.9893 106.374 76.9184 106.947L84.9068 108.472C87.8549 109.045 89.7759 111.887 89.2053 114.824Z" fill="url(#paint6_linear_453_3049)"/>
<path fill-rule="evenodd" clip-rule="evenodd" d="M51.6972 122.758C52.4199 125.276 48.4257 128.652 42.7578 130.292C37.0898 131.932 31.9164 131.207 31.1936 128.69C30.4709 126.172 34.4651 122.796 40.133 121.156C45.801 119.516 50.9744 120.24 51.6972 122.758Z" fill="white"/>
<path fill-rule="evenodd" clip-rule="evenodd" d="M40.4183 123.273C45.5347 121.785 50.2326 122.243 51.6401 124.188C51.8113 123.693 51.8303 123.197 51.6972 122.739C50.9744 120.221 45.801 119.496 40.133 121.137C34.4651 122.777 30.4709 126.153 31.1936 128.671C31.2697 128.919 31.3838 129.128 31.536 129.338C32.2778 127.088 35.7774 124.589 40.3993 123.254L40.4183 123.273Z" fill="#4172DA"/>
<path fill-rule="evenodd" clip-rule="evenodd" d="M113.284 142.747C112.086 144.044 108.776 142.9 105.866 140.211C102.975 137.521 101.587 134.279 102.785 132.982C103.983 131.685 107.293 132.829 110.203 135.519C113.094 138.208 114.482 141.45 113.284 142.747Z" fill="white"/>
<path fill-rule="evenodd" clip-rule="evenodd" d="M109.08 136.434C111.705 138.876 113.074 141.737 112.428 143.224C112.77 143.148 113.055 142.995 113.284 142.747C114.482 141.45 113.093 138.227 110.202 135.519C107.311 132.829 103.983 131.685 102.785 132.982C102.67 133.115 102.575 133.249 102.518 133.421C104.059 133.058 106.703 134.222 109.08 136.434Z" fill="#4172DA"/>
</g>
<path d="M86.505 57.8131C87.418 57.8131 87.418 56.3826 86.505 56.3826C85.5921 56.3826 85.5921 57.8131 86.505 57.8131Z" fill="white"/>
<path d="M71.2892 60.9796C72.2022 60.9796 72.2022 59.5491 71.2892 59.5491C70.3763 59.5491 70.3763 60.9796 71.2892 60.9796Z" fill="white"/>
<mask id="mask1_453_3049" style="mask-type:luminance" maskUnits="userSpaceOnUse" x="20" y="-9" width="119" height="170">
<path d="M37.775 143.777C26.8765 132.981 20.4668 118.2 20.4668 102.14C20.4668 86.0802 26.8765 73.4919 38.0222 62.8299C32.7727 56.1543 30.0719 48.4296 30.0719 39.694C30.0719 25.6943 35.5877 13.3539 44.8124 4.4848C53.9039 -4.11725 65.8295 -9 78.6489 -9C91.4684 -9 103.508 -4.11725 112.6 4.4848C121.824 13.3539 127.34 25.6943 127.34 39.694C127.34 47.7811 124.772 55.2387 119.789 61.7999C131.448 72.4619 138.239 86.2137 138.239 102.14C138.239 118.066 131.829 132.848 120.93 143.777C110.032 154.572 95.0442 161 79.2956 161C63.5471 161 48.5403 154.572 37.775 143.777ZM88.5203 111.39C91.2021 108.949 92.4955 105.859 92.4955 102.14C92.4955 98.6686 91.2211 95.4643 88.5203 92.6223C85.8195 89.933 82.7572 88.636 79.2956 88.636C75.834 88.636 72.6386 90.0475 70.0709 92.7559C67.5032 95.5787 66.2289 98.6686 66.2289 102.14C66.2289 109.712 71.7447 115.11 79.2956 115.11C82.7572 115.11 85.8385 113.832 88.5203 111.39ZM88.254 36.1083C88.254 33.4189 87.3601 31.2255 85.4391 29.2991C83.518 27.3727 81.2166 26.4763 78.5158 26.4763C76.0812 26.4763 73.7798 27.5062 71.8588 29.4326C69.9378 31.359 68.9107 33.6669 68.9107 36.2418C68.9107 38.8167 69.9378 40.991 71.8588 42.803C73.7798 44.5959 76.0812 45.4923 78.5158 45.4923C83.7653 45.4923 88.254 41.258 88.254 36.1083Z" fill="white"/>
</mask>
<g mask="url(#mask1_453_3049)">
<path fill-rule="evenodd" clip-rule="evenodd" d="M130.497 175.973C130.63 144.311 108.281 116.064 76.1567 109.903C44.0319 103.742 12.8772 121.767 1.37012 151.235L130.497 175.973Z" fill="url(#paint7_linear_453_3049)"/>
<path fill-rule="evenodd" clip-rule="evenodd" d="M20.8657 126.268L9.03528 141.126C6.69582 139.257 6.31542 135.842 8.17938 133.496L13.2577 127.126C15.1217 124.78 18.5263 124.398 20.8657 126.268Z" fill="url(#paint8_linear_453_3049)"/>
<path fill-rule="evenodd" clip-rule="evenodd" d="M53.0291 111.486L35.1122 117.742C34.1232 114.9 35.6258 111.81 38.4407 110.819L46.1248 108.148C48.9588 107.156 52.04 108.663 53.0291 111.486Z" fill="url(#paint9_linear_453_3049)"/>
<path fill-rule="evenodd" clip-rule="evenodd" d="M118.895 141.564L106.189 127.45C108.415 125.447 111.838 125.619 113.835 127.831L119.275 133.878C121.272 136.109 121.101 139.542 118.895 141.545V141.564Z" fill="url(#paint10_linear_453_3049)"/>
<path fill-rule="evenodd" clip-rule="evenodd" d="M89.2046 114.824L70.584 111.257C71.1546 108.301 73.9886 106.374 76.9176 106.947L84.906 108.472C87.8541 109.045 89.7752 111.887 89.2046 114.824Z" fill="url(#paint11_linear_453_3049)"/>
<path fill-rule="evenodd" clip-rule="evenodd" d="M51.6964 122.758C52.4192 125.276 48.425 128.652 42.757 130.292C37.0891 131.932 31.9156 131.207 31.1929 128.69C30.4701 126.172 34.4643 122.796 40.1323 121.156C45.8002 119.516 50.9737 120.24 51.6964 122.758Z" fill="white"/>
<path fill-rule="evenodd" clip-rule="evenodd" d="M40.4176 123.273C45.5339 121.785 50.2319 122.243 51.6394 124.188C51.8105 123.693 51.8296 123.197 51.6964 122.739C50.9737 120.221 45.8002 119.496 40.1323 121.137C34.4643 122.777 30.4701 126.153 31.1929 128.671C31.269 128.919 31.3831 129.128 31.5352 129.338C32.277 127.088 35.7767 124.589 40.3986 123.254L40.4176 123.273Z" fill="#4172DA"/>
<path fill-rule="evenodd" clip-rule="evenodd" d="M113.283 142.747C112.085 144.044 108.776 142.9 105.866 140.211C102.975 137.521 101.586 134.279 102.784 132.982C103.983 131.685 107.292 132.829 110.202 135.519C113.093 138.208 114.482 141.45 113.283 142.747Z" fill="white"/>
<path fill-rule="evenodd" clip-rule="evenodd" d="M109.079 136.434C111.704 138.876 113.074 141.737 112.427 143.224C112.769 143.148 113.055 142.995 113.283 142.747C114.481 141.45 113.093 138.227 110.202 135.519C107.311 132.829 103.982 131.685 102.784 132.982C102.67 133.115 102.575 133.249 102.518 133.421C104.058 133.058 106.702 134.222 109.079 136.434Z" fill="#4172DA"/>
</g>
<path d="M57.3842 17.0348C56.1479 26.0183 47.8742 32.3125 38.9158 31.0728C29.9574 29.833 23.6808 21.5361 24.9171 12.5526C26.1534 3.56912 34.4271 -2.72505 43.3855 -1.48529C52.3439 -0.245531 58.6205 8.05134 57.3842 17.0348Z" fill="url(#paint12_linear_453_3049)"/>
<path opacity="0.7" d="M57.1942 11.5036C57.3083 12.0758 57.4034 12.648 57.4605 13.2202C63.8702 15.2229 67.9214 17.5689 67.6361 19.5716C67.1797 22.8903 54.8928 23.9394 40.2093 21.9176C25.5259 19.8767 13.9808 15.5471 14.4373 12.2093C14.7035 10.2447 19.1542 9.08128 25.7732 8.87147C25.9824 8.31835 26.2106 7.80337 26.4579 7.28839C16.1491 7.1358 8.92146 8.60444 8.54106 11.4082C7.98948 15.4708 22.0643 20.7732 40.0191 23.2527C57.955 25.7322 72.9617 24.4543 73.5133 20.3917C73.8937 17.5689 67.2557 14.1738 57.1752 11.5227L57.1942 11.5036Z" fill="#8BECEF"/>
<path opacity="0.6" d="M57.4415 13.1629C57.4986 13.6779 57.5176 14.1929 57.5176 14.727C61.0363 16.1193 63.1285 17.607 62.9383 18.904C62.5579 21.6505 52.4393 22.5088 40.3426 20.8304C28.2459 19.1519 18.7359 15.5662 19.1163 12.8387C19.2874 11.5417 21.6459 10.6834 25.3168 10.2829C25.4499 9.7679 25.6021 9.272 25.7733 8.79517C19.0402 8.9859 14.5134 10.1684 14.2472 12.1521C13.7907 15.509 25.3929 19.8767 40.1714 21.9176C54.9499 23.9584 67.3129 22.9094 67.7694 19.5525C68.0547 17.5307 63.9273 15.1656 57.4035 13.1248L57.4415 13.1629Z" fill="#8BECEF"/>
<g opacity="0.2">
<path fill-rule="evenodd" clip-rule="evenodd" d="M1.02881 63.2878C-1.53889 55.2007 2.91179 46.5606 10.9572 43.9857C19.0217 41.4108 27.6378 45.8739 30.2055 53.9419C32.7732 62.029 28.3225 70.6692 20.277 73.2441C12.2126 75.8189 3.59651 71.3558 1.02881 63.2878Z" fill="url(#paint13_linear_453_3049)"/>
</g>
<path opacity="0.2" d="M62.6925 17.7785C61.0567 29.7184 50.0822 38.0534 38.1757 36.394C26.2692 34.7537 17.9575 23.7485 19.6122 11.8086C21.2479 -0.131256 32.2224 -8.46627 44.129 -6.80689C56.0355 -5.16659 64.3472 5.83868 62.6925 17.7785Z" fill="url(#paint14_linear_453_3049)"/>
</g>
<defs>
<linearGradient id="paint0_linear_453_3049" x1="8.71305" y1="69.4862" x2="18.4327" y2="54.3094" gradientUnits="userSpaceOnUse">
<stop stop-color="#4172DA"/>
<stop offset="0.82" stop-color="#8BECEF"/>
</linearGradient>
<linearGradient id="paint1_linear_453_3049" x1="72.962" y1="-70.2252" x2="81.5689" y2="160.56" gradientUnits="userSpaceOnUse">
<stop stop-color="#0C0F6C"/>
<stop offset="0.59" stop-color="#3C0289"/>
<stop offset="1" stop-color="#8B46AB"/>
</linearGradient>
<linearGradient id="paint2_linear_453_3049" x1="39.0038" y1="200.962" x2="108.872" y2="100.607" gradientUnits="userSpaceOnUse">
<stop stop-color="#4172DA"/>
<stop offset="0.82" stop-color="#8BECEF"/>
</linearGradient>
<linearGradient id="paint3_linear_453_3049" x1="-10.7158" y1="166.354" x2="59.1521" y2="65.9985" gradientUnits="userSpaceOnUse">
<stop stop-color="#4172DA"/>
<stop offset="0.82" stop-color="#8BECEF"/>
</linearGradient>
<linearGradient id="paint4_linear_453_3049" x1="1.18546" y1="174.633" x2="71.0533" y2="74.2775" gradientUnits="userSpaceOnUse">
<stop stop-color="#4172DA"/>
<stop offset="0.82" stop-color="#8BECEF"/>
</linearGradient>
<linearGradient id="paint5_linear_453_3049" x1="57.6564" y1="213.951" x2="127.524" y2="113.595" gradientUnits="userSpaceOnUse">
<stop stop-color="#4172DA"/>
<stop offset="0.82" stop-color="#8BECEF"/>
</linearGradient>
<linearGradient id="paint6_linear_453_3049" x1="25.343" y1="191.453" x2="95.2108" y2="91.0975" gradientUnits="userSpaceOnUse">
<stop stop-color="#4172DA"/>
<stop offset="0.82" stop-color="#8BECEF"/>
</linearGradient>
<linearGradient id="paint7_linear_453_3049" x1="39.0031" y1="200.962" x2="108.871" y2="100.607" gradientUnits="userSpaceOnUse">
<stop stop-color="#4172DA"/>
<stop offset="0.82" stop-color="#8BECEF"/>
</linearGradient>
<linearGradient id="paint8_linear_453_3049" x1="-10.7166" y1="166.354" x2="59.1513" y2="65.9985" gradientUnits="userSpaceOnUse">
<stop stop-color="#4172DA"/>
<stop offset="0.82" stop-color="#8BECEF"/>
</linearGradient>
<linearGradient id="paint9_linear_453_3049" x1="1.18473" y1="174.633" x2="71.0526" y2="74.2775" gradientUnits="userSpaceOnUse">
<stop stop-color="#4172DA"/>
<stop offset="0.82" stop-color="#8BECEF"/>
</linearGradient>
<linearGradient id="paint10_linear_453_3049" x1="57.6557" y1="213.951" x2="127.524" y2="113.595" gradientUnits="userSpaceOnUse">
<stop stop-color="#4172DA"/>
<stop offset="0.82" stop-color="#8BECEF"/>
</linearGradient>
<linearGradient id="paint11_linear_453_3049" x1="25.3423" y1="191.453" x2="95.2101" y2="91.0975" gradientUnits="userSpaceOnUse">
<stop stop-color="#4172DA"/>
<stop offset="0.82" stop-color="#8BECEF"/>
</linearGradient>
<linearGradient id="paint12_linear_453_3049" x1="32.8961" y1="55.5016" x2="45.0435" y2="-4.09268" gradientUnits="userSpaceOnUse">
<stop offset="0.13" stop-color="#C74ECE"/>
<stop offset="1" stop-color="#EFC0D5"/>
</linearGradient>
<linearGradient id="paint13_linear_453_3049" x1="4.09103" y1="76.7535" x2="20.3032" y2="51.4272" gradientUnits="userSpaceOnUse">
<stop stop-color="#4172DA"/>
<stop offset="0.82" stop-color="#8BECEF"/>
</linearGradient>
<linearGradient id="paint14_linear_453_3049" x1="30.1881" y1="68.8183" x2="46.3089" y2="-10.256" gradientUnits="userSpaceOnUse">
<stop offset="0.13" stop-color="#C74ECE"/>
<stop offset="1" stop-color="#EFC0D5"/>
</linearGradient>
</defs>
</svg>
