<svg width="110" height="140" viewBox="0 0 110 140" fill="none" xmlns="http://www.w3.org/2000/svg">
<g opacity="0.1">
<path d="M118.178 86.6198C119.273 74.2017 110.094 63.247 97.6757 62.1518C85.2575 61.0566 74.3028 70.2357 73.2076 82.6538C72.1124 95.072 81.2915 106.027 93.7097 107.122C106.128 108.217 117.083 99.038 118.178 86.6198Z" fill="url(#paint0_linear_453_3210)"/>
<g opacity="0.2">
<path fill-rule="evenodd" clip-rule="evenodd" d="M67.7367 93.5636C62.8108 78.1329 71.3175 61.6339 86.7482 56.7079C102.179 51.782 118.678 60.2887 123.604 75.7194C128.53 91.1501 120.023 107.649 104.592 112.575C89.1617 117.501 72.6627 108.994 67.7367 93.5636Z" fill="url(#paint1_linear_453_3210)"/>
</g>
<path d="M21.603 158.036C17.7453 153.902 15.6087 148.442 15.6087 142.586C15.6087 137.66 16.677 132.991 18.9323 128.599L66.5103 37.4395H24.5309C17.7255 37.4395 11.6126 34.9073 7.20099 30.6342C2.53222 26.3611 0 20.5053 0 13.9769C0 7.44856 2.78939 1.31585 7.20099 -3.07597C11.5928 -7.46778 17.7255 -10 24.5309 -10H105.957C112.486 -10 118.876 -7.21061 123.287 -2.79901C127.679 1.59281 130.488 8.00248 130.488 14.3924C130.488 19.3183 129.163 23.5914 126.631 27.1919L59.3291 152.339C54.6603 160.331 46.5295 165 38.003 165C31.079 165 25.4804 162.468 21.603 158.076V158.036Z" fill="url(#paint2_linear_453_3210)"/>
<path fill-rule="evenodd" clip-rule="evenodd" d="M44.3535 108.223L47.9144 110.26L44.2744 112.159L42.2367 115.72L40.3375 112.08L36.7766 110.043L40.4167 108.143L42.4543 104.583L44.3535 108.223Z" fill="white"/>
<path fill-rule="evenodd" clip-rule="evenodd" d="M85.3638 75.5612L87.5597 76.8075L85.3243 77.9747L84.0779 80.1706L82.9107 77.9351L80.7148 76.669L82.9503 75.5018L84.1966 73.3257L85.3638 75.5612Z" fill="white"/>
<path fill-rule="evenodd" clip-rule="evenodd" d="M59.2496 11.2665L61.4455 12.5128L59.21 13.68L57.9637 15.8759L56.7965 13.6404L54.6006 12.3941L56.8361 11.2269L58.0824 9.03101L59.2496 11.2665Z" fill="white"/>
<path d="M44.8684 21.099C45.818 21.099 45.818 19.6152 44.8684 19.6152C43.9189 19.6152 43.9189 21.099 44.8684 21.099Z" fill="white"/>
<path d="M101.487 18.6456C102.436 18.6456 102.436 17.1619 101.487 17.1619C100.537 17.1619 100.537 18.6456 101.487 18.6456Z" fill="white"/>
<path d="M105.581 1.41439C106.531 1.41439 106.531 -0.0693359 105.581 -0.0693359C104.632 -0.0693359 104.632 1.41439 105.581 1.41439Z" fill="white"/>
<path d="M21.0689 3.05672C22.0185 3.05672 22.0185 1.573 21.0689 1.573C20.1193 1.573 20.1193 3.05672 21.0689 3.05672Z" fill="white"/>
<path d="M81.7827 51.4652C82.7323 51.4652 82.7323 49.9814 81.7827 49.9814C80.8332 49.9814 80.8332 51.4652 81.7827 51.4652Z" fill="white"/>
<path d="M77.6878 10.4354C78.6374 10.4354 78.6374 8.95166 77.6878 8.95166C76.7382 8.95166 76.7382 10.4354 77.6878 10.4354Z" fill="white"/>
<path d="M68.6673 104.8C69.6168 104.8 69.6168 103.316 68.6673 103.316C67.7177 103.316 67.7177 104.8 68.6673 104.8Z" fill="white"/>
<path d="M43.3843 131.646C44.3339 131.646 44.3339 130.162 43.3843 130.162C42.4347 130.162 42.4347 131.646 43.3843 131.646Z" fill="white"/>
<path d="M29.5364 130.162C30.486 130.162 30.486 128.678 29.5364 128.678C28.5868 128.678 28.5868 130.162 29.5364 130.162Z" fill="white"/>
<path d="M40.7725 110.537C41.7221 110.537 41.7221 109.054 40.7725 109.054C39.8229 109.054 39.8229 110.537 40.7725 110.537Z" fill="white"/>
<path d="M42.4143 91.6641C43.3639 91.6641 43.3639 90.1804 42.4143 90.1804C41.4648 90.1804 41.4648 91.6641 42.4143 91.6641Z" fill="white"/>
<path d="M85.898 94.1373C86.8476 94.1373 86.8476 92.6536 85.898 92.6536C84.9484 92.6536 84.9484 94.1373 85.898 94.1373Z" fill="white"/>
<path d="M62.9095 126.938C63.859 126.938 63.859 125.454 62.9095 125.454C61.9599 125.454 61.9599 126.938 62.9095 126.938Z" fill="white"/>
<path d="M59.6262 82.6431C60.5758 82.6431 60.5758 81.1594 59.6262 81.1594C58.6767 81.1594 58.6767 82.6431 59.6262 82.6431Z" fill="white"/>
<mask id="mask0_453_3210" style="mask-type:luminance" maskUnits="userSpaceOnUse" x="0" y="-10" width="131" height="175">
<path d="M21.603 158.036C17.7453 153.902 15.6087 148.442 15.6087 142.586C15.6087 137.66 16.677 132.991 18.9323 128.599L66.5103 37.4395H24.5309C17.7255 37.4395 11.6126 34.9073 7.20099 30.6342C2.53222 26.3611 0 20.5053 0 13.9769C0 7.44856 2.78939 1.31585 7.20099 -3.07597C11.5928 -7.46778 17.7255 -10 24.5309 -10H105.957C112.486 -10 118.876 -7.21061 123.287 -2.79901C127.679 1.59281 130.488 8.00248 130.488 14.3924C130.488 19.3183 129.163 23.5914 126.631 27.1919L59.3291 152.339C54.6603 160.331 46.5295 165 38.003 165C31.079 165 25.4804 162.468 21.603 158.076V158.036Z" fill="white"/>
</mask>
<g mask="url(#mask0_453_3210)">
<path opacity="0.2" d="M36.7172 -63.8296C26.5883 -57.2024 16.8749 -49.032 13.3139 -37.004C11.5137 -30.9108 11.7511 -24.3033 14.679 -18.6652C20.9106 -6.69649 35.1939 -5.19299 47.7165 -4.55993C66.5103 -3.59056 85.68 -2.64098 103.9 -7.38889C114.068 -10.02 123.96 -14.4316 134.781 -12.5918C138.758 -11.9192 142.002 -8.7737 142.516 -4.77754C143.347 1.81018 136.7 4.89632 131.082 6.59766C100.161 15.9748 67.9149 20.3072 36.8359 29.17C5.75685 38.0328 -25.065 52.2369 -45.7777 77.0448C-58.5971 92.4359 -67.1631 112.614 -63.9781 132.397C-62.5537 141.26 -58.8741 149.609 -54.779 157.581C-48.2506 170.222 -40.3374 182.488 -29.2392 191.39C-8.72427 207.83 19.506 210.56 45.5602 211.608C73.9883 212.776 102.456 212.063 130.785 209.412C150.805 207.533 170.945 204.566 189.6 197.088C208.651 189.451 226.218 176.652 236.288 158.768C239.136 153.704 241.411 147.769 239.908 142.17C238.741 137.838 235.476 134.376 231.876 131.725C217.692 121.319 198.561 121.675 180.994 122.466L124.732 124.999C93.3755 126.403 60.6348 127.57 32.088 114.514C28.3885 112.812 24.6298 110.755 22.4339 107.332C18.2992 100.883 21.2865 92.06 26.3311 86.3032C34.4817 77.025 47.0834 72.6727 59.4082 71.7825C71.733 70.8922 84.038 73.0684 96.2638 74.8093C111.754 77.0052 127.343 78.5285 142.952 79.3396C151.696 79.7946 160.578 80.032 169.105 77.9943C176.424 76.2336 184.318 71.7034 183.922 63.3352C183.744 59.8336 181.983 56.609 179.392 54.235C173.754 49.0717 166.177 48.221 158.897 47.8253C131.201 46.3416 103.346 50.2191 75.7489 47.5088C73.7311 47.311 71.3571 46.8362 70.5065 44.9964C69.8932 43.6709 70.3284 42.0883 70.9615 40.7628C76.3424 29.5063 91.7533 29.0315 104.217 28.3589C122.496 27.3895 140.538 22.4042 156.721 13.858C166.929 8.47704 177.849 -1.96836 171.657 -13.2051C169.599 -16.9638 166.038 -19.6543 161.983 -21.0391C142.596 -27.6466 122.041 -23.4329 101.961 -24.7979C98.7565 -25.0155 95.5517 -25.3716 92.3666 -25.8464C82.7323 -27.2708 82.1982 -41.0001 91.694 -43.2554C125.187 -51.1883 160.816 -51.7818 194.664 -59.1807C197.335 -59.7544 199.669 -61.5348 200.678 -64.067C202.973 -69.8239 196.583 -74.0179 191.222 -75.9962C139.628 -94.9878 83.6621 -94.5526 36.7172 -63.8296Z" fill="white"/>
</g>
<path d="M102.297 52.2764C103.247 52.2764 103.247 50.7927 102.297 50.7927C101.348 50.7927 101.348 52.2764 102.297 52.2764Z" fill="white"/>
<mask id="mask1_453_3210" style="mask-type:luminance" maskUnits="userSpaceOnUse" x="0" y="-10" width="131" height="175">
<path d="M21.603 158.036C17.7453 153.902 15.6087 148.442 15.6087 142.586C15.6087 137.66 16.677 132.991 18.9323 128.599L66.5103 37.4395H24.5309C17.7255 37.4395 11.6126 34.9073 7.20099 30.6342C2.53222 26.3611 0 20.5053 0 13.9769C0 7.44856 2.78939 1.31585 7.20099 -3.07597C11.5928 -7.46778 17.7255 -10 24.5309 -10H105.957C112.486 -10 118.876 -7.21061 123.287 -2.79901C127.679 1.59281 130.488 8.00248 130.488 14.3924C130.488 19.3183 129.163 23.5914 126.631 27.1919L59.3291 152.339C54.6603 160.331 46.5295 165 38.003 165C31.079 165 25.4804 162.468 21.603 158.076V158.036Z" fill="white"/>
</mask>
<g mask="url(#mask1_453_3210)">
<path d="M46.107 132.092C55.769 109.689 45.4407 83.6956 23.0381 74.0336C0.635452 64.3716 -25.3581 74.6999 -35.0201 97.1025C-44.6821 119.505 -34.3537 145.499 -11.9511 155.161C10.4515 164.823 36.445 154.494 46.107 132.092Z" fill="#EFC0D5"/>
<path d="M-21.7215 142.882C-41.366 142.882 -55.9263 137.501 -58.2211 127.907C-59.9026 120.923 -54.9965 112.832 -44.4126 105.137C-33.9474 97.5201 -19.1498 91.1698 -2.72991 87.2329C31.2968 79.0626 61.7625 84.0083 65.185 98.2718C66.8665 105.255 61.9604 113.346 51.3765 121.042C40.9113 128.658 26.1136 135.009 9.69379 138.946C-1.42422 141.616 -12.1862 142.882 -21.7215 142.882ZM28.9426 84.2457C19.427 84.2457 8.66507 85.5118 -2.49251 88.2023C-18.7937 92.1193 -33.4726 98.4103 -43.8389 105.948C-54.0864 113.386 -58.8541 121.121 -57.2715 127.689C-53.9678 141.418 -24.0361 146.028 9.45639 137.996C25.7575 134.079 40.4365 127.788 50.8028 120.251C61.0503 112.812 65.818 105.097 64.2354 98.5092C62.0395 89.3497 47.9936 84.2457 28.9426 84.2457Z" fill="white"/>
</g>
<path fill-rule="evenodd" clip-rule="evenodd" d="M105.819 34.1353C98.8948 38.4085 89.7946 36.2719 85.5215 29.3281C81.2484 22.404 83.3849 13.3039 90.3287 9.03077C97.2528 4.75765 106.353 6.89421 110.626 13.838C114.899 20.7621 112.763 29.8622 105.819 34.1353Z" fill="url(#paint3_linear_453_3210)"/>
<path d="M113.514 33.9374C112.031 33.9374 110.25 33.5417 108.707 33.0867C104.77 31.9393 99.9432 29.783 95.0766 26.9738C86.0951 21.8302 77.5291 14.649 79.3293 11.5431C80.1009 10.1978 82.4155 10.0396 86.2336 11.0485L85.9764 11.9981C82.8309 11.1672 80.6746 11.1672 80.18 12.0179C79.1117 13.8775 85.1653 20.1289 95.5711 26.1033C100.359 28.8532 105.126 30.9897 108.984 32.1173C113.158 33.3241 115.077 33.0076 115.493 32.2954C115.908 31.5832 115.216 29.7434 112.07 26.7562L112.743 26.044C114.958 28.141 117.372 31.0095 116.343 32.79C115.868 33.6209 114.8 33.9176 113.514 33.9176V33.9374Z" fill="white"/>
</g>
<defs>
<linearGradient id="paint0_linear_453_3210" x1="78.6816" y1="111.306" x2="102.48" y2="74.0147" gradientUnits="userSpaceOnUse">
<stop stop-color="#EFC0D5"/>
<stop offset="1" stop-color="#C74ECE"/>
</linearGradient>
<linearGradient id="paint1_linear_453_3210" x1="73.5727" y1="119.281" x2="104.493" y2="70.833" gradientUnits="userSpaceOnUse">
<stop stop-color="#EFC0D5"/>
<stop offset="1" stop-color="#C74ECE"/>
</linearGradient>
<linearGradient id="paint2_linear_453_3210" x1="71.1593" y1="133.723" x2="62.1185" y2="-49.2494" gradientUnits="userSpaceOnUse">
<stop stop-color="#3C0289"/>
<stop offset="0.49" stop-color="#4172DA"/>
<stop offset="0.94" stop-color="#80C3FF"/>
</linearGradient>
<linearGradient id="paint3_linear_453_3210" x1="100.794" y1="55.5603" x2="95.8482" y2="-5.76688" gradientUnits="userSpaceOnUse">
<stop stop-color="#4172DA"/>
<stop offset="0.82" stop-color="#8BECEF"/>
</linearGradient>
</defs>
</svg>
