<svg width="60" height="77" viewBox="0 0 60 77" fill="none" xmlns="http://www.w3.org/2000/svg">
<g clip-path="url(#clip0_453_2907)">
<path d="M33.1865 74.0124C31.2482 72.1365 30.0695 69.4529 30.0695 66.639V58.7444H12.5375C12.2407 58.7444 12.0049 58.7444 11.8303 58.6836L11.2453 58.5707C8.77444 58.1625 6.7139 56.9901 5.07246 55.062C3.42228 53.134 2.60156 50.9107 2.60156 48.4529C2.60156 46.5769 3.01192 44.8834 3.78026 43.4243L17.2436 6.49628C18.8938 2.51861 22.9537 0 27.2407 0C30.1219 0 32.5928 1.05087 34.7145 3.16129C36.5393 5.03722 37.5957 7.54715 37.5957 10.1265C37.5957 11.5335 37.2989 12.8797 36.6528 14.165L26.2977 37.7444H30.0608C30.2966 34.9913 31.5276 32.5943 33.4747 30.7792C35.5352 28.964 37.945 28.0261 40.7651 28.0261C43.3495 28.0261 45.9427 29.0248 47.8198 30.8313C49.7057 32.6464 50.8233 35.1042 50.998 37.8486C53.53 38.2568 55.6429 39.4293 57.4066 41.3573C59.048 43.2854 59.991 45.7432 59.991 48.2618C59.991 50.7804 59.048 53.2903 57.4066 55.1662C55.6429 57.2159 53.5212 58.3275 50.998 58.6141V66.6303C50.998 69.4355 49.8804 72.1278 47.9945 74.0037C46.1085 75.8796 43.5241 76.9913 40.704 76.9913C37.7005 76.9913 35.055 75.8796 33.1778 74.0037L33.1865 74.0124Z" fill="url(#paint0_linear_453_2907)"/>
<path d="M20.0465 9.86596C20.4656 9.86596 20.4656 9.2146 20.0465 9.2146C19.6274 9.2146 19.6274 9.86596 20.0465 9.86596Z" fill="white"/>
<path d="M26.4462 12.7668C26.8652 12.7668 26.8652 12.1155 26.4462 12.1155C26.0271 12.1155 26.0271 12.7668 26.4462 12.7668Z" fill="white"/>
<path d="M28.7772 6.97387C29.1963 6.97387 29.1963 6.32251 28.7772 6.32251C28.3581 6.32251 28.3581 6.97387 28.7772 6.97387Z" fill="white"/>
<path d="M24.7003 4.08178C25.1194 4.08178 25.1194 3.43042 24.7003 3.43042C24.2812 3.43042 24.2812 4.08178 24.7003 4.08178Z" fill="white"/>
<path d="M27.6073 22.6067C28.0264 22.6067 28.0264 21.9553 27.6073 21.9553C27.1882 21.9553 27.1882 22.6067 27.6073 22.6067Z" fill="white"/>
<path d="M19.4615 27.8176C19.8806 27.8176 19.8806 27.1663 19.4615 27.1663C19.0424 27.1663 19.0424 27.8176 19.4615 27.8176Z" fill="white"/>
<path d="M18.8766 20.2878C19.2957 20.2878 19.2957 19.6365 18.8766 19.6365C18.4575 19.6365 18.4575 20.2878 18.8766 20.2878Z" fill="white"/>
<path d="M7.23815 45.1873C7.65724 45.1873 7.65724 44.5359 7.23815 44.5359C6.81906 44.5359 6.81906 45.1873 7.23815 45.1873Z" fill="white"/>
<path d="M22.369 48.6614C22.7881 48.6614 22.7881 48.01 22.369 48.01C21.9499 48.01 21.9499 48.6614 22.369 48.6614Z" fill="white"/>
<path d="M13.6376 36.5024C14.0567 36.5024 14.0567 35.8511 13.6376 35.8511C13.2185 35.8511 13.2185 36.5024 13.6376 36.5024Z" fill="white"/>
<g opacity="0.2">
<path d="M56.2625 53.6115C53.1543 51.0842 49.0768 52.3435 45.5669 53.6289C40.3108 55.5569 34.9587 57.5371 30.532 60.9502C30.3749 61.0718 30.2177 61.2021 30.0605 61.3237V66.6388C30.0605 66.6388 30.0605 66.6562 30.0605 66.6649C31.0646 66.2306 32.0862 65.8137 33.1164 65.449C34.0245 65.1363 34.9412 64.8584 35.8667 64.6152C38.6694 63.877 40.4243 67.5507 38.0931 69.2703C36.2509 70.6252 34.33 71.8932 32.3743 73.1177C32.6275 73.4304 32.8894 73.7343 33.1775 74.0123C35.0635 75.8882 37.709 76.9999 40.7037 76.9999C43.5239 76.9999 46.117 75.8882 47.9942 74.0123C49.8801 72.1363 50.9977 69.4527 50.9977 66.6388V58.6227C53.5297 58.3274 55.6426 57.2157 57.4063 55.1748C57.45 55.1227 57.4849 55.0706 57.5285 55.0185C57.1706 54.4974 56.7515 54.0197 56.2538 53.6115H56.2625Z" fill="white"/>
<path d="M17.2439 6.49617L9.7002 27.1835C17.532 23.423 25.7217 19.6451 34.348 19.4106L36.653 14.1562C37.2991 12.8709 37.596 11.5247 37.596 10.1178C37.596 7.54704 36.5395 5.02843 34.7147 3.1525C32.5931 1.05076 30.1222 -0.00878906 27.2409 -0.00878906C22.9452 -0.00878906 18.8853 2.50982 17.2439 6.48749V6.49617Z" fill="white"/>
<path d="M40.7651 28.0259C40.5207 28.0259 40.2762 28.0432 40.0404 28.0606C38.626 30.7356 36.1464 32.8199 33.4223 34.2269C32.4793 34.7132 31.5014 35.1214 30.5148 35.4949C30.2966 36.2157 30.1394 36.9626 30.0695 37.7529H26.3065L26.7692 36.7021C25.5119 37.0581 24.2546 37.3795 22.9974 37.7182C18.5009 38.9254 14.0655 40.3323 9.6912 41.9303C7.41239 42.7641 5.12485 43.676 3.12543 45.0482C2.79365 46.1078 2.60156 47.2368 2.60156 48.4614C2.60156 50.1896 3.02065 51.7963 3.83265 53.2728C5.59632 53.5073 7.36 52.9688 9.02764 52.3609C16.7721 49.5296 23.9403 45.2219 31.807 42.7467C32.3833 42.5643 33.0905 42.4167 33.5358 42.8162C33.8588 43.1028 33.9287 43.5892 33.9112 44.0234C33.7628 47.7145 29.5981 49.6425 26.2715 51.2753C22.4299 53.1599 18.9287 55.7132 15.9427 58.7616H23.4165C30.2704 53.3162 37.7791 48.7132 44.5893 43.1983C46.807 41.4006 48.9549 39.4812 50.963 37.4316C50.7011 34.8609 49.6097 32.5681 47.8373 30.8571C45.9601 29.042 43.367 28.0519 40.7826 28.0519L40.7651 28.0259Z" fill="white"/>
</g>
<path d="M39.8309 50.3982C40.25 50.3982 40.25 49.7468 39.8309 49.7468C39.4118 49.7468 39.4118 50.3982 39.8309 50.3982Z" fill="white"/>
<path d="M41.0008 39.3945C41.4199 39.3945 41.4199 38.7432 41.0008 38.7432C40.5818 38.7432 40.5818 39.3945 41.0008 39.3945Z" fill="white"/>
<path d="M53.8006 47.5061C54.2197 47.5061 54.2197 46.8547 53.8006 46.8547C53.3816 46.8547 53.3816 47.5061 53.8006 47.5061Z" fill="white"/>
<path d="M39.255 65.4492C39.6741 65.4492 39.6741 64.7979 39.255 64.7979C38.8359 64.7979 38.8359 65.4492 39.255 65.4492Z" fill="white"/>
<path fill-rule="evenodd" clip-rule="evenodd" d="M22.1163 39.6725L23.4259 40.4107L22.0901 41.1055L21.3392 42.4083L20.6407 41.0795L19.3311 40.3413L20.6669 39.6465L21.4178 38.3438L22.1163 39.6725Z" fill="white"/>
<path fill-rule="evenodd" clip-rule="evenodd" d="M25.2324 15.6848L25.992 16.1191L25.215 16.5186L24.7872 17.2828L24.3768 16.5012L23.6172 16.0756L24.3943 15.6674L24.8308 14.9119L25.2324 15.6848Z" fill="white"/>
<path fill-rule="evenodd" clip-rule="evenodd" d="M45.1746 35.1563L45.9342 35.5905L45.1571 35.9987L44.7206 36.7543L44.3189 35.9813L43.5593 35.5471L44.3364 35.1476L44.7642 34.3833L45.1746 35.1563Z" fill="white"/>
<path fill-rule="evenodd" clip-rule="evenodd" d="M10.6435 51.3362L11.4031 51.7704L10.6261 52.1786L10.1895 52.9342L9.78787 52.1612L9.01953 51.727L9.7966 51.3275L10.2332 50.5632L10.6435 51.3362Z" fill="white"/>
<path fill-rule="evenodd" clip-rule="evenodd" d="M13.917 25.186L14.6766 25.6116L13.8995 26.0198L13.463 26.7754L13.0614 26.0024L12.3018 25.5682L13.0788 25.1687L13.5066 24.4131L13.917 25.186Z" fill="white"/>
<path fill-rule="evenodd" clip-rule="evenodd" d="M33.5361 7.72095L34.2957 8.15519L33.5186 8.56338L33.0821 9.31897L32.6717 8.54601L31.9121 8.11177L32.6892 7.71227L33.1257 6.948L33.5361 7.72095Z" fill="white"/>
<path d="M48.1343 50.5893C47.3573 53.7505 44.1442 55.696 40.9661 54.923C37.788 54.1501 35.8322 50.954 36.6093 47.7927C37.3864 44.6314 40.5994 42.686 43.7775 43.459C46.9556 44.2319 48.9114 47.428 48.1343 50.5893Z" fill="url(#paint1_linear_453_2907)"/>
<path opacity="0.7" d="M48.2654 48.6091C48.2828 48.8175 48.3003 49.0259 48.2916 49.2344C50.5267 50.1897 51.8975 51.1711 51.7229 51.8746C51.4348 53.047 46.9732 52.9689 41.7607 51.7009C36.5483 50.4329 32.5581 48.4614 32.8463 47.289C33.0209 46.5942 34.6623 46.3423 37.0459 46.516C37.142 46.325 37.238 46.1513 37.3515 45.9689C33.6495 45.5346 30.9953 45.7952 30.7508 46.7766C30.4016 48.2096 35.2735 50.624 41.6472 52.1699C48.0122 53.7158 53.4604 53.8113 53.8096 52.3783C54.0541 51.3882 51.784 49.9292 48.2566 48.6091H48.2654Z" fill="#F6E070"/>
<path opacity="0.6" d="M48.3 49.2084C48.3 49.3908 48.2913 49.5819 48.2738 49.7729C49.4875 50.3983 50.1859 51.0062 50.0724 51.4665C49.8367 52.4305 46.1609 52.3697 41.8652 51.3275C37.5695 50.2854 34.2779 48.6526 34.5137 47.6886C34.6272 47.237 35.5003 47.0112 36.8449 47.0112C36.9147 46.8375 36.9846 46.6638 37.0631 46.4988C34.6359 46.3251 32.9595 46.5769 32.7936 47.2804C32.5055 48.4615 36.5218 50.4504 41.7692 51.7184C47.0166 52.995 51.5043 53.0732 51.7925 51.8921C51.9671 51.1799 50.5701 50.1811 48.3 49.2171V49.2084Z" fill="#F2CC33"/>
<path fill-rule="evenodd" clip-rule="evenodd" d="M10.6257 5.00249C15.7159 3.34368 21.1903 6.11415 22.8579 11.1774C24.5256 16.2407 21.7404 21.6861 16.6501 23.3449C11.5599 25.0037 6.08553 22.2333 4.41789 17.17C2.75025 12.1067 5.53547 6.6613 10.6257 5.00249Z" fill="url(#paint2_linear_453_2907)"/>
<g opacity="0.2">
<path fill-rule="evenodd" clip-rule="evenodd" d="M9.40346 1.27663C16.5629 -1.05091 24.2638 2.83122 26.6037 9.95281C28.9436 17.0744 25.0408 24.7344 17.8813 27.062C10.7219 29.3895 3.02104 25.5074 0.681106 18.3858C-1.65882 11.2642 2.24397 3.60418 9.40346 1.27663Z" fill="url(#paint3_linear_453_2907)"/>
</g>
</g>
<defs>
<linearGradient id="paint0_linear_453_2907" x1="36.6091" y1="8.99752" x2="27.3983" y2="77.9161" gradientUnits="userSpaceOnUse">
<stop stop-color="#3C0289"/>
<stop offset="0.49" stop-color="#4172DA"/>
<stop offset="0.94" stop-color="#80C3FF"/>
</linearGradient>
<linearGradient id="paint1_linear_453_2907" x1="37.9015" y1="63.4255" x2="44.3868" y2="42.5622" gradientUnits="userSpaceOnUse">
<stop stop-color="#4172DA"/>
<stop offset="0.82" stop-color="#8BECEF"/>
</linearGradient>
<linearGradient id="paint2_linear_453_2907" x1="-1.44925" y1="23.0727" x2="22.9169" y2="8.54603" gradientUnits="userSpaceOnUse">
<stop offset="0.13" stop-color="#C74ECE"/>
<stop offset="1" stop-color="#EFC0D5"/>
</linearGradient>
<linearGradient id="paint3_linear_453_2907" x1="-7.57934" y1="26.6848" x2="26.6808" y2="6.2676" gradientUnits="userSpaceOnUse">
<stop offset="0.13" stop-color="#C74ECE"/>
<stop offset="1" stop-color="#EFC0D5"/>
</linearGradient>
<clipPath id="clip0_453_2907">
<rect width="60" height="77" fill="white"/>
</clipPath>
</defs>
</svg>
