<svg width="63" height="78" viewBox="0 0 63 78" fill="none" xmlns="http://www.w3.org/2000/svg">
<path d="M11.6834 73.8136C7.54952 71.2212 4.2477 67.5603 1.83045 62.901C0.595554 60.834 0 58.7146 0 56.5863C0 54.2216 0.945881 51.8657 2.77633 49.9739C4.84325 47.907 7.43566 46.8473 10.4485 46.8473C14.2845 46.8473 17.8228 48.7916 19.8897 52.2773L20.424 53.3984C21.8953 55.9382 23.3142 57.1118 26.0905 57.1118C28.8668 57.1118 30.5134 56.998 31.8709 56.1046C33.4649 55.0975 34.2268 53.2145 34.2268 49.7287C34.2268 47.7231 33.2809 46.3043 31.3979 45.4197C30.5747 45.0694 29.9266 44.8855 29.4536 44.8329L28.4552 44.7191H10.755C7.92612 44.6578 5.26364 43.5367 3.44195 41.6537C1.43633 39.7094 0.429147 37.2834 0.429147 34.3932L0.19268 10.2032C0.19268 7.61083 1.37503 5.07096 3.31933 3.12666C5.21109 1.2962 7.7422 0.175163 10.5185 0H39.8408C42.6697 0 45.2708 1.2349 47.2151 3.18796C49.1069 5.13227 50.2805 7.96991 50.2805 10.7988C50.2805 13.6277 49.1594 16.1675 47.2151 18.0593C45.3234 19.8897 42.6697 20.9495 39.8408 20.9495H21.3173V23.7784H26.3357C34.1217 23.7784 41.3822 26.1343 46.6283 30.4433C51.9971 34.8662 55.1237 41.3034 55.1237 49.0894C55.1237 56.8754 51.9358 64.2497 46.567 69.5046C41.1983 74.8733 33.9378 78 26.0905 78C20.8356 78 16.0011 76.5812 11.6921 73.8136H11.6834Z" fill="url(#paint0_linear_453_2992)"/>
<path d="M9.4149 14.6349C9.83529 14.6349 9.83529 13.978 9.4149 13.978C8.99451 13.978 8.99451 14.6349 9.4149 14.6349Z" fill="white"/>
<path d="M33.2899 12.8134C33.7103 12.8134 33.7103 12.1565 33.2899 12.1565C32.8695 12.1565 32.8695 12.8134 33.2899 12.8134Z" fill="white"/>
<path d="M35.9171 6.34094C36.3375 6.34094 36.3375 5.68408 35.9171 5.68408C35.4967 5.68408 35.4967 6.34094 35.9171 6.34094Z" fill="white"/>
<path d="M23.1737 6.34094C23.5941 6.34094 23.5941 5.68408 23.1737 5.68408C22.7533 5.68408 22.7533 6.34094 23.1737 6.34094Z" fill="white"/>
<path d="M11.6395 6.74377C12.0599 6.74377 12.0599 6.08691 11.6395 6.08691C11.2191 6.08691 11.2191 6.74377 11.6395 6.74377Z" fill="white"/>
<path d="M14.88 22.526C15.3004 22.526 15.3004 21.8691 14.88 21.8691C14.4596 21.8691 14.4596 22.526 14.88 22.526Z" fill="white"/>
<path d="M5.16686 30.4171C5.58725 30.4171 5.58725 29.7603 5.16686 29.7603C4.74646 29.7603 4.74646 30.4171 5.16686 30.4171Z" fill="white"/>
<path d="M45.0253 15.2394C45.4456 15.2394 45.4456 14.5825 45.0253 14.5825C44.6049 14.5825 44.6049 15.2394 45.0253 15.2394Z" fill="white"/>
<path d="M45.0253 5.93811C45.4456 5.93811 45.4456 5.28125 45.0253 5.28125C44.6049 5.28125 44.6049 5.93811 45.0253 5.93811Z" fill="white"/>
<path d="M25.1971 34.2618C25.6175 34.2618 25.6175 33.605 25.1971 33.605C24.7767 33.605 24.7767 34.2618 25.1971 34.2618Z" fill="white"/>
<path d="M15.4845 33.859C15.9049 33.859 15.9049 33.2021 15.4845 33.2021C15.0641 33.2021 15.0641 33.859 15.4845 33.859Z" fill="white"/>
<path d="M3.74889 9.58166C4.16928 9.58166 4.16928 8.9248 3.74889 8.9248C3.3285 8.9248 3.3285 9.58166 3.74889 9.58166Z" fill="white"/>
<path d="M42.3983 43.9745C42.8187 43.9745 42.8187 43.3176 42.3983 43.3176C41.9779 43.3176 41.9779 43.9745 42.3983 43.9745Z" fill="white"/>
<path d="M42.1883 35.2777C42.6087 35.2777 42.6087 34.6208 42.1883 34.6208C41.7679 34.6208 41.7679 35.2777 42.1883 35.2777Z" fill="white"/>
<path d="M34.297 30.8199C34.7174 30.8199 34.7174 30.1631 34.297 30.1631C33.8766 30.1631 33.8766 30.8199 34.297 30.8199Z" fill="white"/>
<path d="M41.5838 66.0277C42.0042 66.0277 42.0042 65.3708 41.5838 65.3708C41.1635 65.3708 41.1635 66.0277 41.5838 66.0277Z" fill="white"/>
<path d="M23.9794 71.4928C24.3997 71.4928 24.3997 70.8359 23.9794 70.8359C23.559 70.8359 23.559 71.4928 23.9794 71.4928Z" fill="white"/>
<path d="M20.7482 64.8102C21.1685 64.8102 21.1685 64.1533 20.7482 64.1533C20.3278 64.1533 20.3278 64.8102 20.7482 64.8102Z" fill="white"/>
<path d="M11.8407 54.493C12.2611 54.493 12.2611 53.8362 11.8407 53.8362C11.4203 53.8362 11.4203 54.493 11.8407 54.493Z" fill="white"/>
<path d="M7.59361 58.1366C8.014 58.1366 8.014 57.4797 7.59361 57.4797C7.17322 57.4797 7.17322 58.1366 7.59361 58.1366Z" fill="white"/>
<path d="M41.1808 57.1293C41.6012 57.1293 41.6012 56.4724 41.1808 56.4724C40.7604 56.4724 40.7604 57.1293 41.1808 57.1293Z" fill="white"/>
<path d="M50.8937 47.4166C51.3141 47.4166 51.3141 46.7598 50.8937 46.7598C50.4733 46.7598 50.4733 47.4166 50.8937 47.4166Z" fill="white"/>
<path d="M31.871 70.4767C32.2913 70.4767 32.2913 69.8198 31.871 69.8198C31.4506 69.8198 31.4506 70.4767 31.871 70.4767Z" fill="white"/>
<path d="M15.6854 68.4537C16.1058 68.4537 16.1058 67.7969 15.6854 67.7969C15.265 67.7969 15.265 68.4537 15.6854 68.4537Z" fill="white"/>
<path fill-rule="evenodd" clip-rule="evenodd" d="M7.39146 22.0005L8.18846 22.4559L7.37395 22.8763L6.91852 23.6821L6.48938 22.8676L5.69238 22.4034L6.50689 21.983L6.96232 21.1772L7.39146 22.0005Z" fill="white"/>
<path fill-rule="evenodd" clip-rule="evenodd" d="M48.5467 39.7969L49.3437 40.2523L48.5292 40.6815L48.0738 41.4785L47.6446 40.664L46.8477 40.2086L47.6622 39.7794L48.1176 38.9824L48.5467 39.7969Z" fill="white"/>
<path fill-rule="evenodd" clip-rule="evenodd" d="M16.7713 38.4046L17.5771 38.86L16.7538 39.2891L16.2984 40.0861L15.8693 39.2716L15.0723 38.8162L15.8868 38.3871L16.3422 37.5813L16.7713 38.4046Z" fill="white"/>
<mask id="mask0_453_2992" style="mask-type:luminance" maskUnits="userSpaceOnUse" x="0" y="0" width="56" height="78">
<path d="M11.6834 73.8136C7.54952 71.2212 4.2477 67.5603 1.83045 62.901C0.595554 60.834 0 58.7146 0 56.5863C0 54.2216 0.945881 51.8657 2.77633 49.9739C4.84325 47.907 7.43566 46.8473 10.4485 46.8473C14.2845 46.8473 17.8228 48.7916 19.8897 52.2773L20.424 53.3984C21.8953 55.9382 23.3142 57.1118 26.0905 57.1118C28.8668 57.1118 30.5134 56.998 31.8709 56.1046C33.4649 55.0975 34.2268 53.2145 34.2268 49.7287C34.2268 47.7231 33.2809 46.3043 31.3979 45.4197C30.5747 45.0694 29.9266 44.8855 29.4536 44.8329L28.4552 44.7191H10.755C7.92612 44.6578 5.26364 43.5367 3.44195 41.6537C1.43633 39.7094 0.429147 37.2834 0.429147 34.3932L0.19268 10.2032C0.19268 7.61083 1.37503 5.07096 3.31933 3.12666C5.21109 1.2962 7.7422 0.175163 10.5185 0H39.8408C42.6697 0 45.2708 1.2349 47.2151 3.18796C49.1069 5.13227 50.2805 7.96991 50.2805 10.7988C50.2805 13.6277 49.1594 16.1675 47.2151 18.0593C45.3234 19.8897 42.6697 20.9495 39.8408 20.9495H21.3173V23.7784H26.3357C34.1217 23.7784 41.3822 26.1343 46.6283 30.4433C51.9971 34.8662 55.1237 41.3034 55.1237 49.0894C55.1237 56.8754 51.9358 64.2497 46.567 69.5046C41.1983 74.8733 33.9378 78 26.0905 78C20.8356 78 16.0011 76.5812 11.6921 73.8136H11.6834Z" fill="white"/>
</mask>
<g mask="url(#mask0_453_2992)">
<path opacity="0.2" d="M12.2613 -3.18791C7.16405 -1.5589 2.0493 0.77077 -0.902195 5.48265C-2.39108 7.86486 -3.07421 10.7113 -2.48742 13.4613C-1.24376 19.3118 4.66798 21.6327 9.94038 23.393C17.849 26.038 25.9065 28.7092 34.2355 28.8494C38.886 28.9282 43.6242 28.2275 48.0208 30.2857C49.641 31.0477 50.6482 32.773 50.3942 34.5422C49.9738 37.4499 46.7684 37.9841 44.1672 38.0454C29.8652 38.3782 15.5981 36.4076 1.2961 36.504C-13.0059 36.6091 -27.8422 39.0088 -39.6132 47.1364C-46.9175 52.1723 -52.9518 59.7744 -53.9415 68.585C-54.3882 72.535 -53.8101 76.5287 -52.9956 80.4173C-51.7169 86.583 -49.7901 92.7488 -46.103 97.8635C-39.2979 107.305 -27.5795 111.815 -16.588 115.354C-4.59813 119.216 7.62823 122.29 20.021 124.515C28.7879 126.091 37.7212 127.212 46.5669 126.222C55.5966 125.215 64.6087 121.843 71.0197 115.415C72.8414 113.593 74.5054 111.334 74.5317 108.759C74.5492 106.771 73.5683 104.905 72.3421 103.346C67.5252 97.2242 59.3275 95.1135 51.7342 93.3618C43.6329 91.4963 35.5317 89.6396 27.4304 87.7741C13.8903 84.665 -0.219059 81.2756 -10.8514 72.3248C-12.2265 71.1687 -13.584 69.8375 -14.1182 68.1209C-15.1167 64.8804 -12.7957 61.4734 -9.96687 59.6167C-5.39512 56.6214 0.499107 56.2623 5.85909 57.3396C11.2191 58.4168 16.2112 60.7991 21.2209 62.9974C27.5705 65.7737 34.034 68.261 40.6026 70.468C44.2811 71.7029 48.0471 72.859 51.9182 72.9992C55.2462 73.1218 59.1524 72.1233 59.9756 68.4975C60.3172 66.9823 59.9494 65.3971 59.1261 64.0746C57.3307 61.2107 54.1953 59.9408 51.1387 58.9161C39.4991 55.0012 27.1589 53.3634 15.712 48.923C14.8712 48.599 13.9166 48.1173 13.7677 47.2239C13.6626 46.5846 14.0392 45.9628 14.4596 45.4723C18.0855 41.3034 24.7154 42.9325 30.1104 44.1236C38.019 45.8752 46.3129 45.884 54.2303 44.1586C59.2224 43.0726 65.1167 39.9109 63.8029 34.3845C63.365 32.5365 62.1652 30.9688 60.6062 29.9003C53.118 24.7768 43.8519 24.1462 35.4441 21.186C34.0953 20.7131 32.7816 20.1788 31.4767 19.6008C27.5355 17.8491 28.9368 11.9286 33.2458 12.095C48.4674 12.6818 63.7416 16.6405 79.0596 17.4988C80.2682 17.5689 81.4769 17.0872 82.2038 16.1238C83.8679 13.9343 81.6345 11.3944 79.5851 9.91427C59.853 -4.30019 35.9258 -10.7374 12.2613 -3.19667V-3.18791Z" fill="white"/>
<path d="M29.7691 16.1939C39.4237 16.1939 47.2503 8.36732 47.2503 -1.28731C47.2503 -10.9419 39.4237 -18.7686 29.7691 -18.7686C20.1145 -18.7686 12.2878 -10.9419 12.2878 -1.28731C12.2878 8.36732 20.1145 16.1939 29.7691 16.1939Z" fill="url(#paint1_linear_453_2992)"/>
</g>
<path fill-rule="evenodd" clip-rule="evenodd" d="M47.6705 55.3077L48.4675 55.7631L47.653 56.1922L47.1976 56.9892L46.7684 56.1747L45.9714 55.7193L46.7859 55.2902L47.2414 54.4932L47.6705 55.3077Z" fill="white"/>
<path fill-rule="evenodd" clip-rule="evenodd" d="M27.1324 11.447L28.3586 12.1389L27.1062 12.7957L26.4143 14.0131L25.7574 12.7695L24.54 12.0688L25.7837 11.4207L26.4843 10.1946L27.1324 11.447Z" fill="white"/>
<mask id="mask1_453_2992" style="mask-type:luminance" maskUnits="userSpaceOnUse" x="0" y="0" width="56" height="78">
<path d="M11.6834 73.8136C7.54952 71.2212 4.2477 67.5603 1.83045 62.901C0.595554 60.834 0 58.7146 0 56.5863C0 54.2216 0.945881 51.8657 2.77633 49.9739C4.84325 47.907 7.43566 46.8473 10.4485 46.8473C14.2845 46.8473 17.8228 48.7916 19.8897 52.2773L20.424 53.3984C21.8953 55.9382 23.3142 57.1118 26.0905 57.1118C28.8668 57.1118 30.5134 56.998 31.8709 56.1046C33.4649 55.0975 34.2268 53.2145 34.2268 49.7287C34.2268 47.7231 33.2809 46.3043 31.3979 45.4197C30.5747 45.0694 29.9266 44.8855 29.4536 44.8329L28.4552 44.7191H10.755C7.92612 44.6578 5.26364 43.5367 3.44195 41.6537C1.43633 39.7094 0.429147 37.2834 0.429147 34.3932L0.19268 10.2032C0.19268 7.61083 1.37503 5.07096 3.31933 3.12666C5.21109 1.2962 7.7422 0.175163 10.5185 0H39.8408C42.6697 0 45.2708 1.2349 47.2151 3.18796C49.1069 5.13227 50.2805 7.96991 50.2805 10.7988C50.2805 13.6277 49.1594 16.1675 47.2151 18.0593C45.3234 19.8897 42.6697 20.9495 39.8408 20.9495H21.3173V23.7784H26.3357C34.1217 23.7784 41.3822 26.1343 46.6283 30.4433C51.9971 34.8662 55.1237 41.3034 55.1237 49.0894C55.1237 56.8754 51.9358 64.2497 46.567 69.5046C41.1983 74.8733 33.9378 78 26.0905 78C20.8356 78 16.0011 76.5812 11.6921 73.8136H11.6834Z" fill="white"/>
</mask>
<g mask="url(#mask1_453_2992)">
<path d="M29.7693 16.1939C39.424 16.1939 47.2506 8.36732 47.2506 -1.28731C47.2506 -10.9419 39.424 -18.7686 29.7693 -18.7686C20.1147 -18.7686 12.2881 -10.9419 12.2881 -1.28731C12.2881 8.36732 20.1147 16.1939 29.7693 16.1939Z" fill="url(#paint2_linear_453_2992)"/>
</g>
<path fill-rule="evenodd" clip-rule="evenodd" d="M21.5096 12.7258L23.0861 13.6278L21.4746 14.4686L20.5813 16.0451L19.7317 14.4424L18.1553 13.5403L19.7668 12.6907L20.6689 11.1143L21.5096 12.7258Z" fill="white"/>
<path fill-rule="evenodd" clip-rule="evenodd" d="M56.3231 65.3009C52.9337 68.7954 47.3636 68.8829 43.8691 65.4935C40.3746 62.1041 40.287 56.534 43.6764 53.0395C47.0658 49.545 52.636 49.4574 56.1305 52.8468C59.625 56.2362 59.7125 61.8064 56.3231 65.3009Z" fill="url(#paint3_linear_453_2992)"/>
<path d="M58.5392 64.2148C55.9731 64.2148 52.4173 63.593 49.0804 62.6559C43.1687 60.9918 37.1869 58.1367 37.7562 56.1135C38.0539 55.0538 40.0245 54.8524 41.6098 54.8786V55.3165C39.6129 55.299 38.343 55.6406 38.1766 56.2361C37.8175 57.5148 42.2579 60.2912 49.1943 62.2355C56.1308 64.1798 61.3681 64.1185 61.7272 62.8485C61.9111 62.2004 60.8514 61.1582 58.8983 60.0547L59.1173 59.6693C60.6762 60.5451 62.4717 61.8238 62.1564 62.9624C61.9111 63.8382 60.5186 64.2148 58.548 64.2148H58.5392Z" fill="white"/>
<g opacity="0.2">
<path fill-rule="evenodd" clip-rule="evenodd" d="M58.0055 66.9385C53.7228 71.3613 46.6637 71.4664 42.2408 67.1837C37.818 62.901 37.7129 55.8419 41.9956 51.419C46.2783 46.9962 53.3374 46.8911 57.7603 51.1738C62.1831 55.4566 62.2882 62.5156 58.0055 66.9385Z" fill="url(#paint4_linear_453_2992)"/>
</g>
<defs>
<linearGradient id="paint0_linear_453_2992" x1="26.0555" y1="-0.578037" x2="28.6829" y2="92.6962" gradientUnits="userSpaceOnUse">
<stop offset="0.22" stop-color="#3C0289"/>
<stop offset="0.65" stop-color="#4172DA"/>
<stop offset="1" stop-color="#80C3FF"/>
</linearGradient>
<linearGradient id="paint1_linear_453_2992" x1="52.549" y1="-26.0466" x2="12.2616" y2="17.7441" gradientUnits="userSpaceOnUse">
<stop offset="0.04" stop-color="#0C0F6C"/>
<stop offset="0.91" stop-color="#E0369B"/>
</linearGradient>
<linearGradient id="paint2_linear_453_2992" x1="52.5493" y1="-26.0466" x2="12.2618" y2="17.7441" gradientUnits="userSpaceOnUse">
<stop offset="0.37" stop-color="#8BECEF"/>
<stop offset="0.91" stop-color="#E0369B"/>
</linearGradient>
<linearGradient id="paint3_linear_453_2992" x1="39.8053" y1="85.2869" x2="54.3963" y2="47.916" gradientUnits="userSpaceOnUse">
<stop offset="0.04" stop-color="#0C0F6C"/>
<stop offset="0.07" stop-color="#131170"/>
<stop offset="0.32" stop-color="#532691"/>
<stop offset="0.54" stop-color="#8537AB"/>
<stop offset="0.74" stop-color="#A843BE"/>
<stop offset="0.9" stop-color="#BE4BC9"/>
<stop offset="1" stop-color="#C74ECE"/>
</linearGradient>
<linearGradient id="paint4_linear_453_2992" x1="37.091" y1="92.232" x2="55.5707" y2="44.9205" gradientUnits="userSpaceOnUse">
<stop offset="0.13" stop-color="#C74ECE"/>
<stop offset="1" stop-color="#EFC0D5"/>
</linearGradient>
</defs>
</svg>
