<svg width="64" height="95" viewBox="0 0 64 95" fill="none" xmlns="http://www.w3.org/2000/svg">
<path d="M12.7417 82.3661C8.02157 79.7127 4.12463 75.8157 1.70765 71.2795C0.586731 69.2128 0 67.1461 0 65.0882C0 62.7325 1.05962 60.3068 2.77602 58.424C4.72011 56.3573 7.2597 55.359 10.386 55.359C14.2216 55.359 17.8821 57.3644 19.9401 60.8497C21.2974 63.7396 24.7215 65.6311 28.3207 65.6311C30.6238 65.6311 32.6905 64.7467 34.2756 63.2755C35.8694 61.8043 36.6925 59.8514 36.6925 57.4957C36.6925 55.7268 36.1058 54.5446 34.9849 54.0191C34.1004 53.6076 32.6818 53.3711 30.6151 53.3711H21.9455C19.1694 53.3098 16.6386 52.075 14.7471 50.0084C12.9168 48.1168 11.8572 45.4634 11.8572 42.8713C11.8572 39.9814 12.9168 37.5031 14.9835 35.4364L22.4797 28.8248H12.9256C9.91312 28.8248 7.25969 27.879 5.3769 26.1713C3.48535 24.5162 2.31189 21.9854 2.31189 19.1481C2.31189 16.3108 3.49411 13.6048 5.3769 11.6519C7.32099 9.70785 10.0357 8.52563 12.9256 8.52563H48.4359C51.2645 8.52563 53.7428 9.70785 55.6343 11.6519C57.4646 13.596 58.5242 16.2495 58.5242 18.9116C58.5242 21.8015 57.4646 24.5162 55.3979 26.5829L44.6003 36.2596C48.5498 38.2037 51.7374 40.9797 54.0405 44.5789C56.4575 48.2919 57.6397 52.6005 57.6397 57.4957C57.6397 62.75 56.2823 67.6453 53.6289 72.129C50.9142 76.6739 47.4376 80.1505 43.1291 82.6288C38.5841 85.2822 33.6888 86.5783 28.382 86.5783C23.0751 86.5783 17.6457 85.1596 12.7504 82.3924L12.7417 82.3661Z" fill="url(#paint0_linear_453_2856)"/>
<path d="M9.35237 15.8294C9.77271 15.8294 9.77271 15.1726 9.35237 15.1726C8.93202 15.1726 8.93202 15.8294 9.35237 15.8294Z" fill="white"/>
<path d="M20.2987 21.0833C20.719 21.0833 20.719 20.4265 20.2987 20.4265C19.8783 20.4265 19.8783 21.0833 20.2987 21.0833Z" fill="white"/>
<path d="M29.9315 14.9534C30.3518 14.9534 30.3518 14.2966 29.9315 14.2966C29.5111 14.2966 29.5111 14.9534 29.9315 14.9534Z" fill="white"/>
<path d="M48.7597 18.0186C49.1801 18.0186 49.1801 17.3618 48.7597 17.3618C48.3394 17.3618 48.3394 18.0186 48.7597 18.0186Z" fill="white"/>
<path d="M40.0026 28.9646C40.423 28.9646 40.423 28.3079 40.0026 28.3079C39.5823 28.3079 39.5823 28.9646 40.0026 28.9646Z" fill="white"/>
<path d="M36.5 23.2725C36.9203 23.2725 36.9203 22.6157 36.5 22.6157C36.0796 22.6157 36.0796 23.2725 36.5 23.2725Z" fill="white"/>
<path d="M25.1151 46.4791C25.5354 46.4791 25.5354 45.8223 25.1151 45.8223C24.6947 45.8223 24.6947 46.4791 25.1151 46.4791Z" fill="white"/>
<path d="M39.1268 48.2305C39.5471 48.2305 39.5471 47.5737 39.1268 47.5737C38.7064 47.5737 38.7064 48.2305 39.1268 48.2305Z" fill="white"/>
<path d="M32.9969 41.6626C33.4172 41.6626 33.4172 41.0059 32.9969 41.0059C32.5766 41.0059 32.5766 41.6626 32.9969 41.6626Z" fill="white"/>
<path d="M30.8077 32.4676C31.228 32.4676 31.228 31.8108 30.8077 31.8108C30.3873 31.8108 30.3873 32.4676 30.8077 32.4676Z" fill="white"/>
<path d="M18.1092 40.3489C18.5295 40.3489 18.5295 39.6921 18.1092 39.6921C17.6889 39.6921 17.6889 40.3489 18.1092 40.3489Z" fill="white"/>
<mask id="mask0_453_2856" style="mask-type:luminance" maskUnits="userSpaceOnUse" x="0" y="8" width="59" height="79">
<path d="M12.7417 82.3661C8.02157 79.7127 4.12463 75.8157 1.70765 71.2795C0.586731 69.2128 0 67.1461 0 65.0882C0 62.7325 1.05962 60.3068 2.77602 58.424C4.72011 56.3573 7.2597 55.359 10.386 55.359C14.2216 55.359 17.8821 57.3644 19.9401 60.8497C21.2974 63.7396 24.7215 65.6311 28.3207 65.6311C30.6238 65.6311 32.6905 64.7467 34.2756 63.2755C35.8694 61.8043 36.6925 59.8514 36.6925 57.4957C36.6925 55.7268 36.1058 54.5446 34.9849 54.0191C34.1004 53.6076 32.6818 53.3711 30.6151 53.3711H21.9455C19.1694 53.3098 16.6386 52.075 14.7471 50.0084C12.9168 48.1168 11.8572 45.4634 11.8572 42.8713C11.8572 39.9814 12.9168 37.5031 14.9835 35.4364L22.4797 28.8248H12.9256C9.91312 28.8248 7.25969 27.879 5.3769 26.1713C3.48535 24.5162 2.31189 21.9854 2.31189 19.1481C2.31189 16.3108 3.49411 13.6048 5.3769 11.6519C7.32099 9.70785 10.0357 8.52563 12.9256 8.52563H48.4359C51.2645 8.52563 53.7428 9.70785 55.6343 11.6519C57.4646 13.596 58.5242 16.2495 58.5242 18.9116C58.5242 21.8015 57.4646 24.5162 55.3979 26.5829L44.6003 36.2596C48.5498 38.2037 51.7374 40.9797 54.0405 44.5789C56.4575 48.2919 57.6397 52.6005 57.6397 57.4957C57.6397 62.75 56.2823 67.6453 53.6289 72.129C50.9142 76.6739 47.4376 80.1505 43.1291 82.6288C38.5841 85.2822 33.6888 86.5783 28.382 86.5783C23.0751 86.5783 17.6457 85.1596 12.7504 82.3924L12.7417 82.3661Z" fill="white"/>
</mask>
<g mask="url(#mask0_453_2856)">
<path opacity="0.2" d="M84.3758 99.1356C87.3357 94.6782 89.8578 89.6516 89.2098 84.1345C88.877 81.341 87.6335 78.6963 85.4529 76.9186C80.8292 73.1355 74.7604 75.0183 69.5499 76.9449C61.7298 79.8348 53.7783 82.7947 47.1841 87.9001C43.5148 90.7462 40.2572 94.2666 35.5283 95.405C33.7944 95.8253 31.9203 95.1073 31.0184 93.5748C29.5296 91.0439 31.6927 88.6182 33.6805 86.9456C44.627 77.733 56.9921 70.3507 68.0787 61.3133C79.174 52.2847 89.236 41.1281 93.3344 27.4231C95.874 18.9286 95.8302 9.21694 91.0838 1.72956C88.9558 -1.62443 86.0134 -4.38294 82.9396 -6.90501C78.0794 -10.9158 72.72 -14.515 66.6513 -16.1964C55.4334 -19.3052 43.4798 -15.487 32.691 -11.3712C20.9301 -6.87874 9.46696 -1.63319 -1.59334 4.39174C-9.4135 8.64773 -17.0848 13.3678 -23.3637 19.6642C-29.7652 26.1008 -34.6867 34.3675 -35.6587 43.4049C-35.939 45.962 -35.8251 48.7731 -34.2313 50.796C-33.0053 52.3548 -31.07 53.1954 -29.1346 53.6421C-21.5422 55.4023 -13.8271 51.9169 -6.82137 48.5279C0.657249 44.9112 8.14463 41.2945 15.6233 37.6777C28.1373 31.6265 41.2467 25.444 55.1444 25.768C56.9483 25.8118 58.8311 25.9957 60.3286 27.0028C63.1309 28.9031 63.4637 33.0189 62.4128 36.2416C60.7227 41.4433 56.3529 45.4103 51.4926 47.9236C46.6324 50.4369 41.2555 51.698 35.9749 53.1254C29.2932 54.9294 22.6815 57.0398 16.1837 59.4306C12.5407 60.7704 8.88899 62.2241 5.7802 64.5447C3.10926 66.5326 0.69228 69.7553 2.31236 73.0917C2.99541 74.4929 4.27396 75.4912 5.74517 76.0079C8.93278 77.12 12.1729 76.148 15.2029 75.0358C26.7274 70.8061 37.3848 64.3608 49.0844 60.6566C49.9426 60.3851 50.9935 60.1662 51.659 60.7704C52.1407 61.2083 52.237 61.9176 52.2107 62.5656C51.9918 68.0826 45.8005 70.9638 40.8439 73.407C33.5842 76.9887 27.1039 82.1729 22.016 88.4693C18.8021 92.4451 16.1837 98.6014 20.6674 102.087C22.1649 103.251 24.0827 103.724 25.9742 103.584C35.0204 102.892 42.6391 97.5855 51.046 94.6344C52.3946 94.1615 53.752 93.7499 55.1356 93.3909C59.304 92.2875 61.9137 97.7869 58.4546 100.353C46.2208 109.425 31.824 115.888 19.3451 124.803C18.3643 125.503 17.725 126.633 17.7513 127.842C17.8213 130.591 21.1578 131.169 23.6799 131.038C47.9635 129.768 70.6533 119.829 84.3933 99.1356H84.3758Z" fill="white"/>
</g>
<path d="M48.3221 54.7986C48.7424 54.7986 48.7424 54.1418 48.3221 54.1418C47.9017 54.1418 47.9017 54.7986 48.3221 54.7986Z" fill="white"/>
<path d="M50.0731 47.3548C50.4934 47.3548 50.4934 46.698 50.0731 46.698C49.6527 46.698 49.6527 47.3548 50.0731 47.3548Z" fill="white"/>
<path d="M36.5 71.8748C36.9203 71.8748 36.9203 71.218 36.5 71.218C36.0796 71.218 36.0796 71.8748 36.5 71.8748Z" fill="white"/>
<path d="M23.364 75.8155C23.7843 75.8155 23.7843 75.1587 23.364 75.1587C22.9436 75.1587 22.9436 75.8155 23.364 75.8155Z" fill="white"/>
<path d="M8.91487 65.3072C9.33521 65.3072 9.33521 64.6504 8.91487 64.6504C8.49452 64.6504 8.49452 65.3072 8.91487 65.3072Z" fill="white"/>
<path d="M35.1864 83.6973C35.6067 83.6973 35.6067 83.0405 35.1864 83.0405C34.766 83.0405 34.766 83.6973 35.1864 83.6973Z" fill="white"/>
<path d="M50.0731 67.9341C50.4934 67.9341 50.4934 67.2773 50.0731 67.2773C49.6527 67.2773 49.6527 67.9341 50.0731 67.9341Z" fill="white"/>
<path d="M8.91487 73.6263C9.33521 73.6263 9.33521 72.9695 8.91487 72.9695C8.49452 72.9695 8.49452 73.6263 8.91487 73.6263Z" fill="white"/>
<path d="M25.5535 68.8096C25.9739 68.8096 25.9739 68.1528 25.5535 68.1528C25.1332 68.1528 25.1332 68.8096 25.5535 68.8096Z" fill="white"/>
<path d="M41.316 11.8882C41.7363 11.8882 41.7363 11.2314 41.316 11.2314C40.8956 11.2314 40.8956 11.8882 41.316 11.8882Z" fill="white"/>
<path d="M47.8836 12.326C48.304 12.326 48.304 11.6692 47.8836 11.6692C47.4633 11.6692 47.4633 12.326 47.8836 12.326Z" fill="white"/>
<path fill-rule="evenodd" clip-rule="evenodd" d="M52.1571 51.1642L53.1817 51.7509L52.1396 52.3026L51.5529 53.3272L51.0011 52.2763L49.9766 51.6896L51.0187 51.1467L51.6054 50.1221L52.1571 51.1642Z" fill="white"/>
<path fill-rule="evenodd" clip-rule="evenodd" d="M27.2958 38.6151L28.3204 39.2018L27.2695 39.7535L26.6828 40.7781L26.1398 39.7273L25.1152 39.1405L26.1573 38.5976L26.7441 37.573L27.2958 38.6151Z" fill="white"/>
<path fill-rule="evenodd" clip-rule="evenodd" d="M47.2889 24.4547L48.3135 25.0414L47.2627 25.5931L46.6759 26.6177L46.133 25.5669L45.1084 24.9801L46.1505 24.4372L46.7372 23.4126L47.2889 24.4547Z" fill="white"/>
<path fill-rule="evenodd" clip-rule="evenodd" d="M18.5475 14.1825L19.5721 14.7692L18.5212 15.3209L17.9345 16.3455L17.3915 15.2946L16.3669 14.7167L17.409 14.165L17.9958 13.1404L18.5475 14.1825Z" fill="white"/>
<path fill-rule="evenodd" clip-rule="evenodd" d="M36.4122 82.48C34.3192 75.9209 37.9359 68.9064 44.495 66.8134C51.0542 64.7205 58.0687 68.3372 60.1616 74.8963C62.2546 81.4554 58.6379 88.4699 52.0788 90.5629C45.5196 92.6558 38.5051 89.0391 36.4122 82.48Z" fill="url(#paint1_linear_453_2856)"/>
<path fill-rule="evenodd" clip-rule="evenodd" d="M4.54492 5.90711C5.97234 3.09605 9.41391 1.96638 12.225 3.3938C15.036 4.82122 16.1657 8.26278 14.7383 11.0738C13.3108 13.8849 9.86928 15.0146 7.05823 13.5871C4.24718 12.1597 3.1175 8.71816 4.54492 5.90711Z" fill="url(#paint2_linear_453_2856)"/>
<g opacity="0.1">
<path fill-rule="evenodd" clip-rule="evenodd" d="M2.06671 4.65463C4.18595 0.468705 9.30013 -1.20391 13.4861 0.924078C17.672 3.04331 19.3359 8.1575 17.2166 12.3434C15.0974 16.5294 9.98319 18.1932 5.79727 16.074C1.61134 13.9547 -0.052524 8.84056 2.06671 4.65463Z" fill="url(#paint3_linear_453_2856)"/>
</g>
<g opacity="0.2">
<path fill-rule="evenodd" clip-rule="evenodd" d="M33.3124 83.4692C30.6765 75.2024 35.2389 66.3577 43.5057 63.7218C51.7725 61.0859 60.6172 65.6484 63.2531 73.9151C65.889 82.1819 61.3265 91.0266 53.0598 93.6626C44.793 96.2985 35.9483 91.7447 33.3124 83.4692Z" fill="url(#paint4_linear_453_2856)"/>
</g>
<path fill-rule="evenodd" clip-rule="evenodd" d="M35.519 76.8142C35.519 79.2925 33.5136 81.2979 31.0353 81.2979C28.557 81.2979 26.5516 79.2925 26.5516 76.8142C26.5516 74.336 28.557 72.3306 31.0353 72.3306C33.5136 72.3306 35.519 74.336 35.519 76.8142Z" fill="white"/>
<path fill-rule="evenodd" clip-rule="evenodd" d="M30.8605 81.2804C30.9218 81.2804 30.9743 81.2979 31.0356 81.2979C31.1495 81.2979 31.2633 81.2716 31.3772 81.2629V72.3656C31.2633 72.3568 31.1495 72.3306 31.0356 72.3306C30.9743 72.3306 30.9218 72.3481 30.8605 72.3481V81.2804Z" fill="#4172DA"/>
<path d="M47.0788 76.9453H30.8605V77.3744H47.0788V76.9453Z" fill="#80C3FF"/>
<path d="M46.3322 67.3646L30.9395 72.4731L31.0746 72.8804L46.4673 67.7719L46.3322 67.3646Z" fill="#80C3FF"/>
<path d="M31.0424 80.8811L30.9072 81.2883L46.2999 86.3969L46.4351 85.9896L31.0424 80.8811Z" fill="#80C3FF"/>
<defs>
<linearGradient id="paint0_linear_453_2856" x1="41.5528" y1="-10.819" x2="16.5948" y2="97.3321" gradientUnits="userSpaceOnUse">
<stop offset="0.22" stop-color="#3C0289"/>
<stop offset="0.65" stop-color="#4172DA"/>
<stop offset="1" stop-color="#80C3FF"/>
</linearGradient>
<linearGradient id="paint1_linear_453_2856" x1="59.6362" y1="98.1466" x2="41.2461" y2="66.6208" gradientUnits="userSpaceOnUse">
<stop offset="0.04" stop-color="#0C0F6C"/>
<stop offset="0.07" stop-color="#131170"/>
<stop offset="0.32" stop-color="#532691"/>
<stop offset="0.54" stop-color="#8537AB"/>
<stop offset="0.74" stop-color="#A843BE"/>
<stop offset="0.9" stop-color="#BE4BC9"/>
<stop offset="1" stop-color="#C74ECE"/>
</linearGradient>
<linearGradient id="paint2_linear_453_2856" x1="7.08485" y1="18.5098" x2="11.232" y2="2.29389" gradientUnits="userSpaceOnUse">
<stop stop-color="#4172DA"/>
<stop offset="0.82" stop-color="#8BECEF"/>
</linearGradient>
<linearGradient id="paint3_linear_453_2856" x1="5.83709" y1="23.3793" x2="12.0037" y2="-0.721198" gradientUnits="userSpaceOnUse">
<stop stop-color="#4172DA"/>
<stop offset="0.82" stop-color="#8BECEF"/>
</linearGradient>
<linearGradient id="paint4_linear_453_2856" x1="62.5963" y1="103.225" x2="39.4073" y2="63.4766" gradientUnits="userSpaceOnUse">
<stop offset="0.04" stop-color="#0C0F6C"/>
<stop offset="0.07" stop-color="#131170"/>
<stop offset="0.32" stop-color="#532691"/>
<stop offset="0.54" stop-color="#8537AB"/>
<stop offset="0.74" stop-color="#A843BE"/>
<stop offset="0.9" stop-color="#BE4BC9"/>
<stop offset="1" stop-color="#C74ECE"/>
</linearGradient>
</defs>
</svg>
