<svg width="59" height="78" viewBox="0 0 59 78" fill="none" xmlns="http://www.w3.org/2000/svg">
<path d="M14.8516 77.9912C12.0164 77.9912 9.23381 76.8062 7.3378 74.8575C5.38911 72.9615 4.2041 70.3018 4.2041 67.291C4.2041 64.2802 5.20478 61.7873 7.27635 59.8386L28.8611 35.1202C28.9021 35.1202 28.9225 35.0997 28.9225 35.0587L28.984 34.9973L29.1595 34.8217L29.5107 34.4706L30.0461 33.9966L31.9948 32.0479C33.7679 30.2748 35.1285 28.5017 36.015 26.7286C36.5505 25.7279 36.7875 24.7799 36.7875 23.8933C36.7875 22.4713 36.1994 21.4092 34.9529 20.7596C34.0664 20.2242 32.9428 19.9872 31.5822 19.9872C29.0367 19.9872 27.088 20.6982 25.9644 23.1209C24.6038 28.8528 20.9961 31.8724 15.7909 31.8724C12.5957 31.8724 10.1116 30.9244 8.27703 28.9757C6.56535 27.1411 5.61734 24.5955 5.61734 21.7603C5.61734 21.0493 5.67878 20.3383 5.79289 19.5746C6.44246 15.1418 9.2777 10.3491 13.5964 6.56583C18.3277 2.54558 24.3581 0 31.275 0C39.0785 0 45.5829 1.94868 50.3142 5.79338C55.221 9.87508 57.7051 15.5544 57.7051 22.8839C57.7051 27.6151 56.88 31.5739 54.8084 35.5942C52.8597 39.4389 49.4891 43.9332 44.7578 48.9629L37.1298 57.0034H47.4175C50.3142 57.0034 53.0353 58.0655 54.984 59.9001C56.9327 61.8488 58.0562 64.5084 58.0562 67.4139C58.0562 70.3194 56.9327 72.9703 54.984 74.9277C53.0353 76.8238 50.2527 78 47.4175 78H14.8341L14.8516 77.9912Z" fill="url(#paint0_linear_453_2813)"/>
<mask id="mask0_453_2813" style="mask-type:luminance" maskUnits="userSpaceOnUse" x="4" y="0" width="55" height="78">
<path d="M14.8516 77.9912C12.0164 77.9912 9.23381 76.8062 7.3378 74.8575C5.38911 72.9615 4.2041 70.3018 4.2041 67.291C4.2041 64.2802 5.20478 61.7873 7.27635 59.8386L28.8611 35.1202C28.9021 35.1202 28.9225 35.0997 28.9225 35.0587L28.984 34.9973L29.1595 34.8217L29.5107 34.4706L30.0461 33.9966L31.9948 32.0479C33.7679 30.2748 35.1285 28.5017 36.015 26.7286C36.5505 25.7279 36.7875 24.7799 36.7875 23.8933C36.7875 22.4713 36.1994 21.4092 34.9529 20.7596C34.0664 20.2242 32.9428 19.9872 31.5822 19.9872C29.0367 19.9872 27.088 20.6982 25.9644 23.1209C24.6038 28.8528 20.9961 31.8724 15.7909 31.8724C12.5957 31.8724 10.1116 30.9244 8.27703 28.9757C6.56535 27.1411 5.61734 24.5955 5.61734 21.7603C5.61734 21.0493 5.67878 20.3383 5.79289 19.5746C6.44246 15.1418 9.2777 10.3491 13.5964 6.56583C18.3277 2.54558 24.3581 0 31.275 0C39.0785 0 45.5829 1.94868 50.3142 5.79338C55.221 9.87508 57.7051 15.5544 57.7051 22.8839C57.7051 27.6151 56.88 31.5739 54.8084 35.5942C52.8597 39.4389 49.4891 43.9332 44.7578 48.9629L37.1298 57.0034H47.4175C50.3142 57.0034 53.0353 58.0655 54.984 59.9001C56.9327 61.8488 58.0562 64.5084 58.0562 67.4139C58.0562 70.3194 56.9327 72.9703 54.984 74.9277C53.0353 76.8238 50.2527 78 47.4175 78H14.8341L14.8516 77.9912Z" fill="white"/>
</mask>
<g mask="url(#mask0_453_2813)">
<path opacity="0.2" d="M19.6883 -26.4828C15.1941 -23.5422 10.8841 -19.917 9.30412 -14.58C8.50534 -11.8764 8.61067 -8.94464 9.90979 -6.44295C12.6748 -1.13234 19.0124 -0.465229 24.5688 -0.184338C32.9078 0.245777 41.4135 0.667114 49.4979 -1.43957C54.0097 -2.60703 58.3987 -4.56449 63.2001 -3.74815C64.9645 -3.4497 66.4041 -2.05402 66.6323 -0.280891C67.001 2.64213 64.0516 4.01148 61.5587 4.76637C47.8389 8.92707 33.531 10.8494 19.741 14.7819C5.95098 18.7144 -7.72492 25.0169 -16.9153 36.0243C-22.6034 42.8535 -26.4042 51.8069 -24.991 60.5847C-24.3589 64.5172 -22.7263 68.2215 -20.9093 71.759C-18.0126 77.368 -14.5014 82.8103 -9.57704 86.7603C-0.474411 94.0547 12.0516 95.2661 23.612 95.7313C36.2258 96.2492 48.8571 95.9419 61.427 94.7569C70.3102 93.923 79.2461 92.6064 87.5236 89.2883C95.9766 85.9001 103.771 80.2208 108.239 72.2856C109.503 70.0385 110.513 67.4051 109.846 64.921C109.328 62.9987 107.879 61.4625 106.282 60.2863C99.9881 55.6692 91.4999 55.8271 83.7052 56.1783L58.741 57.3018C44.8281 57.9251 30.3007 58.443 17.6343 52.6496C15.9928 51.8947 14.3251 50.9818 13.3507 49.4632C11.5161 46.6016 12.8416 42.6867 15.0799 40.1323C18.6964 36.0155 24.2879 34.0844 29.7565 33.6894C35.2251 33.2944 40.6849 34.26 46.1097 35.0324C52.9827 36.0068 59.8997 36.6826 66.8254 37.0425C70.7052 37.2444 74.6465 37.3498 78.4297 36.4456C81.6775 35.6644 85.1799 33.6543 85.0043 29.9413C84.9253 28.3876 84.1441 26.9568 82.9942 25.9035C80.4925 23.6124 77.1306 23.235 73.9003 23.0594C61.6114 22.4011 49.2521 24.1215 37.007 22.919C36.1117 22.8312 35.0583 22.6205 34.6809 21.8042C34.4088 21.2161 34.6019 20.5138 34.8828 19.9257C37.2704 14.9311 44.1083 14.7205 49.6384 14.422C57.7491 13.9919 65.7545 11.7799 72.9348 7.98784C77.4641 5.60027 82.3095 0.965565 79.5621 -4.02026C78.6492 -5.68805 77.0691 -6.88184 75.2697 -7.49629C66.6674 -10.4281 57.5472 -8.55841 48.6377 -9.16408C47.2157 -9.26064 45.7937 -9.41864 44.3804 -9.62931C40.1056 -10.2613 39.8686 -16.3531 44.082 -17.3538C58.9429 -20.8737 74.7518 -21.1371 89.7707 -24.42C90.9557 -24.6745 91.9915 -25.4646 92.4392 -26.5881C93.4574 -29.1425 90.6221 -31.0034 88.2434 -31.8812C65.3507 -40.3079 40.5182 -40.1148 19.6883 -26.4828Z" fill="white"/>
</g>
<mask id="mask1_453_2813" style="mask-type:luminance" maskUnits="userSpaceOnUse" x="4" y="0" width="55" height="78">
<path d="M14.8516 77.9912C12.0164 77.9912 9.23381 76.8062 7.3378 74.8575C5.38911 72.9615 4.2041 70.3018 4.2041 67.291C4.2041 64.2802 5.20478 61.7873 7.27635 59.8386L28.8611 35.1202C28.9021 35.1202 28.9225 35.0997 28.9225 35.0587L28.984 34.9973L29.1595 34.8217L29.5107 34.4706L30.0461 33.9966L31.9948 32.0479C33.7679 30.2748 35.1285 28.5017 36.015 26.7286C36.5505 25.7279 36.7875 24.7799 36.7875 23.8933C36.7875 22.4713 36.1994 21.4092 34.9529 20.7596C34.0664 20.2242 32.9428 19.9872 31.5822 19.9872C29.0367 19.9872 27.088 20.6982 25.9644 23.1209C24.6038 28.8528 20.9961 31.8724 15.7909 31.8724C12.5957 31.8724 10.1116 30.9244 8.27703 28.9757C6.56535 27.1411 5.61734 24.5955 5.61734 21.7603C5.61734 21.0493 5.67878 20.3383 5.79289 19.5746C6.44246 15.1418 9.2777 10.3491 13.5964 6.56583C18.3277 2.54558 24.3581 0 31.275 0C39.0785 0 45.5829 1.94868 50.3142 5.79338C55.221 9.87508 57.7051 15.5544 57.7051 22.8839C57.7051 27.6151 56.88 31.5739 54.8084 35.5942C52.8597 39.4389 49.4891 43.9332 44.7578 48.9629L37.1298 57.0034H47.4175C50.3142 57.0034 53.0353 58.0655 54.984 59.9001C56.9327 61.8488 58.0562 64.5084 58.0562 67.4139C58.0562 70.3194 56.9327 72.9703 54.984 74.9277C53.0353 76.8238 50.2527 78 47.4175 78H14.8341L14.8516 77.9912Z" fill="white"/>
</mask>
<g mask="url(#mask1_453_2813)">
<path d="M68.5993 37.9084C78.6236 33.8217 83.4369 22.3825 79.3502 12.3582C75.2634 2.33394 63.8242 -2.47937 53.7999 1.60738C43.7757 5.69412 38.9624 17.1333 43.0491 27.1576C47.1359 37.1819 58.5751 41.9952 68.5993 37.9084Z" fill="#EFC0D5"/>
<path d="M53.588 32.4255C42.6595 32.4255 33.7676 25.254 33.7676 16.4322C33.7676 7.61047 42.6595 0.438965 53.588 0.438965C64.5164 0.438965 73.4084 7.61047 73.4084 16.4322C73.4084 25.254 64.5164 32.4255 53.588 32.4255ZM53.588 0.886637C42.8965 0.886637 34.2065 7.86503 34.2065 16.441C34.2065 25.017 42.9053 31.9953 53.588 31.9953C64.2706 31.9953 72.9695 25.017 72.9695 16.441C72.9695 7.86503 64.2706 0.886637 53.588 0.886637Z" fill="white"/>
</g>
<path d="M30.6519 45.2235C31.0733 45.2235 31.0733 44.5652 30.6519 44.5652C30.2306 44.5652 30.2306 45.2235 30.6519 45.2235Z" fill="white"/>
<path d="M35.7164 46.7772C36.1377 46.7772 36.1377 46.1189 35.7164 46.1189C35.2951 46.1189 35.2951 46.7772 35.7164 46.7772Z" fill="white"/>
<path d="M45.6532 40.3517C46.0745 40.3517 46.0745 39.6934 45.6532 39.6934C45.2318 39.6934 45.2318 40.3517 45.6532 40.3517Z" fill="white"/>
<path d="M31.4242 56.5204C31.8455 56.5204 31.8455 55.8621 31.4242 55.8621C31.0028 55.8621 31.0028 56.5204 31.4242 56.5204Z" fill="white"/>
<path d="M17.5992 61.9716C18.0205 61.9716 18.0205 61.3132 17.5992 61.3132C17.1779 61.3132 17.1779 61.9716 17.5992 61.9716Z" fill="white"/>
<path d="M36.2965 69.1781C36.7178 69.1781 36.7178 68.5198 36.2965 68.5198C35.8751 68.5198 35.8751 69.1781 36.2965 69.1781Z" fill="white"/>
<path d="M51.6832 64.5084C52.1045 64.5084 52.1045 63.8501 51.6832 63.8501C51.2619 63.8501 51.2619 64.5084 51.6832 64.5084Z" fill="white"/>
<path d="M22.9884 71.1883V70.9952C22.9884 70.5739 22.3301 70.5739 22.3301 70.9952V71.1883C22.3301 71.6097 22.9884 71.6097 22.9884 71.1883Z" fill="white"/>
<path d="M16.4312 21.453C16.8526 21.453 16.8526 20.7947 16.4312 20.7947C16.0099 20.7947 16.0099 21.453 16.4312 21.453Z" fill="white"/>
<path d="M19.9339 12.1046C20.3553 12.1046 20.3553 11.4463 19.9339 11.4463C19.5126 11.4463 19.5126 12.1046 19.9339 12.1046Z" fill="white"/>
<path d="M33.3726 4.70473C33.794 4.70473 33.794 4.04639 33.3726 4.04639C32.9513 4.04639 32.9513 4.70473 33.3726 4.70473Z" fill="white"/>
<path d="M40.3863 13.2721C40.8077 13.2721 40.8077 12.6138 40.3863 12.6138C39.965 12.6138 39.965 13.2721 40.3863 13.2721Z" fill="white"/>
<path d="M11.3668 21.0668C11.7881 21.0668 11.7881 20.4084 11.3668 20.4084C10.9454 20.4084 10.9454 21.0668 11.3668 21.0668Z" fill="white"/>
<path d="M23.4452 4.70473C23.8665 4.70473 23.8665 4.04639 23.4452 4.04639C23.0238 4.04639 23.0238 4.70473 23.4452 4.70473Z" fill="white"/>
<path d="M11.1737 68.0109C11.595 68.0109 11.595 67.3525 11.1737 67.3525C10.7523 67.3525 10.7523 68.0109 11.1737 68.0109Z" fill="white"/>
<path d="M23.2428 51.0607C23.6641 51.0607 23.6641 50.4023 23.2428 50.4023C22.8214 50.4023 22.8214 51.0607 23.2428 51.0607Z" fill="white"/>
<path fill-rule="evenodd" clip-rule="evenodd" d="M26.9479 52.6847L27.8081 53.1762L26.9303 53.6327L26.4387 54.4929L25.9823 53.6151L25.1221 53.1236L25.9999 52.6671L26.4914 51.8069L26.9479 52.6847Z" fill="white"/>
<path fill-rule="evenodd" clip-rule="evenodd" d="M47.2069 68.8534L48.0671 69.3449L47.1893 69.8014L46.6978 70.6616L46.2413 69.7838L45.3811 69.2923L46.2589 68.8358L46.7504 67.9756L47.2069 68.8534Z" fill="white"/>
<path fill-rule="evenodd" clip-rule="evenodd" d="M16.8353 69.266L17.6955 69.7575L16.8178 70.214L16.3262 71.0742L15.8698 70.1964L15.0095 69.7049L15.8873 69.2484L16.3789 68.3882L16.8353 69.266Z" fill="white"/>
<path fill-rule="evenodd" clip-rule="evenodd" d="M23.0504 18.0121L23.9106 18.5036L23.0328 18.9601L22.5413 19.8203L22.0848 18.9425L21.2246 18.451L22.1024 17.9945L22.594 17.1343L23.0504 18.0121Z" fill="white"/>
<path fill-rule="evenodd" clip-rule="evenodd" d="M20.8465 63.0953C19.2313 67.6949 14.1929 70.1176 9.59326 68.5025C4.99367 66.8874 2.57098 61.8489 4.18611 57.2493C5.80123 52.6497 10.8397 50.227 15.4393 51.8421C20.0389 53.4572 22.4616 58.4957 20.8465 63.0953Z" fill="url(#paint1_linear_453_2813)"/>
<path d="M21.0045 57.021C23.3218 57.2053 24.8228 57.732 24.9545 58.5571C25.2178 60.2074 19.916 62.4282 13.1132 63.5166C6.31034 64.6051 0.578403 64.1486 0.315068 62.4984C0.192178 61.7259 1.28063 60.8306 3.17665 59.9879" stroke="#1D1670" stroke-width="0.5" stroke-miterlimit="10"/>
<g opacity="0.2">
<path fill-rule="evenodd" clip-rule="evenodd" d="M24.3318 64.3154C22.0407 70.8374 14.8956 74.2695 8.37362 71.9785C1.85168 69.6875 -1.58046 62.5423 0.710558 56.0203C3.00158 49.4984 10.1467 46.0663 16.6687 48.3573C23.1906 50.6483 26.6228 57.7935 24.3318 64.3154Z" fill="url(#paint2_linear_453_2813)"/>
</g>
<defs>
<linearGradient id="paint0_linear_453_2813" x1="48.4182" y1="102.745" x2="13.8949" y2="-13.711" gradientUnits="userSpaceOnUse">
<stop offset="0.04" stop-color="#0C0F6C"/>
<stop offset="0.91" stop-color="#4172DA"/>
</linearGradient>
<linearGradient id="paint1_linear_453_2813" x1="3.68577" y1="60.1723" x2="21.3468" y2="60.1723" gradientUnits="userSpaceOnUse">
<stop stop-color="#EFC0D5"/>
<stop offset="1" stop-color="#C74ECE"/>
</linearGradient>
<linearGradient id="paint2_linear_453_2813" x1="-0.00922646" y1="60.1723" x2="25.0428" y2="60.1723" gradientUnits="userSpaceOnUse">
<stop stop-color="#EFC0D5"/>
<stop offset="1" stop-color="#C74ECE"/>
</linearGradient>
</defs>
</svg>
