<svg width="56" height="78" viewBox="0 0 56 78" fill="none" xmlns="http://www.w3.org/2000/svg">
<path d="M7.93141 65.4646C2.955 60.5937 0 53.8719 0 46.7036C0 41.232 1.58304 36.2069 4.7004 31.6607L19.1425 5.13877C21.0584 1.90776 24.3381 0 27.8939 0C30.6865 0 33.0327 0.982294 34.9485 3.01183C36.6452 4.76534 37.5707 7.22513 37.5707 9.46574C37.5707 11.3816 37.0755 13.127 36.0364 14.8237L32.4806 20.62C38.3906 21.9352 43.6349 25.2717 47.4099 29.9153C51.1848 34.567 53.3686 40.5257 53.3686 46.7036C53.3686 53.8719 50.4136 60.5937 45.5508 65.4646C40.6799 70.3355 33.9013 73.2823 26.6843 73.2823C19.4673 73.2823 12.7942 70.3273 7.92329 65.4646H7.93141ZM31.7744 51.7368C33.2519 50.373 33.9581 48.6763 33.9581 46.7036C33.9581 44.7309 33.2437 43.0423 31.8231 41.6135C30.3456 40.2497 28.6489 39.5921 26.6843 39.5921C24.7197 39.5921 22.9662 40.3552 21.651 41.6135C20.1735 43.091 19.4673 44.7877 19.4673 46.7036C19.4673 48.6195 20.2304 50.3649 21.7079 51.7368C23.0717 53.1007 24.7684 53.8151 26.6843 53.8151C28.6002 53.8151 30.4592 53.052 31.7744 51.7368Z" fill="url(#paint0_linear_453_3343)"/>
<mask id="mask0_453_3343" style="mask-type:luminance" maskUnits="userSpaceOnUse" x="0" y="0" width="54" height="74">
<path d="M7.93141 65.4646C2.955 60.5937 0 53.8719 0 46.7036C0 41.232 1.58304 36.2069 4.7004 31.6607L19.1425 5.13877C21.0584 1.90776 24.3381 0 27.8939 0C30.6865 0 33.0327 0.982294 34.9485 3.01183C36.6452 4.76534 37.5707 7.22513 37.5707 9.46574C37.5707 11.3816 37.0755 13.127 36.0364 14.8237L32.4806 20.62C38.3906 21.9352 43.6349 25.2717 47.4099 29.9153C51.1848 34.567 53.3686 40.5257 53.3686 46.7036C53.3686 53.8719 50.4136 60.5937 45.5508 65.4646C40.6799 70.3355 33.9013 73.2823 26.6843 73.2823C19.4673 73.2823 12.7942 70.3273 7.92329 65.4646H7.93141ZM31.7744 51.7368C33.2519 50.373 33.9581 48.6763 33.9581 46.7036C33.9581 44.7309 33.2437 43.0423 31.8231 41.6135C30.3456 40.2497 28.6489 39.5921 26.6843 39.5921C24.7197 39.5921 22.9662 40.3552 21.651 41.6135C20.1735 43.091 19.4673 44.7877 19.4673 46.7036C19.4673 48.6195 20.2304 50.3649 21.7079 51.7368C23.0717 53.1007 24.7684 53.8151 26.6843 53.8151C28.6002 53.8151 30.4592 53.052 31.7744 51.7368Z" fill="white"/>
</mask>
<g mask="url(#mask0_453_3343)">
<path opacity="0.1" d="M-5.07339 9.49823C-8.29629 13.3625 -11.162 17.795 -11.1133 23.0068C-11.0889 25.6452 -10.1959 28.243 -8.33688 30.1264C-4.39959 34.1286 1.45358 32.984 6.51929 31.7176C14.1179 29.8179 21.8463 27.8614 28.5113 23.7618C32.2294 21.4806 35.6309 18.5256 40.1527 17.933C41.8169 17.7138 43.4893 18.5743 44.1793 20.1005C45.3158 22.6171 43.0428 24.6548 41.0213 26.0186C29.867 33.5035 17.5681 39.1456 6.29198 46.452C-4.9841 53.7583 -15.5133 63.1509 -20.7333 75.5311C-23.9724 83.2027 -24.9141 92.2788 -21.2528 99.7556C-19.613 103.108 -17.1369 105.974 -14.531 108.653C-10.3989 112.891 -5.76344 116.804 -0.267464 118.987C9.88832 123.03 21.4485 120.684 31.9372 117.932C43.3756 114.936 54.6192 111.202 65.5543 106.705C73.2909 103.522 80.9301 99.9017 87.4408 94.6574C94.0814 89.2994 99.5124 82.0824 101.347 73.7451C101.867 71.3827 102.053 68.7525 100.771 66.6986C99.7803 65.1155 98.0593 64.1332 96.3058 63.5163C89.3973 61.1052 81.8393 63.565 74.947 66.0166C67.592 68.6307 60.237 71.2528 52.8819 73.8669C40.583 78.2425 27.7076 82.6832 14.7673 80.9621C13.0869 80.7429 11.3415 80.3776 10.0588 79.2817C7.63148 77.2197 7.74513 73.3473 9.05215 70.4491C11.1629 65.765 15.6441 62.5015 20.4338 60.6506C25.2235 58.7996 30.3785 58.1664 35.4523 57.3708C41.8819 56.3642 48.2627 55.0734 54.5705 53.4985C58.11 52.6217 61.6657 51.6313 64.8075 49.7885C67.5108 48.2055 70.0924 45.4372 68.9152 42.1575C68.42 40.7855 67.3241 39.7139 66.0089 39.0888C63.1432 37.725 60.0178 38.3014 57.079 39.032C45.8922 41.8084 35.2818 46.7442 23.9814 49.0092C23.1533 49.1796 22.1548 49.2771 21.5865 48.6438C21.1806 48.1892 21.1644 47.5073 21.2537 46.9066C22.0249 41.7759 28.0973 39.7139 32.9682 37.936C40.1121 35.3301 46.6878 31.1493 52.0863 25.7832C55.4878 22.3979 58.5646 16.9182 54.7329 13.2082C53.4583 11.9661 51.7129 11.3248 49.935 11.268C41.4191 10.992 33.7637 15.1728 25.6131 17.0724C24.3061 17.3728 22.991 17.6245 21.6677 17.8193C17.6655 18.4201 15.7821 13.0296 19.281 10.9839C31.6287 3.75872 45.7299 -0.811789 58.2886 -7.86644C59.279 -8.41847 59.9934 -9.40889 60.0827 -10.5454C60.2938 -13.1189 57.2414 -14.0037 54.8709 -14.1336C32.067 -15.4244 9.87208 -8.44283 -5.06528 9.482L-5.07339 9.49823Z" fill="white"/>
</g>
<path fill-rule="evenodd" clip-rule="evenodd" d="M37.0838 36.3692L38.5451 37.2054L37.0514 37.9847L36.2152 39.4541L35.4359 37.9604L33.9746 37.1242L35.4602 36.3449L36.2964 34.8755L37.0838 36.3692Z" fill="white"/>
<path fill-rule="evenodd" clip-rule="evenodd" d="M20.4981 13.8087L21.4317 14.3445L20.4819 14.8397L19.9461 15.7733L19.4509 14.8235L18.5254 14.2877L19.4752 13.7925L20.0029 12.8589L20.4981 13.8087Z" fill="white"/>
<path fill-rule="evenodd" clip-rule="evenodd" d="M6.19372 47.3693L7.11918 47.8969L6.16936 48.3921L5.64168 49.3257L5.13836 48.3759L4.21289 47.8482L5.16271 47.3449L5.69039 46.4194L6.19372 47.3693Z" fill="white"/>
<path fill-rule="evenodd" clip-rule="evenodd" d="M42.0677 54.4889L43.0013 55.0247L42.0515 55.5199L41.5157 56.4535L41.0205 55.5037L40.0869 54.9679L41.0367 54.4726L41.5725 53.5391L42.0677 54.4889Z" fill="white"/>
<path d="M16.098 33.3003C14.377 33.9823 13.5246 35.9469 14.1984 37.6679C14.8803 39.3889 16.8449 40.2413 18.5659 39.5675L43.1395 29.8826L40.6716 23.6235L16.098 33.3085V33.3003Z" fill="url(#paint1_linear_453_3343)"/>
<path d="M16.4552 34.6807C15.3674 35.111 14.8316 36.3449 15.2618 37.4327C15.6921 38.5206 16.926 39.0564 18.0139 38.6261L33.487 32.5294L31.9365 28.584L16.4633 34.6807H16.4552Z" fill="url(#paint2_linear_453_3343)"/>
<path d="M22.2189 34.7292C22.2189 34.7292 18.6713 37.6761 17.9326 37.9684C17.1938 38.2606 16.3576 37.8953 16.0654 37.1566C15.7731 36.4178 16.1384 35.5817 16.8772 35.2894C17.6159 34.9971 22.227 34.7292 22.227 34.7292H22.2189Z" fill="url(#paint3_linear_453_3343)"/>
<path d="M25.921 14.7263C26.3107 14.7263 26.3107 14.1174 25.921 14.1174C25.5314 14.1174 25.5314 14.7263 25.921 14.7263Z" fill="white"/>
<path d="M31.8067 14.3203C32.1963 14.3203 32.1963 13.7114 31.8067 13.7114C31.417 13.7114 31.417 14.3203 31.8067 14.3203Z" fill="white"/>
<path d="M31.4008 7.62278C31.7904 7.62278 31.7904 7.01392 31.4008 7.01392C31.0111 7.01392 31.0111 7.62278 31.4008 7.62278Z" fill="white"/>
<path d="M19.2239 20.206C19.6136 20.206 19.6136 19.5972 19.2239 19.5972C18.8342 19.5972 18.8342 20.206 19.2239 20.206Z" fill="white"/>
<path d="M21.4563 10.0583C21.846 10.0583 21.846 9.44946 21.4563 9.44946C21.0666 9.44946 21.0666 10.0583 21.4563 10.0583Z" fill="white"/>
<path d="M42.7659 39.8923C43.1556 39.8923 43.1556 39.2834 42.7659 39.2834C42.3762 39.2834 42.3762 39.8923 42.7659 39.8923Z" fill="white"/>
<path d="M43.172 33.6008C43.5617 33.6008 43.5617 32.9919 43.172 32.9919C42.7823 32.9919 42.7823 33.6008 43.172 33.6008Z" fill="white"/>
<path d="M9.27858 41.313C9.66825 41.313 9.66825 40.7041 9.27858 40.7041C8.88891 40.7041 8.88891 41.313 9.27858 41.313Z" fill="white"/>
<path d="M11.7144 32.5862C12.104 32.5862 12.104 31.9773 11.7144 31.9773C11.3247 31.9773 11.3247 32.5862 11.7144 32.5862Z" fill="white"/>
<path d="M24.2971 27.1064C24.6868 27.1064 24.6868 26.4976 24.2971 26.4976C23.9075 26.4976 23.9075 27.1064 24.2971 27.1064Z" fill="white"/>
<path d="M40.3303 60.9995C40.72 60.9995 40.72 60.3906 40.3303 60.3906C39.9407 60.3906 39.9407 60.9995 40.3303 60.9995Z" fill="white"/>
<path d="M45.6076 54.0991C45.9972 54.0991 45.9972 53.4902 45.6076 53.4902C45.2179 53.4902 45.2179 54.0991 45.6076 54.0991Z" fill="white"/>
<path d="M23.2826 63.8408C23.6723 63.8408 23.6723 63.2319 23.2826 63.2319C22.8929 63.2319 22.8929 63.8408 23.2826 63.8408Z" fill="white"/>
<path d="M3.79909 52.6784C4.18876 52.6784 4.18876 52.0696 3.79909 52.0696C3.40942 52.0696 3.40942 52.6784 3.79909 52.6784Z" fill="white"/>
<path d="M28.3565 58.5642C28.7461 58.5642 28.7461 57.9553 28.3565 57.9553C27.9668 57.9553 27.9668 58.5642 28.3565 58.5642Z" fill="white"/>
<path d="M29.1684 67.697C29.558 67.697 29.558 67.0881 29.1684 67.0881C28.7787 67.0881 28.7787 67.697 29.1684 67.697Z" fill="white"/>
<path d="M12.932 60.3906C13.3217 60.3906 13.3217 59.7817 12.932 59.7817C12.5424 59.7817 12.5424 60.3906 12.932 60.3906Z" fill="white"/>
<path d="M16.179 53.2873C16.5686 53.2873 16.5686 52.6785 16.179 52.6785C15.7893 52.6785 15.7893 53.2873 16.179 53.2873Z" fill="white"/>
<path d="M27.6259 64.5472C28.6082 69.2963 25.5558 73.9399 20.8067 74.9222C16.0576 75.9045 11.414 72.8521 10.4317 68.103C9.44945 63.3539 12.5019 58.7103 17.251 57.728C22.0001 56.7457 26.6436 59.7981 27.6259 64.5472Z" fill="url(#paint4_linear_453_3343)"/>
<path d="M10.6672 69.9539C8.10997 69.9539 6.29963 69.5561 6.09667 68.59C5.86937 67.4941 7.89078 66.3494 9.63618 65.5863C9.7336 65.5376 9.85537 65.5863 9.90408 65.6919C9.95279 65.7974 9.90408 65.911 9.79854 65.9598C7.59853 66.9339 6.36457 67.8838 6.49446 68.5088C6.75424 69.7428 12.3233 70.0269 19.9137 68.452C23.3964 67.7295 26.6031 66.7635 28.9492 65.7324C31.1492 64.7583 32.3832 63.8085 32.2533 63.1834C32.1315 62.5907 30.654 62.0225 26.871 62.1767C26.7573 62.1767 26.668 62.0955 26.6599 61.9819C26.6599 61.8682 26.7411 61.7789 26.8547 61.7708C28.9005 61.6896 32.3669 61.7465 32.6511 63.1022C32.8784 64.1981 30.857 65.3428 29.1116 66.1059C26.7411 67.1531 23.5019 68.1273 19.9949 68.8579C16.7233 69.5317 13.2975 69.962 10.6591 69.962L10.6672 69.9539Z" fill="white"/>
<path fill-rule="evenodd" clip-rule="evenodd" d="M37.9521 19.1748C39.7544 15.6191 44.0976 14.2065 47.6452 16.0088C51.2009 17.811 52.6135 22.1542 50.8112 25.7018C49.009 29.2576 44.6658 30.6701 41.1182 28.8679C37.5625 27.0657 36.1499 22.7225 37.9521 19.1748Z" fill="url(#paint5_linear_453_3343)"/>
<g opacity="0.2">
<path fill-rule="evenodd" clip-rule="evenodd" d="M34.6969 17.5268C37.4083 12.177 43.9515 10.0419 49.3014 12.7534C54.6512 15.4648 56.7863 22.008 54.0748 27.3579C51.3634 32.7077 44.8202 34.8428 39.4703 32.1314C34.1205 29.4199 31.9854 22.8767 34.6969 17.5268Z" fill="url(#paint6_linear_453_3343)"/>
</g>
<path opacity="0.2" d="M30.4509 63.9625C31.7579 70.2703 27.6988 76.4482 21.3911 77.7552C15.0833 79.0622 8.90537 75.0032 7.59835 68.6954C6.29133 62.3876 10.3504 56.2097 16.6582 54.9027C22.966 53.5957 29.1439 57.6547 30.4509 63.9625Z" fill="url(#paint7_linear_453_3343)"/>
<defs>
<linearGradient id="paint0_linear_453_3343" x1="30.8814" y1="-53.0682" x2="25.2961" y2="79.7768" gradientUnits="userSpaceOnUse">
<stop stop-color="#0C0F6C"/>
<stop offset="0.59" stop-color="#3C0289"/>
<stop offset="1" stop-color="#8B46AB"/>
</linearGradient>
<linearGradient id="paint1_linear_453_3343" x1="14.196" y1="37.6656" x2="41.8975" y2="26.7425" gradientUnits="userSpaceOnUse">
<stop stop-color="#F2CC33" stop-opacity="0.2"/>
<stop offset="1" stop-color="#DA185E" stop-opacity="0"/>
</linearGradient>
<linearGradient id="paint2_linear_453_3343" x1="15.2629" y1="37.4284" x2="32.7009" y2="30.5524" gradientUnits="userSpaceOnUse">
<stop stop-color="#F2CC33" stop-opacity="0.8"/>
<stop offset="0.31" stop-color="#E77E45" stop-opacity="0.46"/>
<stop offset="0.63" stop-color="#DD3557" stop-opacity="0.13"/>
<stop offset="0.78" stop-color="#DA185E" stop-opacity="0"/>
</linearGradient>
<linearGradient id="paint3_linear_453_3343" x1="16.0555" y1="37.1593" x2="22.2181" y2="34.7293" gradientUnits="userSpaceOnUse">
<stop stop-color="#F2CC33"/>
<stop offset="1" stop-color="#F7DC6B" stop-opacity="0.3"/>
</linearGradient>
<linearGradient id="paint4_linear_453_3343" x1="10.4348" y1="68.1053" x2="27.6301" y2="64.5475" gradientUnits="userSpaceOnUse">
<stop stop-color="#4172DA"/>
<stop offset="0.82" stop-color="#8BECEF"/>
</linearGradient>
<linearGradient id="paint5_linear_453_3343" x1="41.1604" y1="35.0702" x2="46.3964" y2="14.6146" gradientUnits="userSpaceOnUse">
<stop offset="0.13" stop-color="#C74ECE"/>
<stop offset="1" stop-color="#EFC0D5"/>
</linearGradient>
<linearGradient id="paint6_linear_453_3343" x1="39.5289" y1="41.465" x2="47.4136" y2="10.6465" gradientUnits="userSpaceOnUse">
<stop offset="0.13" stop-color="#C74ECE"/>
<stop offset="1" stop-color="#EFC0D5"/>
</linearGradient>
<linearGradient id="paint7_linear_453_3343" x1="7.60455" y1="68.6907" x2="30.4601" y2="63.9617" gradientUnits="userSpaceOnUse">
<stop stop-color="#4172DA"/>
<stop offset="0.82" stop-color="#8BECEF"/>
</linearGradient>
</defs>
</svg>
