<svg width="50" height="18" viewBox="0 0 50 18" fill="none" xmlns="http://www.w3.org/2000/svg">
<path d="M3.16235 6.52889L4.73005 8.85236L3.08951 11.1288C3.07433 11.15 3.10013 11.1773 3.1229 11.1622L5.39932 9.52163L7.72279 11.0893C7.74404 11.1045 7.76984 11.0787 7.75618 11.0559L6.19607 8.72488L7.74404 6.54103C7.75921 6.51978 7.73341 6.49246 7.71065 6.50764L5.5268 8.05561L3.19574 6.4955C3.1745 6.48032 3.1487 6.50764 3.16235 6.52889Z" fill="#DBAA75"/>
<path d="M5.46133 3.74855L4.61905 8.08893L0.251352 8.79766C0.208859 8.80373 0.208859 8.86443 0.251352 8.87202L4.61905 9.58075L5.46133 13.9211C5.46892 13.9606 5.52659 13.9621 5.53417 13.9211L6.39315 9.58075L10.5545 8.87202C10.5954 8.86443 10.5954 8.80524 10.5545 8.79917L6.39315 8.09045L5.53417 3.75006C5.52659 3.71061 5.46892 3.71061 5.46133 3.75006V3.74855Z" fill="#DBAA75"/>
<path d="M20.911 4.85087L23.6189 8.86425L20.7852 12.7964C20.759 12.8331 20.8035 12.8803 20.8429 12.854L24.775 10.0203L28.7884 12.7282C28.8251 12.7544 28.8696 12.7099 28.846 12.6705L26.1512 8.64405L28.8251 4.87184C28.8513 4.83514 28.8067 4.78796 28.7674 4.81417L24.9952 7.48801L20.9687 4.7932C20.932 4.76698 20.8874 4.81417 20.911 4.85087Z" fill="#DBAA75"/>
<path d="M24.8825 0.0484409L23.4276 7.54568L15.8832 8.76988C15.8098 8.78037 15.8098 8.88522 15.8832 8.89833L23.4276 10.1225L24.8825 17.6198C24.8956 17.6879 24.9952 17.6905 25.0083 17.6198L26.492 10.1225L33.6799 8.89833C33.7507 8.88522 33.7507 8.78299 33.6799 8.7725L26.492 7.5483L25.0083 0.0510635C24.9952 -0.0170937 24.8956 -0.0170937 24.8825 0.0510635V0.0484409Z" fill="#DBAA75"/>
<path d="M41.9185 6.52889L43.4862 8.85236L41.8456 11.1288C41.8304 11.15 41.8562 11.1773 41.879 11.1622L44.1554 9.52163L46.4789 11.0893C46.5001 11.1045 46.5259 11.0787 46.5123 11.0559L44.9522 8.72488L46.5001 6.54103C46.5153 6.51978 46.4895 6.49246 46.4668 6.50764L44.2829 8.05561L41.9518 6.4955C41.9306 6.48032 41.9048 6.50764 41.9185 6.52889Z" fill="#DBAA75"/>
<path d="M44.2177 3.74855L43.3754 8.08893L39.0077 8.79766C38.9652 8.80373 38.9652 8.86443 39.0077 8.87202L43.3754 9.58075L44.2177 13.9211C44.2253 13.9606 44.2829 13.9621 44.2905 13.9211L45.1495 9.58075L49.3108 8.87202C49.3518 8.86443 49.3518 8.80524 49.3108 8.79917L45.1495 8.09045L44.2905 3.75006C44.2829 3.71061 44.2253 3.71061 44.2177 3.75006V3.74855Z" fill="#DBAA75"/>
</svg>
