<svg width="297" height="96" viewBox="0 0 297 96" fill="none" xmlns="http://www.w3.org/2000/svg">
<path fill-rule="evenodd" clip-rule="evenodd" d="M295.128 46.47L254.58 1.33487C252.129 -1.39353 247.604 0.340338 247.604 4.00805V19.031C247.44 19.0105 247.273 19 247.104 19H4.00664C0.826335 19 -1.0821 22.5319 0.660795 25.1921L14.1677 45.8079C15.0399 47.1392 15.0399 48.8608 14.1677 50.1921L0.660795 70.8079C-1.0821 73.4681 0.826328 77 4.00663 77H247.104C247.273 77 247.44 76.9895 247.604 76.969V91.5917C247.604 95.1997 252.004 96.9636 254.497 94.3546L295.044 51.9061C296.489 50.3943 296.525 48.0253 295.128 46.47Z" fill="url(#paint0_linear_453_3422)"/>
<defs>
<linearGradient id="paint0_linear_453_3422" x1="0" y1="47.7999" x2="296.152" y2="47.7999" gradientUnits="userSpaceOnUse">
<stop stop-color="#27AE60"/>
<stop offset="1" stop-color="#F2994A"/>
</linearGradient>
</defs>
</svg>
