<svg width="297" height="96" viewBox="0 0 297 96" fill="none" xmlns="http://www.w3.org/2000/svg">
<path fill-rule="evenodd" clip-rule="evenodd" d="M3.47938 19.033L28.1277 46.4698C29.525 48.0251 29.4887 50.3941 28.0446 51.9059L4.0741 77H4.00615C0.82584 77 -1.08258 73.468 0.660307 70.8078L14.1672 50.1921C15.0394 48.8608 15.0394 47.1391 14.1672 45.8078L0.660307 25.1921C-0.98405 22.6822 0.621731 19.3965 3.47938 19.033ZM12.3716 77H247.103C247.273 77 247.44 76.9894 247.604 76.9689V91.5917C247.604 95.1997 252.005 96.9636 254.497 94.3546L295.045 51.9061C296.489 50.3943 296.525 48.0253 295.128 46.47L254.58 1.33487C252.129 -1.39353 247.604 0.340338 247.604 4.00805V19.031C247.44 19.0105 247.273 19 247.103 19H11.5153L32.5911 42.4601C36.0841 46.3483 35.9937 52.2707 32.3832 56.0503L12.3716 77Z" fill="url(#paint0_linear_453_3416)"/>
<defs>
<linearGradient id="paint0_linear_453_3416" x1="-0.000488281" y1="47.7999" x2="296.152" y2="47.7999" gradientUnits="userSpaceOnUse">
<stop stop-color="#EB5757"/>
<stop offset="1" stop-color="#6F3185"/>
</linearGradient>
</defs>
</svg>
