<svg width="120" height="120" viewBox="0 0 120 120" fill="none" xmlns="http://www.w3.org/2000/svg">
<circle cx="60" cy="60" r="60" fill="url(#paint0_linear_453_2233)"/>
<path d="M49.6161 36.5455V54H46.8036L38.5792 42.1108H38.4343V54H35.2724V36.5455H38.1019L46.3178 48.4432H46.4712V36.5455H49.6161ZM52.9251 54V40.9091H56.0103V54H52.9251ZM54.4762 39.0511C53.9876 39.0511 53.5671 38.8892 53.2148 38.5653C52.8626 38.2358 52.6864 37.8409 52.6864 37.3807C52.6864 36.9148 52.8626 36.5199 53.2148 36.196C53.5671 35.8665 53.9876 35.7017 54.4762 35.7017C54.9705 35.7017 55.391 35.8665 55.7376 36.196C56.0898 36.5199 56.266 36.9148 56.266 37.3807C56.266 37.8409 56.0898 38.2358 55.7376 38.5653C55.391 38.8892 54.9705 39.0511 54.4762 39.0511ZM64.9783 54.2557C63.6658 54.2557 62.5323 53.983 61.5778 53.4375C60.6289 52.8864 59.8988 52.108 59.3874 51.1023C58.8761 50.0909 58.6204 48.9006 58.6204 47.5312C58.6204 46.1847 58.8761 45.0028 59.3874 43.9858C59.9045 42.9631 60.6261 42.1676 61.5522 41.5994C62.4783 41.0256 63.5664 40.7386 64.8164 40.7386C65.6232 40.7386 66.3846 40.8693 67.1005 41.1307C67.8221 41.3864 68.4585 41.7841 69.0096 42.3239C69.5664 42.8636 70.0039 43.5511 70.3221 44.3864C70.6403 45.2159 70.7994 46.2045 70.7994 47.3523V48.2983H60.0692V46.2188H67.842C67.8363 45.6278 67.7085 45.1023 67.4585 44.642C67.2085 44.1761 66.859 43.8097 66.4102 43.5426C65.967 43.2756 65.4499 43.142 64.859 43.142C64.2283 43.142 63.6744 43.2955 63.1971 43.6023C62.7198 43.9034 62.3477 44.3011 62.0806 44.7955C61.8192 45.2841 61.6857 45.821 61.68 46.4062V48.2216C61.68 48.983 61.8192 49.6364 62.0977 50.1818C62.3761 50.7216 62.7653 51.1364 63.2653 51.4261C63.7653 51.7102 64.3505 51.8523 65.021 51.8523C65.4698 51.8523 65.8761 51.7898 66.2397 51.6648C66.6033 51.5341 66.9187 51.3438 67.1857 51.0938C67.4528 50.8438 67.6545 50.5341 67.7908 50.1648L70.6715 50.4886C70.4897 51.25 70.1431 51.9148 69.6317 52.483C69.1261 53.0455 68.4783 53.483 67.6886 53.7955C66.8988 54.1023 65.9954 54.2557 64.9783 54.2557ZM66.4613 39.3409L64.7312 37.1591L63.0011 39.3409H60.2994V39.2216L63.5295 35.5398H65.9414L69.163 39.2216V39.3409H66.4613ZM76.4947 46.3295V54H73.4094V40.9091H76.3583V43.1335H76.5117C76.8129 42.4006 77.293 41.8182 77.9521 41.3864C78.6168 40.9545 79.4379 40.7386 80.4151 40.7386C81.3185 40.7386 82.1055 40.9318 82.7759 41.3182C83.4521 41.7045 83.9748 42.2642 84.3441 42.9972C84.7191 43.7301 84.9038 44.6193 84.8981 45.6648V54H81.8129V46.142C81.8129 45.267 81.5856 44.5824 81.131 44.0881C80.6822 43.5937 80.06 43.3466 79.2646 43.3466C78.7248 43.3466 78.2447 43.4659 77.8242 43.7045C77.4094 43.9375 77.0827 44.2756 76.8441 44.7188C76.6112 45.1619 76.4947 45.6989 76.4947 46.3295ZM38.5206 69.9091V72.2955H30.995V69.9091H38.5206ZM32.853 66.7727H35.9382V79.0625C35.9382 79.4773 36.0007 79.7955 36.1257 80.017C36.2564 80.233 36.4268 80.3807 36.6371 80.4602C36.8473 80.5398 37.0803 80.5795 37.3359 80.5795C37.5291 80.5795 37.7053 80.5653 37.8643 80.5369C38.0291 80.5085 38.1541 80.483 38.2393 80.4602L38.7592 82.8722C38.5945 82.929 38.3587 82.9915 38.0518 83.0597C37.7507 83.1278 37.3814 83.1676 36.9439 83.179C36.1712 83.2017 35.4751 83.0852 34.8558 82.8295C34.2365 82.5682 33.745 82.1648 33.3814 81.6193C33.0234 81.0739 32.8473 80.392 32.853 79.5739V66.7727ZM44.4673 75.3295V83H41.3821V65.5455H44.3991V72.1335H44.5526C44.8594 71.3949 45.3338 70.8125 45.9759 70.3864C46.6236 69.9545 47.4474 69.7386 48.4474 69.7386C49.3565 69.7386 50.1491 69.929 50.8253 70.3097C51.5014 70.6903 52.0241 71.2472 52.3935 71.9801C52.7685 72.7131 52.956 73.608 52.956 74.6648V83H49.8707V75.142C49.8707 74.2614 49.6435 73.5767 49.1889 73.0881C48.7401 72.5937 48.1094 72.3466 47.2969 72.3466C46.7514 72.3466 46.2628 72.4659 45.831 72.7045C45.4048 72.9375 45.0696 73.2756 44.8253 73.7188C44.5866 74.1619 44.4673 74.6989 44.4673 75.3295ZM56.1009 83V69.9091H59.1861V83H56.1009ZM57.652 68.0511C57.1634 68.0511 56.7429 67.8892 56.3906 67.5653C56.0384 67.2358 55.8622 66.8409 55.8622 66.3807C55.8622 65.9148 56.0384 65.5199 56.3906 65.196C56.7429 64.8665 57.1634 64.7017 57.652 64.7017C58.1463 64.7017 58.5668 64.8665 58.9134 65.196C59.2656 65.5199 59.4418 65.9148 59.4418 66.3807C59.4418 66.8409 59.2656 67.2358 58.9134 67.5653C58.5668 67.8892 58.1463 68.0511 57.652 68.0511ZM68.1541 83.2557C66.8416 83.2557 65.7081 82.983 64.7536 82.4375C63.8047 81.8864 63.0746 81.108 62.5632 80.1023C62.0518 79.0909 61.7962 77.9006 61.7962 76.5312C61.7962 75.1847 62.0518 74.0028 62.5632 72.9858C63.0803 71.9631 63.8018 71.1676 64.728 70.5994C65.6541 70.0256 66.7422 69.7386 67.9922 69.7386C68.799 69.7386 69.5604 69.8693 70.2763 70.1307C70.9979 70.3864 71.6342 70.7841 72.1854 71.3239C72.7422 71.8636 73.1797 72.5511 73.4979 73.3864C73.8161 74.2159 73.9751 75.2045 73.9751 76.3523V77.2983H63.245V75.2188H71.0178C71.0121 74.6278 70.8842 74.1023 70.6342 73.642C70.3842 73.1761 70.0348 72.8097 69.5859 72.5426C69.1428 72.2756 68.6257 72.142 68.0348 72.142C67.4041 72.142 66.8501 72.2955 66.3729 72.6023C65.8956 72.9034 65.5234 73.3011 65.2564 73.7955C64.995 74.2841 64.8615 74.821 64.8558 75.4062V77.2216C64.8558 77.983 64.995 78.6364 65.2734 79.1818C65.5518 79.7216 65.9411 80.1364 66.4411 80.4261C66.9411 80.7102 67.5263 80.8523 68.1967 80.8523C68.6456 80.8523 69.0518 80.7898 69.4155 80.6648C69.7791 80.5341 70.0945 80.3438 70.3615 80.0938C70.6286 79.8438 70.8303 79.5341 70.9666 79.1648L73.8473 79.4886C73.6655 80.25 73.3189 80.9148 72.8075 81.483C72.3018 82.0455 71.6541 82.483 70.8643 82.7955C70.0746 83.1023 69.1712 83.2557 68.1541 83.2557ZM63.4751 68.4091L66.9268 65.6051H68.853L72.3217 68.4091H69.7564L67.907 66.8409L66.049 68.4091H63.4751ZM71.4098 66.7045L73.3018 63.5597H76.0121L73.3786 66.7045H71.4098ZM84.929 77.4943V69.9091H88.0142V83H85.0227V80.6733H84.8864C84.5909 81.4062 84.1051 82.0057 83.429 82.4716C82.7585 82.9375 81.9318 83.1705 80.9489 83.1705C80.0909 83.1705 79.3324 82.9801 78.6733 82.5994C78.0199 82.2131 77.5085 81.6534 77.1392 80.9205C76.7699 80.1818 76.5852 79.2898 76.5852 78.2443V69.9091H79.6705V77.767C79.6705 78.5966 79.8977 79.2557 80.3523 79.7443C80.8068 80.233 81.4034 80.4773 82.142 80.4773C82.5966 80.4773 83.0369 80.3665 83.4631 80.1449C83.8892 79.9233 84.2386 79.5938 84.5114 79.1562C84.7898 78.7131 84.929 78.1591 84.929 77.4943Z" fill="white"/>
<defs>
<linearGradient id="paint0_linear_453_2233" x1="0" y1="0" x2="120" y2="120" gradientUnits="userSpaceOnUse">
<stop stop-color="#FFF6B7"/>
<stop offset="1" stop-color="#F6416C"/>
</linearGradient>
</defs>
</svg>
