<svg width="297" height="96" viewBox="0 0 297 96" fill="none" xmlns="http://www.w3.org/2000/svg">
<path fill-rule="evenodd" clip-rule="evenodd" d="M1.35059 20.0028L25.1277 46.4698C26.525 48.0251 26.4887 50.3941 25.0446 51.9059L1.73943 76.3034C0.0573307 75.1414 -0.608074 72.7438 0.660307 70.8078L14.1672 50.1921C15.0394 48.8608 15.0394 47.1391 14.1672 45.8078L0.660307 25.1921C-0.505169 23.4132 -0.0379078 21.2445 1.35059 20.0028ZM9.37158 77H247.103C247.273 77 247.44 76.9894 247.604 76.9689V91.5917C247.604 95.1997 252.005 96.9636 254.497 94.3546L295.045 51.9061C296.489 50.3943 296.525 48.0253 295.128 46.47L254.58 1.33487C252.129 -1.39353 247.604 0.340338 247.604 4.00805V19.031C247.44 19.0105 247.273 19 247.103 19H8.5153L29.5911 42.4601C33.0841 46.3483 32.9937 52.2707 29.3832 56.0503L9.37158 77Z" fill="url(#paint0_linear_453_3423)"/>
<defs>
<linearGradient id="paint0_linear_453_3423" x1="-0.000488281" y1="47.7999" x2="296.152" y2="47.7999" gradientUnits="userSpaceOnUse">
<stop stop-color="#F2994A"/>
<stop offset="1" stop-color="#EB5757"/>
</linearGradient>
</defs>
</svg>
