<svg width="120" height="120" viewBox="0 0 120 120" fill="none" xmlns="http://www.w3.org/2000/svg">
<circle cx="60" cy="60" r="60" fill="url(#paint0_linear_453_2182)"/>
<path d="M38.3185 36.5455L42.8612 50.2841H43.0401L47.5742 36.5455H51.0515L44.8981 54H40.9947L34.8498 36.5455H38.3185ZM53.2141 54V40.9091H56.2994V54H53.2141ZM54.7653 39.0511C54.2766 39.0511 53.8562 38.8892 53.5039 38.5653C53.1516 38.2358 52.9755 37.8409 52.9755 37.3807C52.9755 36.9148 53.1516 36.5199 53.5039 36.196C53.8562 35.8665 54.2766 35.7017 54.7653 35.7017C55.2596 35.7017 55.68 35.8665 56.0266 36.196C56.3789 36.5199 56.555 36.9148 56.555 37.3807C56.555 37.8409 56.3789 38.2358 56.0266 38.5653C55.68 38.8892 55.2596 39.0511 54.7653 39.0511ZM65.2674 54.2557C63.9549 54.2557 62.8214 53.983 61.8668 53.4375C60.918 52.8864 60.1879 52.108 59.6765 51.1023C59.1651 50.0909 58.9094 48.9006 58.9094 47.5312C58.9094 46.1847 59.1651 45.0028 59.6765 43.9858C60.1935 42.9631 60.9151 42.1676 61.8413 41.5994C62.7674 41.0256 63.8555 40.7386 65.1055 40.7386C65.9123 40.7386 66.6737 40.8693 67.3896 41.1307C68.1112 41.3864 68.7475 41.7841 69.2987 42.3239C69.8555 42.8636 70.293 43.5511 70.6112 44.3864C70.9293 45.2159 71.0884 46.2045 71.0884 47.3523V48.2983H60.3583V46.2188H68.131C68.1254 45.6278 67.9975 45.1023 67.7475 44.642C67.4975 44.1761 67.1481 43.8097 66.6992 43.5426C66.256 43.2756 65.739 43.142 65.1481 43.142C64.5174 43.142 63.9634 43.2955 63.4862 43.6023C63.0089 43.9034 62.6367 44.3011 62.3697 44.7955C62.1083 45.2841 61.9748 45.821 61.9691 46.4062V48.2216C61.9691 48.983 62.1083 49.6364 62.3867 50.1818C62.6651 50.7216 63.0543 51.1364 63.5543 51.4261C64.0543 51.7102 64.6396 51.8523 65.31 51.8523C65.7589 51.8523 66.1651 51.7898 66.5288 51.6648C66.8924 51.5341 67.2077 51.3438 67.4748 51.0938C67.7418 50.8438 67.9435 50.5341 68.0799 50.1648L70.9606 50.4886C70.7788 51.25 70.4322 51.9148 69.9208 52.483C69.4151 53.0455 68.7674 53.483 67.9776 53.7955C67.1879 54.1023 66.2844 54.2557 65.2674 54.2557ZM66.7504 39.3409L65.0202 37.1591L63.2901 39.3409H60.5884V39.2216L63.8185 35.5398H66.2305L69.4521 39.2216V39.3409H66.7504ZM76.7837 46.3295V54H73.6985V40.9091H76.6474V43.1335H76.8008C77.1019 42.4006 77.582 41.8182 78.2411 41.3864C78.9059 40.9545 79.7269 40.7386 80.7042 40.7386C81.6076 40.7386 82.3945 40.9318 83.065 41.3182C83.7411 41.7045 84.2638 42.2642 84.6332 42.9972C85.0082 43.7301 85.1928 44.6193 85.1871 45.6648V54H82.1019V46.142C82.1019 45.267 81.8746 44.5824 81.4201 44.0881C80.9712 43.5937 80.3491 43.3466 79.5536 43.3466C79.0138 43.3466 78.5337 43.4659 78.1133 43.7045C77.6985 43.9375 77.3718 44.2756 77.1332 44.7188C76.9002 45.1619 76.7837 45.6989 76.7837 46.3295ZM37.1126 83V69.9091H40.0614V72.1335H40.2148C40.4876 71.3835 40.9393 70.7983 41.57 70.3778C42.2006 69.9517 42.9535 69.7386 43.8285 69.7386C44.7148 69.7386 45.462 69.9545 46.07 70.3864C46.6836 70.8125 47.1154 71.3949 47.3654 72.1335H47.5018C47.7915 71.4062 48.2802 70.8267 48.9677 70.3949C49.6609 69.9574 50.4819 69.7386 51.4308 69.7386C52.6353 69.7386 53.6183 70.1193 54.3796 70.8807C55.141 71.642 55.5217 72.7528 55.5217 74.2131V83H52.4279V74.6903C52.4279 73.8778 52.212 73.2841 51.7802 72.9091C51.3484 72.5284 50.82 72.3381 50.195 72.3381C49.4506 72.3381 48.8683 72.571 48.4478 73.0369C48.033 73.4972 47.8256 74.0966 47.8256 74.8352V83H44.8001V74.5625C44.8001 73.8864 44.5955 73.3466 44.1864 72.9432C43.783 72.5398 43.2546 72.3381 42.6012 72.3381C42.158 72.3381 41.7546 72.4517 41.391 72.679C41.0273 72.9006 40.7376 73.2159 40.5217 73.625C40.3058 74.0284 40.1978 74.5 40.1978 75.0398V83H37.1126ZM62.4187 83.2642C61.5891 83.2642 60.842 83.1165 60.1772 82.821C59.5181 82.5199 58.9954 82.0767 58.609 81.4915C58.2283 80.9062 58.038 80.1847 58.038 79.3267C58.038 78.5881 58.1744 77.9773 58.4471 77.4943C58.7198 77.0114 59.092 76.625 59.5636 76.3352C60.0352 76.0455 60.5664 75.8267 61.1573 75.679C61.7539 75.5256 62.3704 75.4148 63.0067 75.3466C63.7738 75.267 64.396 75.196 64.8732 75.1335C65.3505 75.0653 65.6971 74.9631 65.913 74.8267C66.1346 74.6847 66.2454 74.4659 66.2454 74.1705V74.1193C66.2454 73.4773 66.055 72.9801 65.6744 72.6278C65.2937 72.2756 64.7454 72.0994 64.0295 72.0994C63.2738 72.0994 62.6744 72.2642 62.2312 72.5938C61.7937 72.9233 61.4982 73.3125 61.3448 73.7614L58.4641 73.3523C58.6914 72.5568 59.0664 71.892 59.5891 71.358C60.1119 70.8182 60.7511 70.4148 61.5067 70.1477C62.2624 69.875 63.0977 69.7386 64.0124 69.7386C64.6431 69.7386 65.271 69.8125 65.896 69.9602C66.521 70.108 67.092 70.3523 67.609 70.6932C68.1261 71.0284 68.5408 71.4858 68.8533 72.0653C69.1715 72.6449 69.3306 73.3693 69.3306 74.2386V83H66.3647V81.2017H66.2624C66.0749 81.5653 65.8107 81.9062 65.4698 82.2244C65.1346 82.5369 64.7113 82.7898 64.1999 82.983C63.6942 83.1705 63.1005 83.2642 62.4187 83.2642ZM63.2198 80.9972C63.8391 80.9972 64.3761 80.875 64.8306 80.6307C65.2852 80.3807 65.6346 80.0511 65.8789 79.642C66.1289 79.233 66.2539 78.7869 66.2539 78.304V76.7614C66.1573 76.8409 65.9925 76.9148 65.7596 76.983C65.5323 77.0511 65.2766 77.1108 64.9925 77.1619C64.7085 77.2131 64.4272 77.2585 64.1488 77.2983C63.8704 77.3381 63.6289 77.3722 63.4244 77.4006C62.9641 77.4631 62.5522 77.5653 62.1886 77.7074C61.8249 77.8494 61.538 78.0483 61.3278 78.304C61.1175 78.554 61.0124 78.8778 61.0124 79.2756C61.0124 79.8438 61.2198 80.2727 61.6346 80.5625C62.0494 80.8523 62.5778 80.9972 63.2198 80.9972ZM61.6431 68.3153L59.7766 68.2727C59.7766 67.2614 60.038 66.4687 60.5607 65.8949C61.0835 65.321 61.7283 65.0341 62.4954 65.0341C62.8647 65.0341 63.1857 65.0966 63.4585 65.2216C63.7312 65.3409 63.9812 65.4801 64.2085 65.6392C64.4414 65.7983 64.6687 65.9403 64.8903 66.0653C65.1119 66.1847 65.3562 66.2443 65.6232 66.2443C65.9471 66.2443 66.2028 66.1222 66.3903 65.8778C66.5835 65.6335 66.6829 65.321 66.6886 64.9403L68.521 65.017C68.5153 66.0341 68.2511 66.8239 67.7283 67.3864C67.2056 67.9432 66.5636 68.2244 65.8022 68.2301C65.3931 68.2358 65.0494 68.1761 64.771 68.0511C64.4925 67.9261 64.2482 67.7841 64.038 67.625C63.8335 67.4659 63.6261 67.3267 63.4158 67.2074C63.2056 67.0824 62.9585 67.0199 62.6744 67.0199C62.3732 67.0199 62.1261 67.1392 61.9329 67.3778C61.7397 67.6165 61.6431 67.929 61.6431 68.3153ZM75.5181 75.3295V83H72.4329V69.9091H75.3817V72.1335H75.5352C75.8363 71.4006 76.3164 70.8182 76.9755 70.3864C77.6403 69.9545 78.4613 69.7386 79.4386 69.7386C80.342 69.7386 81.1289 69.9318 81.7994 70.3182C82.4755 70.7045 82.9982 71.2642 83.3675 71.9972C83.7425 72.7301 83.9272 73.6193 83.9215 74.6648V83H80.8363V75.142C80.8363 74.267 80.609 73.5824 80.1545 73.0881C79.7056 72.5937 79.0835 72.3466 78.288 72.3466C77.7482 72.3466 77.2681 72.4659 76.8477 72.7045C76.4329 72.9375 76.1062 73.2756 75.8675 73.7188C75.6346 74.1619 75.5181 74.6989 75.5181 75.3295Z" fill="white"/>
<defs>
<linearGradient id="paint0_linear_453_2182" x1="0" y1="0" x2="120" y2="120" gradientUnits="userSpaceOnUse">
<stop stop-color="#F761A1"/>
<stop offset="1" stop-color="#8C1BAB"/>
</linearGradient>
</defs>
</svg>
